SplineFontDB: 3.0
FontName: Nobile-BoldItalic
FullName: Nobile Bold Italic
FamilyName: Nobile
Weight: Bold
Copyright: Copyright (c) 2010 by vernon adams. All rights reserved.
Version: 1.000;PS 001.000;hotconv 1.0.38
ItalicAngle: -12
UnderlinePosition: -292
UnderlineWidth: 40
Ascent: 1638
Descent: 410
sfntRevision: 0x00010000
LayerCount: 2
Layer: 0 1 "Back"  1
Layer: 1 1 "Fore"  0
XUID: [1021 332 469972825 9217122]
FSType: 0
OS2Version: 2
OS2_WeightWidthSlopeOnly: 0
OS2_UseTypoMetrics: 1
CreationTime: 1291284929
ModificationTime: 1291305172
PfmFamily: 17
TTFWeight: 700
TTFWidth: 5
LineGap: 67
VLineGap: 0
Panose: 2 0 3 3 0 0 0 0 0 0
OS2TypoAscent: 15
OS2TypoAOffset: 1
OS2TypoDescent: -92
OS2TypoDOffset: 1
OS2TypoLinegap: 133
OS2WinAscent: -174
OS2WinAOffset: 1
OS2WinDescent: -347
OS2WinDOffset: 1
HheadAscent: -174
HheadAOffset: 1
HheadDescent: 347
HheadDOffset: 1
OS2SubXSize: 1331
OS2SubYSize: 1433
OS2SubXOff: 0
OS2SubYOff: 286
OS2SupXSize: 1331
OS2SupYSize: 1433
OS2SupXOff: 0
OS2SupYOff: 983
OS2StrikeYSize: 102
OS2StrikeYPos: 512
OS2Vendor: 'pyrs'
OS2CodePages: 00000007.00000000
OS2UnicodeRanges: 80000267.0000000a.00000000.00000000
Lookup: 4 0 1 "'liga' Standard Ligatures in Latin lookup 0"  {"'liga' Standard Ligatures in Latin lookup 0 subtable"  } ['liga' ('latn' <'dflt' > ) ]
Lookup: 258 0 0 "'kern' Horizontal Kerning in Latin lookup 0"  {"'kern' Horizontal Kerning in Latin lookup 0 subtable"  } ['kern' ('latn' <'dflt' > ) ]
MarkAttachClasses: 1
DEI: 91125
TtTable: prep
PUSHW_1
 511
SCANCTRL
PUSHB_1
 1
SCANTYPE
SVTCA[y-axis]
MPPEM
PUSHB_1
 8
LT
IF
PUSHB_2
 1
 1
INSTCTRL
EIF
PUSHB_2
 70
 6
CALL
IF
POP
PUSHB_1
 16
EIF
MPPEM
PUSHB_1
 20
GT
IF
POP
PUSHB_1
 128
EIF
SCVTCI
PUSHB_1
 6
CALL
NOT
IF
SVTCA[y-axis]
PUSHB_1
 5
DUP
RCVT
PUSHB_1
 3
CALL
WCVTP
PUSHB_1
 6
DUP
RCVT
PUSHB_3
 5
 27
 2
CALL
PUSHB_1
 3
CALL
WCVTP
PUSHB_1
 7
DUP
RCVT
PUSHB_3
 6
 26
 2
CALL
PUSHB_1
 3
CALL
WCVTP
PUSHB_1
 8
DUP
RCVT
PUSHB_3
 7
 19
 2
CALL
PUSHB_1
 3
CALL
WCVTP
PUSHB_1
 9
DUP
RCVT
PUSHB_3

StartChar: .notdef
Encoding: 65536 -1 0
Width: 761
Flags: W
HStem: 0 123<261 525> 1279 123<421 687>
VStem: 87 580<0 580> 283 580<822 1402>
DStem2: 87 0 261 123 0.138454 0.990369<145.906 1312.93> 525 123 667 0 0.138454 0.990369<0 1167.3>
LayerCount: 2
Fore
SplineSet
87 0 m 1,0,-1
 283 1402 l 1,1,-1
 863 1402 l 1,2,-1
 667 0 l 1,3,-1
 87 0 l 1,0,-1
261 123 m 1,4,-1
 525 123 l 1,5,-1
 687 1279 l 1,6,-1
 421 1279 l 1,7,-1
 261 123 l 1,4,-1
EndSplineSet
EndChar

StartChar: exclam
Encoding: 33 33 4
Width: 671
Flags: W
HStem: -1 422<133 472> 1583 20G<248.773 690>
VStem: 74 398<-1 397> 133 399<22 421>
LayerCount: 2
Fore
SplineSet
690 1603 m 1,0,-1
 426 546 l 1,1,-1
 237 546 l 1,2,-1
 249 1603 l 1,3,-1
 690 1603 l 1,0,-1
472 -1 m 1,4,-1
 74 -1 l 1,5,-1
 133 421 l 1,6,-1
 532 421 l 1,7,-1
 472 -1 l 1,4,-1
EndSplineSet
EndChar

StartChar: quotedbl
Encoding: 34 34 5
Width: 1095
Flags: W
HStem: 1585 20G<245.824 611 676 1042>
LayerCount: 2
Fore
SplineSet
246 1605 m 1,0,-1
 611 1605 l 1,1,-1
 422 809 l 1,2,-1
 239 809 l 1,3,-1
 246 1605 l 1,0,-1
676 1605 m 1,4,-1
 1042 1605 l 1,5,-1
 853 809 l 1,6,-1
 703 809 l 1,7,-1
 676 1605 l 1,4,-1
EndSplineSet
EndChar

StartChar: numbersign
Encoding: 35 35 6
Width: 1120
Flags: W
HStem: 548 142<145 275 487 639 848 992> 909 142<214 357 567 718 931 1055> 1313 20G<809.745 993>
VStem: 214 179<277 456> 453 176<1159 1335> 577 180<277 457> 814 179<1154 1333>
DStem2: 214 277 393 277 0.207912 0.978148<37.2162 277.761 460.735 647.921 830.479 830.479> 577 277 757 277 0.207912 0.978148<37.4241 277.969 460.319 647.505 830.687 1082.2>
LayerCount: 2
Fore
SplineSet
639 548 m 1,0,-1
 455 548 l 1,1,-1
 393 277 l 1,2,-1
 214 277 l 1,3,-1
 275 548 l 1,4,-1
 130 548 l 1,5,-1
 145 690 l 1,6,-1
 305 690 l 1,7,-1
 357 909 l 1,8,-1
 197 909 l 1,9,-1
 214 1051 l 1,10,-1
 391 1051 l 1,11,-1
 453 1335 l 1,12,-1
 629 1335 l 1,13,-1
 567 1051 l 1,14,-1
 754 1051 l 1,15,-1
 814 1333 l 1,16,-1
 993 1333 l 1,17,-1
 931 1051 l 1,18,-1
 1072 1051 l 1,19,-1
 1055 909 l 1,20,-1
 900 909 l 1,21,-1
 848 690 l 1,22,-1
 1009 690 l 1,23,-1
 992 548 l 1,24,-1
 816 548 l 1,25,-1
 757 277 l 1,26,-1
 577 277 l 1,27,-1
 639 548 l 1,0,-1
487 690 m 1,28,-1
 667 690 l 1,29,-1
 718 909 l 1,30,-1
 537 909 l 1,31,-1
 487 690 l 1,28,-1
EndSplineSet
EndChar

StartChar: dollar
Encoding: 36 36 7
Width: 1331
Flags: W
HStem: -25 263<346.33 469 619 790.993> 1323 267<510.242 707 854 979.485>
VStem: 163 303<1078.2 1279.98> 447 106<-154 -48> 783 101<1642 1743> 871 309<313.629 581.623>
DStem2: 567 1045 409 787 0.909982 -0.414647<-127.91 91.1842 273.387 475.887> 447 -154 553 -154 0.174407 0.984674<18.4872 130.86 410.082 844.254 1178.61 1505.62 1788.25 1926.53>
LayerCount: 2
Fore
SplineSet
1180 503 m 0,0,1
 1180 376 1180 376 1133.5 275.5 c 128,-1,2
 1087 175 1087 175 1005 105.5 c 128,-1,3
 923 36 923 36 812 -1 c 128,-1,4
 701 -38 701 -38 572 -38 c 1,5,-1
 553 -154 l 1,6,-1
 447 -154 l 1,7,-1
 469 -25 l 1,8,9
 403 -18 403 -18 344.5 -3 c 128,-1,10
 286 12 286 12 239 28.5 c 128,-1,11
 192 45 192 45 157.5 60.5 c 128,-1,12
 123 76 123 76 106 85 c 1,13,-1
 187 352 l 2,14,15
 187 350 187 350 205 341.5 c 128,-1,16
 223 333 223 333 251.5 320.5 c 128,-1,17
 280 308 280 308 316 294 c 128,-1,18
 352 280 352 280 388.5 268 c 128,-1,19
 425 256 425 256 458.5 247.5 c 128,-1,20
 492 239 492 239 515 238 c 1,21,-1
 597 699 l 1,22,23
 595 700 595 700 580 707 c 128,-1,24
 565 714 565 714 544.5 723.5 c 128,-1,25
 524 733 524 733 500 744 c 128,-1,26
 476 755 476 755 456 764.5 c 128,-1,27
 436 774 436 774 422.5 780.5 c 0,28,-1
 409 787 l 1,29,30
 360 813 360 813 315.5 841 c 128,-1,31
 271 869 271 869 237 907 c 128,-1,32
 203 945 203 945 183 997.5 c 128,-1,33
 163 1050 163 1050 163 1126 c 0,34,35
 163 1250 163 1250 213.5 1338 c 128,-1,36
 264 1426 264 1426 347 1482 c 128,-1,37
 430 1538 430 1538 536.5 1564 c 128,-1,38
 643 1590 643 1590 754 1590 c 1,39,-1
 783 1743 l 1,40,-1
 884 1743 l 1,41,-1
 854 1590 l 1,42,43
 917 1590 917 1590 981.5 1573.5 c 128,-1,44
 1046 1557 1046 1557 1100 1537 c 0,45,46
 1162 1513 1162 1513 1221 1484 c 1,47,-1
 1113 1218 l 1,48,49
 1110 1219 1110 1219 1094 1227 c 128,-1,50
 1078 1235 1078 1235 1052.5 1247 c 128,-1,51
 1027 1259 1027 1259 995.5 1272 c 128,-1,52
 964 1285 964 1285 931 1296.5 c 128,-1,53
 898 1308 898 1308 866 1315.5 c 128,-1,54
 834 1323 834 1323 808 1323 c 1,55,-1
 746 967 l 2,56,57
 747 967 747 967 758 962 c 128,-1,58
 769 957 769 957 784 950 c 128,-1,59
 799 943 799 943 816 936 c 128,-1,60
 833 929 833 929 845 923 c 0,61,62
 912 892 912 892 973 860 c 128,-1,63
 1034 828 1034 828 1080 781.5 c 128,-1,64
 1126 735 1126 735 1153 668.5 c 128,-1,65
 1180 602 1180 602 1180 503 c 0,0,1
707 1329 m 1,66,67
 657 1329 657 1329 613 1323 c 128,-1,68
 569 1317 569 1317 536.5 1299 c 128,-1,69
 504 1281 504 1281 485 1248.5 c 128,-1,70
 466 1216 466 1216 466 1162 c 0,71,72
 466 1148 466 1148 470 1133.5 c 128,-1,73
 474 1119 474 1119 485 1104 c 128,-1,74
 496 1089 496 1089 515.5 1074 c 128,-1,75
 535 1059 535 1059 567 1045 c 0,76,77
 568 1044 568 1044 580 1038.5 c 128,-1,78
 592 1033 592 1033 606.5 1026 c 128,-1,79
 621 1019 621 1019 634 1013.5 c 128,-1,80
 647 1008 647 1008 650 1007 c 1,81,-1
 707 1329 l 1,66,67
619 232 m 1,82,83
 665 235 665 235 710 247 c 128,-1,84
 755 259 755 259 791 283 c 128,-1,85
 827 307 827 307 849 344 c 128,-1,86
 871 381 871 381 871 435 c 0,87,88
 871 481 871 481 864 513.5 c 128,-1,89
 857 546 857 546 837 570.5 c 128,-1,90
 817 595 817 595 782 615.5 c 128,-1,91
 747 636 747 636 692 660 c 1,92,-1
 619 232 l 1,82,83
EndSplineSet
EndChar

StartChar: percent
Encoding: 37 37 8
Width: 2081
Flags: W
HStem: -23 206<1374.94 1580.87> 663 197<1421.95 1629.27> 729 199<493.76 698.686> 1414 194<535.367 739.767>
VStem: 251 211<960.021 1329.6> 773 222<1009.79 1383.58> 1119 226<219.62 574.48> 1658 201<271.574 622.773>
DStem2: 511 -11 694 -107 0.465512 0.885041<0.224748 1935.26>
LayerCount: 2
Fore
SplineSet
1468 183 m 0,0,1
 1522 183 1522 183 1558 208 c 128,-1,2
 1594 233 1594 233 1616.5 277 c 128,-1,3
 1639 321 1639 321 1648.5 381.5 c 128,-1,4
 1658 442 1658 442 1658 514 c 0,5,6
 1658 585 1658 585 1628 624 c 128,-1,7
 1598 663 1598 663 1528 663 c 0,8,9
 1468 663 1468 663 1432 629.5 c 128,-1,10
 1396 596 1396 596 1376.5 546.5 c 128,-1,11
 1357 497 1357 497 1351 440 c 128,-1,12
 1345 383 1345 383 1345 335 c 0,13,14
 1345 254 1345 254 1377 218.5 c 128,-1,15
 1409 183 1409 183 1468 183 c 0,0,1
773 1196 m 0,16,17
 773 1239 773 1239 769 1278.5 c 128,-1,18
 765 1318 765 1318 752 1348 c 128,-1,19
 739 1378 739 1378 713 1396 c 128,-1,20
 687 1414 687 1414 644 1414 c 0,21,22
 554 1414 554 1414 508 1333 c 128,-1,23
 462 1252 462 1252 462 1085 c 0,24,25
 462 1000 462 1000 496 964 c 128,-1,26
 530 928 530 928 590 928 c 0,27,28
 630 928 630 928 663.5 946 c 128,-1,29
 697 964 697 964 721.5 998.5 c 128,-1,30
 746 1033 746 1033 759.5 1083 c 128,-1,31
 773 1133 773 1133 773 1196 c 0,16,17
511 -11 m 1,32,-1
 1412 1702 l 1,33,-1
 1594 1606 l 1,34,-1
 694 -107 l 1,35,-1
 511 -11 l 1,32,-1
1859 527 m 0,36,37
 1859 470 1859 470 1850.5 406.5 c 128,-1,38
 1842 343 1842 343 1823.5 282 c 128,-1,39
 1805 221 1805 221 1775 165.5 c 128,-1,40
 1745 110 1745 110 1702 68.5 c 128,-1,41
 1659 27 1659 27 1601 2 c 128,-1,42
 1543 -23 1543 -23 1469 -23 c 0,43,44
 1372 -23 1372 -23 1305 6 c 128,-1,45
 1238 35 1238 35 1197 82.5 c 128,-1,46
 1156 130 1156 130 1137.5 191 c 128,-1,47
 1119 252 1119 252 1119 317 c 0,48,49
 1119 362 1119 362 1125.5 419.5 c 128,-1,50
 1132 477 1132 477 1149 537.5 c 128,-1,51
 1166 598 1166 598 1196 656 c 128,-1,52
 1226 714 1226 714 1273 759 c 128,-1,53
 1320 804 1320 804 1386 832 c 128,-1,54
 1452 860 1452 860 1542 860 c 0,55,56
 1629 860 1629 860 1689.5 833 c 128,-1,57
 1750 806 1750 806 1787.5 760 c 128,-1,58
 1825 714 1825 714 1842 653.5 c 128,-1,59
 1859 593 1859 593 1859 527 c 0,36,37
995 1269 m 0,60,61
 995 1223 995 1223 988 1165 c 128,-1,62
 981 1107 981 1107 963 1047 c 128,-1,63
 945 987 945 987 914.5 930 c 128,-1,64
 884 873 884 873 836.5 828 c 128,-1,65
 789 783 789 783 723.5 756 c 128,-1,66
 658 729 658 729 570 729 c 0,67,68
 478 729 478 729 416.5 761 c 128,-1,69
 355 793 355 793 318 842.5 c 128,-1,70
 281 892 281 892 266 953 c 128,-1,71
 251 1014 251 1014 251 1071 c 0,72,73
 251 1167 251 1167 273.5 1262.5 c 128,-1,74
 296 1358 296 1358 344.5 1435 c 128,-1,75
 393 1512 393 1512 470 1560 c 128,-1,76
 547 1608 547 1608 657 1608 c 0,77,78
 749 1608 749 1608 813.5 1580 c 128,-1,79
 878 1552 878 1552 918.5 1505 c 128,-1,80
 959 1458 959 1458 977 1397 c 128,-1,81
 995 1336 995 1336 995 1269 c 0,60,61
EndSplineSet
EndChar

StartChar: ampersand
Encoding: 38 38 9
Width: 1663
Flags: W
HStem: -41 249<485.244 948.123> 1404 220<658.399 932.787>
VStem: 107 286<293.774 580.152> 339 268<1106.64 1353.34> 972 243<1138.83 1371.77>
DStem2: 892 835 673 721 0.700274 -0.713875<0 410.871 729.871 994.887> 1052.59 -50 1320.57 -50 0.207912 0.978148<603.905 973.487>
LayerCount: 2
Fore
SplineSet
736 1027 m 1,0,1
 772 1039 772 1039 814 1056.5 c 128,-1,2
 856 1074 856 1074 891.5 1102.5 c 128,-1,3
 927 1131 927 1131 950 1173 c 128,-1,4
 973 1215 973 1215 972 1275 c 0,5,6
 970 1342 970 1342 926 1373 c 128,-1,7
 882 1404 882 1404 807 1404 c 0,8,9
 740 1404 740 1404 700 1385.5 c 128,-1,10
 660 1367 660 1367 639 1339.5 c 128,-1,11
 618 1312 618 1312 612 1281.5 c 128,-1,12
 606 1251 606 1251 607 1227 c 0,13,14
 608 1189 608 1189 623 1156.5 c 128,-1,15
 638 1124 638 1124 657.5 1098.5 c 128,-1,16
 677 1073 677 1073 696 1055.5 c 128,-1,17
 715 1038 715 1038 724 1030 c 1,18,-1
 736 1027 l 1,0,1
1215 1328 m 0,19,20
 1216 1303 1216 1303 1211 1264 c 128,-1,21
 1206 1225 1206 1225 1192.5 1178.5 c 128,-1,22
 1179 1132 1179 1132 1156 1082 c 128,-1,23
 1133 1032 1133 1032 1096.5 985.5 c 128,-1,24
 1060 939 1060 939 1009.5 899.5 c 128,-1,25
 959 860 959 860 892 835 c 1,26,-1
 1178 540 l 1,27,28
 1198 631 1198 631 1217.5 721 c 128,-1,29
 1237 811 1237 811 1256 902 c 1,30,-1
 1514 896 l 1,31,32
 1507 834 1507 834 1495.5 773 c 128,-1,33
 1484 712 1484 712 1469.5 655.5 c 128,-1,34
 1455 599 1455 599 1439.5 549 c 128,-1,35
 1424 499 1424 499 1410 459.5 c 128,-1,36
 1396 420 1396 420 1385 392.5 c 128,-1,37
 1374 365 1374 365 1369 354 c 1,38,-1
 1593 129 l 1,39,-1
 1440 -50 l 1,40,-1
 1238 152 l 1,41,42
 1234 148 1234 148 1221 132.5 c 128,-1,43
 1208 117 1208 117 1181 95.5 c 128,-1,44
 1154 74 1154 74 1112 50 c 128,-1,45
 1070 26 1070 26 1008.5 6 c 128,-1,46
 947 -14 947 -14 863 -27.5 c 128,-1,47
 779 -41 779 -41 670 -41 c 0,48,49
 553 -41 553 -41 451.5 -18 c 128,-1,50
 350 5 350 5 274.5 53 c 128,-1,51
 199 101 199 101 154.5 176.5 c 128,-1,52
 110 252 110 252 107 357 c 0,53,54
 103 479 103 479 138 569 c 128,-1,55
 173 659 173 659 231 724 c 128,-1,56
 289 789 289 789 361.5 832.5 c 128,-1,57
 434 876 434 876 504 905 c 1,58,59
 501 908 501 908 487.5 921 c 128,-1,60
 474 934 474 934 456 955.5 c 128,-1,61
 438 977 438 977 418 1006 c 128,-1,62
 398 1035 398 1035 380.5 1070.5 c 128,-1,63
 363 1106 363 1106 351.5 1146.5 c 128,-1,64
 340 1187 340 1187 339 1231 c 0,65,66
 336 1318 336 1318 372 1390.5 c 128,-1,67
 408 1463 408 1463 472.5 1514.5 c 128,-1,68
 537 1566 537 1566 625 1595 c 128,-1,69
 713 1624 713 1624 815 1624 c 0,70,71
 903 1624 903 1624 976 1603.5 c 128,-1,72
 1049 1583 1049 1583 1101.5 1545 c 128,-1,73
 1154 1507 1154 1507 1183.5 1452 c 128,-1,74
 1213 1397 1213 1397 1215 1328 c 0,19,20
673 721 m 1,75,76
 531 685 531 685 460 608.5 c 128,-1,77
 389 532 389 532 393 417 c 0,78,79
 399 208 399 208 697 208 c 0,80,81
 781 208 781 208 846.5 223 c 128,-1,82
 912 238 912 238 958.5 257 c 128,-1,83
 1005 276 1005 276 1031.5 294.5 c 128,-1,84
 1058 313 1058 313 1062 321 c 1,85,-1
 673 721 l 1,75,76
EndSplineSet
EndChar

StartChar: quotesingle
Encoding: 39 39 10
Width: 716
Flags: W
HStem: 1584 20G<272 640>
VStem: 272 148<806 858.001>
LayerCount: 2
Fore
SplineSet
272 1604 m 1,0,-1
 640 1604 l 1,1,-1
 420 806 l 1,2,-1
 272 806 l 1,3,-1
 272 1604 l 1,0,-1
EndSplineSet
EndChar

StartChar: parenleft
Encoding: 40 40 11
Width: 790
Flags: W
VStem: 215 290<171.251 845.645>
LayerCount: 2
Fore
SplineSet
913 1497 m 1,0,1
 828 1422 828 1422 754 1314 c 128,-1,2
 680 1206 680 1206 624.5 1075.5 c 128,-1,3
 569 945 569 945 537 797.5 c 128,-1,4
 505 650 505 650 505 495 c 0,5,6
 505 297 505 297 556.5 149 c 128,-1,7
 608 1 608 1 693 -97 c 1,8,-1
 519 -300 l 1,9,10
 449 -237 449 -237 393 -153 c 128,-1,11
 337 -69 337 -69 297.5 30.5 c 128,-1,12
 258 130 258 130 236.5 242.5 c 128,-1,13
 215 355 215 355 215 476 c 0,14,15
 215 659 215 659 257.5 838 c 128,-1,16
 300 1017 300 1017 377 1177.5 c 128,-1,17
 454 1338 454 1338 561 1472.5 c 128,-1,18
 668 1607 668 1607 797 1702 c 1,19,-1
 913 1497 l 1,0,1
EndSplineSet
EndChar

StartChar: parenright
Encoding: 41 41 12
Width: 808
Flags: W
VStem: 464 290<556.447 1226.52>
LayerCount: 2
Fore
SplineSet
56 -97 m 1,0,1
 145 -18 145 -18 220 93.5 c 128,-1,2
 295 205 295 205 349 336.5 c 128,-1,3
 403 468 403 468 433.5 613.5 c 128,-1,4
 464 759 464 759 464 906 c 0,5,6
 464 1005 464 1005 450 1092 c 128,-1,7
 436 1179 436 1179 411 1253 c 128,-1,8
 386 1327 386 1327 351.5 1388 c 128,-1,9
 317 1449 317 1449 277 1497 c 1,10,-1
 450 1702 l 1,11,12
 520 1637 520 1637 576.5 1554 c 128,-1,13
 633 1471 633 1471 672.5 1372 c 128,-1,14
 712 1273 712 1273 733 1160 c 128,-1,15
 754 1047 754 1047 754 924 c 0,16,17
 754 742 754 742 711.5 563.5 c 128,-1,18
 669 385 669 385 591.5 224.5 c 128,-1,19
 514 64 514 64 407 -70.5 c 128,-1,20
 300 -205 300 -205 171 -300 c 1,21,-1
 56 -97 l 1,0,1
EndSplineSet
EndChar

StartChar: asterisk
Encoding: 42 42 13
Width: 1053
Flags: W
HStem: 1119 188<186 417 757 994>
DStem2: 238 871 398 766 0.557372 0.830263<2.0019 296.541 666.785 950.757>
LayerCount: 2
Fore
SplineSet
618 1419 m 1,0,-1
 767 1661 l 1,1,-1
 927 1554 l 1,2,-1
 757 1306 l 1,3,-1
 1020 1306 l 1,4,-1
 994 1118 l 1,5,-1
 736 1118 l 1,6,-1
 844 871 l 1,7,-1
 653 766 l 1,8,-1
 560 1012 l 1,9,-1
 398 766 l 1,10,-1
 238 871 l 1,11,-1
 417 1119 l 1,12,-1
 158 1119 l 1,13,-1
 186 1307 l 1,14,-1
 448 1307 l 1,15,-1
 349 1554 l 1,16,-1
 539 1660 l 1,17,-1
 618 1419 l 1,0,-1
EndSplineSet
EndChar

StartChar: plus
Encoding: 43 43 14
Width: 1060
Flags: W
HStem: 473 245<191 422 715 948>
VStem: 377 260<159 419> 501 258<774 1032>
DStem2: 377 159 637 159 0.140627 0.990063<36.5631 317.208 600.977 881.762>
LayerCount: 2
Fore
SplineSet
948 473 m 1,0,-1
 681 473 l 1,1,-1
 637 159 l 1,2,-1
 377 159 l 1,3,-1
 422 473 l 1,4,-1
 156 473 l 1,5,-1
 191 718 l 1,6,-1
 456 718 l 1,7,-1
 501 1032 l 1,8,-1
 759 1032 l 1,9,-1
 715 718 l 1,10,-1
 983 718 l 1,11,-1
 948 473 l 1,0,-1
EndSplineSet
EndChar

StartChar: comma
Encoding: 44 44 15
Width: 730
Flags: W
VStem: 169 400<21 421>
LayerCount: 2
Fore
SplineSet
110 -1 m 1,0,-1
 169 421 l 1,1,-1
 569 421 l 1,2,-1
 508 1 l 2,3,4
 496 -85 496 -85 463 -145.5 c 128,-1,5
 430 -206 430 -206 386.5 -247 c 128,-1,6
 343 -288 343 -288 295 -311 c 128,-1,7
 247 -334 247 -334 205 -345 c 1,8,-1
 129 -224 l 1,9,10
 132 -223 132 -223 144.5 -212.5 c 128,-1,11
 157 -202 157 -202 174.5 -184.5 c 128,-1,12
 192 -167 192 -167 212 -144.5 c 128,-1,13
 232 -122 232 -122 249.5 -97.5 c 128,-1,14
 267 -73 267 -73 279.5 -48 c 128,-1,15
 292 -23 292 -23 295 -1 c 1,16,-1
 110 -1 l 1,0,-1
EndSplineSet
EndChar

StartChar: hyphen
Encoding: 45 45 16
Width: 1101
Flags: W
HStem: 605 226<188 958>
LayerCount: 2
Fore
SplineSet
958 605 m 1,0,-1
 157 605 l 1,1,-1
 188 831 l 1,2,-1
 991 831 l 1,3,-1
 958 605 l 1,0,-1
EndSplineSet
EndChar

StartChar: period
Encoding: 46 46 17
Width: 722
Flags: W
HStem: -1 422<169 508>
VStem: 110 398<-1 397> 169 400<21 421>
LayerCount: 2
Fore
SplineSet
508 1 m 1,0,-1
 110 -1 l 1,1,-1
 169 421 l 1,2,-1
 569 421 l 1,3,-1
 508 1 l 1,0,-1
EndSplineSet
EndChar

StartChar: slash
Encoding: 47 47 18
Width: 1066
Flags: W
DStem2: 55 -72 283 -190 0.418618 0.908163<0 2003.59>
LayerCount: 2
Fore
SplineSet
55 -72 m 1,0,-1
 895 1747 l 1,1,-1
 1127 1641 l 1,2,-1
 283 -190 l 1,3,-1
 55 -72 l 1,0,-1
EndSplineSet
EndChar

StartChar: zero
Encoding: 48 48 19
Width: 1326
Flags: W
HStem: -28 253<504.496 785.171> 975 253<575.974 863.151>
VStem: 122 299<314.811 782.515> 944 297<428.302 891.133>
LayerCount: 2
Fore
SplineSet
639 225 m 0,0,1
 700 225 700 225 746 246.5 c 128,-1,2
 792 268 792 268 826 304 c 128,-1,3
 860 340 860 340 882.5 387.5 c 128,-1,4
 905 435 905 435 919 488 c 128,-1,5
 933 541 933 541 938.5 596 c 128,-1,6
 944 651 944 651 944 701 c 0,7,8
 944 842 944 842 886 908.5 c 128,-1,9
 828 975 828 975 721 975 c 0,10,11
 640 975 640 975 583 936 c 128,-1,12
 526 897 526 897 490 833 c 128,-1,13
 454 769 454 769 437.5 686 c 128,-1,14
 421 603 421 603 421 516 c 0,15,16
 421 464 421 464 430 412 c 128,-1,17
 439 360 439 360 463 318.5 c 128,-1,18
 487 277 487 277 529.5 251 c 128,-1,19
 572 225 572 225 639 225 c 0,0,1
749 1228 m 0,20,21
 867 1228 867 1228 959 1194 c 128,-1,22
 1051 1160 1051 1160 1113.5 1097 c 128,-1,23
 1176 1034 1176 1034 1208.5 944 c 128,-1,24
 1241 854 1241 854 1241 741 c 0,25,26
 1241 575 1241 575 1201 434 c 128,-1,27
 1161 293 1161 293 1082.5 190.5 c 128,-1,28
 1004 88 1004 88 886 30 c 128,-1,29
 768 -28 768 -28 612 -28 c 0,30,31
 487 -28 487 -28 394.5 10.5 c 128,-1,32
 302 49 302 49 241.5 119 c 128,-1,33
 181 189 181 189 151.5 287 c 128,-1,34
 122 385 122 385 122 504 c 0,35,36
 122 666 122 666 166 799.5 c 128,-1,37
 210 933 210 933 291.5 1028 c 128,-1,38
 373 1123 373 1123 489 1175.5 c 128,-1,39
 605 1228 605 1228 749 1228 c 0,20,21
EndSplineSet
EndChar

StartChar: one
Encoding: 49 49 20
Width: 777
Flags: W
HStem: 0 21G<243 543.793>
VStem: 243 298<0 298>
DStem2: 243 0 541 0 0.138309 0.990389<41.216 946.39>
LayerCount: 2
Fore
SplineSet
243 0 m 1,0,-1
 376 937 l 1,1,-1
 212 880 l 1,2,-1
 160 1110 l 1,3,-1
 413 1203 l 1,4,-1
 709 1203 l 1,5,-1
 541 0 l 1,6,-1
 243 0 l 1,0,-1
EndSplineSet
EndChar

StartChar: two
Encoding: 50 50 21
Width: 1061
Flags: W
HStem: 0 261<537 869> 960 253<393.219 703.75>
VStem: 722 299<726.406 941.948>
DStem2: 440 493 537 261 0.777349 0.629069<-70.5411 368.435>
LayerCount: 2
Fore
SplineSet
722 843 m 0,0,1
 722 880 722 880 712 903 c 128,-1,2
 702 926 702 926 683.5 939 c 128,-1,3
 665 952 665 952 637 956 c 128,-1,4
 609 960 609 960 573 960 c 1,5,6
 545 958 545 958 510 950 c 128,-1,7
 475 942 475 942 439 930.5 c 128,-1,8
 403 919 403 919 368.5 906.5 c 128,-1,9
 334 894 334 894 307 883 c 128,-1,10
 280 872 280 872 262.5 864.5 c 128,-1,11
 245 857 245 857 243 856 c 1,12,-1
 193 1088 l 1,13,14
 196 1089 196 1089 213.5 1099 c 128,-1,15
 231 1109 231 1109 260 1123 c 128,-1,16
 289 1137 289 1137 329 1152.5 c 128,-1,17
 369 1168 369 1168 416.5 1181.5 c 128,-1,18
 464 1195 464 1195 518 1204 c 128,-1,19
 572 1213 572 1213 630 1213 c 0,20,21
 705 1213 705 1213 775 1197 c 128,-1,22
 845 1181 845 1181 900 1144.5 c 128,-1,23
 955 1108 955 1108 988 1050 c 128,-1,24
 1021 992 1021 992 1021 908 c 0,25,26
 1021 836 1021 836 998.5 770 c 128,-1,27
 976 704 976 704 931.5 639.5 c 128,-1,28
 887 575 887 575 822 509.5 c 128,-1,29
 757 444 757 444 673 373 c 1,30,-1
 537 261 l 1,31,-1
 905 261 l 1,32,-1
 869 0 l 1,33,-1
 64 0 l 1,34,-1
 92 213 l 1,35,-1
 440 493 l 2,36,37
 476 522 476 522 524.5 563 c 128,-1,38
 573 604 573 604 617 651 c 128,-1,39
 661 698 661 698 691.5 747.5 c 128,-1,40
 722 797 722 797 722 843 c 0,0,1
EndSplineSet
EndChar

StartChar: three
Encoding: 51 51 22
Width: 991
Flags: W
HStem: -182 253<123.214 521.881> 436 240<346 514.883> 969 255<262.719 592.894>
VStem: 582 295<128.013 373.48> 629 280<742.803 941.683>
LayerCount: 2
Fore
SplineSet
346 676 m 1,0,1
 424 676 424 676 477.5 690 c 128,-1,2
 531 704 531 704 565 727.5 c 128,-1,3
 599 751 599 751 614 782 c 128,-1,4
 629 813 629 813 629 848 c 0,5,6
 629 908 629 908 594 938.5 c 128,-1,7
 559 969 559 969 473 969 c 0,8,9
 432 969 432 969 388.5 960 c 128,-1,10
 345 951 345 951 306.5 939 c 128,-1,11
 268 927 268 927 238 915 c 128,-1,12
 208 903 208 903 194 897 c 1,13,-1
 117 1121 l 1,14,15
 145 1135 145 1135 183.5 1153 c 128,-1,16
 222 1171 222 1171 268.5 1186.5 c 128,-1,17
 315 1202 315 1202 368.5 1213 c 128,-1,18
 422 1224 422 1224 479 1224 c 0,19,20
 554 1224 554 1224 630.5 1210 c 128,-1,21
 707 1196 707 1196 769 1160.5 c 128,-1,22
 831 1125 831 1125 870 1064 c 128,-1,23
 909 1003 909 1003 909 909 c 0,24,25
 909 823 909 823 886 760 c 128,-1,26
 863 697 863 697 828.5 654.5 c 128,-1,27
 794 612 794 612 753.5 588 c 128,-1,28
 713 564 713 564 677 557 c 1,29,30
 719 546 719 546 755.5 520.5 c 128,-1,31
 792 495 792 495 819 459 c 128,-1,32
 846 423 846 423 861.5 379 c 128,-1,33
 877 335 877 335 877 286 c 0,34,35
 877 249 877 249 869 200 c 128,-1,36
 861 151 861 151 839.5 99 c 128,-1,37
 818 47 818 47 780 -3.5 c 128,-1,38
 742 -54 742 -54 683 -93.5 c 128,-1,39
 624 -133 624 -133 540.5 -157.5 c 128,-1,40
 457 -182 457 -182 344 -182 c 0,41,42
 285 -182 285 -182 233 -174 c 128,-1,43
 181 -166 181 -166 139.5 -154.5 c 128,-1,44
 98 -143 98 -143 68 -130.5 c 128,-1,45
 38 -118 38 -118 22 -109 c 1,46,-1
 94 125 l 1,47,48
 96 124 96 124 125 115.5 c 128,-1,49
 154 107 154 107 195 97 c 128,-1,50
 236 87 236 87 282 79 c 128,-1,51
 328 71 328 71 363 71 c 0,52,53
 431 71 431 71 474 88 c 128,-1,54
 517 105 517 105 541 131.5 c 128,-1,55
 565 158 565 158 573.5 190 c 128,-1,56
 582 222 582 222 582 253 c 0,57,58
 582 344 582 344 519 389 c 128,-1,59
 456 434 456 434 320 436 c 1,60,-1
 346 676 l 1,0,1
EndSplineSet
EndChar

StartChar: four
Encoding: 52 52 23
Width: 1097
Flags: W
HStem: 110 248<356 557 867 996>
DStem2: 44 356 356 358 0.609664 0.79266<191.801 743.651> 519 -153 801 -150 0.133878 0.990998<40.7266 265.72 554.971 860.295>
LayerCount: 2
Fore
SplineSet
677 1179 m 1,0,-1
 980 1175 l 1,1,-1
 867 360 l 1,2,-1
 1031 360 l 1,3,-1
 996 110 l 1,4,-1
 831 110 l 1,5,-1
 801 -150 l 1,6,-1
 519 -153 l 1,7,-1
 557 110 l 1,8,-1
 44 110 l 1,9,-1
 44 356 l 1,10,-1
 677 1179 l 1,0,-1
356 358 m 1,11,-1
 591 358 l 1,12,-1
 680 805 l 1,13,-1
 356 358 l 1,11,-1
EndSplineSet
EndChar

StartChar: five
Encoding: 53 53 24
Width: 1083
Flags: W
HStem: -188 255<226.588 615.813> 499 243<446.73 657.006> 950 240<479 981>
VStem: 706 283<156.549 451.742>
LayerCount: 2
Fore
SplineSet
989 342 m 0,0,1
 989 224 989 224 947 126.5 c 128,-1,2
 905 29 905 29 829 -41 c 128,-1,3
 753 -111 753 -111 648.5 -149.5 c 128,-1,4
 544 -188 544 -188 420 -188 c 0,5,6
 244 -188 244 -188 48 -96 c 1,7,-1
 138 153 l 1,8,9
 153 145 153 145 183 130.5 c 128,-1,10
 213 116 213 116 251 102 c 128,-1,11
 289 88 289 88 331.5 77.5 c 128,-1,12
 374 67 374 67 416 67 c 0,13,14
 481 67 481 67 534.5 78 c 128,-1,15
 588 89 588 89 626 118.5 c 128,-1,16
 664 148 664 148 685 198 c 128,-1,17
 706 248 706 248 706 326 c 0,18,19
 706 411 706 411 658.5 455 c 128,-1,20
 611 499 611 499 523 499 c 0,21,22
 472 499 472 499 408 478.5 c 128,-1,23
 344 458 344 458 270 419 c 1,24,-1
 157 541 l 1,25,-1
 259 1190 l 1,26,-1
 1015 1190 l 1,27,-1
 981 950 l 1,28,-1
 479 950 l 1,29,-1
 432 687 l 2,30,31
 433 689 433 689 446 697.5 c 128,-1,32
 459 706 459 706 479 715.5 c 128,-1,33
 499 725 499 725 525 733 c 128,-1,34
 551 741 551 741 579 742 c 0,35,36
 605 743 605 743 629 741 c 128,-1,37
 653 739 653 739 676 734 c 0,38,39
 746 720 746 720 804 685 c 128,-1,40
 862 650 862 650 903 599 c 128,-1,41
 944 548 944 548 966.5 482.5 c 128,-1,42
 989 417 989 417 989 342 c 0,0,1
EndSplineSet
EndChar

StartChar: six
Encoding: 54 54 25
Width: 1197
Flags: W
HStem: -154 252<473.369 729.786> 616 218<540.401 775.699> 1312 20G<896.5 952.424>
VStem: 118 295<160.132 563.205> 828 281<212.784 564.22>
LayerCount: 2
Fore
SplineSet
451 562 m 1,0,1
 440 531 440 531 432 493 c 1,2,3
 424 461 424 461 418.5 417 c 128,-1,4
 413 373 413 373 413 322 c 0,5,6
 413 210 413 210 462 154 c 128,-1,7
 511 98 511 98 603 98 c 0,8,9
 668 98 668 98 711 128 c 128,-1,10
 754 158 754 158 780 206 c 128,-1,11
 806 254 806 254 817 314 c 128,-1,12
 828 374 828 374 828 433 c 0,13,14
 828 474 828 474 816.5 507.5 c 128,-1,15
 805 541 805 541 783 565 c 128,-1,16
 761 589 761 589 730 602.5 c 128,-1,17
 699 616 699 616 660 616 c 0,18,19
 612 616 612 616 574.5 607.5 c 128,-1,20
 537 599 537 599 509 589 c 0,21,22
 476 577 476 577 451 562 c 1,0,1
1109 420 m 0,23,24
 1109 316 1109 316 1076.5 213.5 c 128,-1,25
 1044 111 1044 111 978 29 c 128,-1,26
 912 -53 912 -53 812.5 -103.5 c 128,-1,27
 713 -154 713 -154 578 -154 c 0,28,29
 471 -154 471 -154 386 -117 c 128,-1,30
 301 -80 301 -80 241.5 -14.5 c 128,-1,31
 182 51 182 51 150 141 c 128,-1,32
 118 231 118 231 118 338 c 0,33,34
 118 473 118 473 150.5 591.5 c 128,-1,35
 183 710 183 710 240 811 c 128,-1,36
 297 912 297 912 376 995.5 c 128,-1,37
 455 1079 455 1079 547 1144.5 c 128,-1,38
 639 1210 639 1210 741.5 1257 c 128,-1,39
 844 1304 844 1304 949 1332 c 1,40,-1
 993 1075 l 1,41,42
 850 1045 850 1045 732.5 970.5 c 128,-1,43
 615 896 615 896 540 789 c 1,44,45
 543 792 543 792 559 799.5 c 128,-1,46
 575 807 575 807 599.5 814.5 c 128,-1,47
 624 822 624 822 655 828 c 128,-1,48
 686 834 686 834 719 834 c 0,49,50
 813 834 813 834 886 802 c 128,-1,51
 959 770 959 770 1008.5 714 c 128,-1,52
 1058 658 1058 658 1083.5 582.5 c 128,-1,53
 1109 507 1109 507 1109 420 c 0,23,24
EndSplineSet
EndChar

StartChar: seven
Encoding: 55 55 26
Width: 957
Flags: W
HStem: 938 252<103 622>
DStem2: 79 -88 326 -221 0.470514 0.882393<0 1160.82>
LayerCount: 2
Fore
SplineSet
928 1190 m 1,0,-1
 984 1013 l 1,1,-1
 326 -221 l 1,2,-1
 79 -88 l 1,3,-1
 622 938 l 1,4,-1
 103 938 l 1,5,-1
 97 1190 l 1,6,-1
 928 1190 l 1,0,-1
EndSplineSet
EndChar

StartChar: eight
Encoding: 56 56 27
Width: 1158
Flags: W
HStem: -167 246<406.74 695.535> 505 183<508.828 706.334> 1066 228<514.987 777.417>
VStem: 76 295<116.753 377.96> 178 282<739.507 1011.4> 761 288<145.912 449.495> 812 287<783.015 1033.51>
LayerCount: 2
Fore
SplineSet
654 1066 m 0,0,1
 593 1066 593 1066 555 1048 c 128,-1,2
 517 1030 517 1030 495.5 1000.5 c 128,-1,3
 474 971 474 971 466.5 934.5 c 128,-1,4
 459 898 459 898 460 861 c 0,5,6
 462 786 462 786 503 738 c 128,-1,7
 544 690 544 690 618 688 c 1,8,9
 677 689 677 689 715 715 c 128,-1,10
 753 741 753 741 775 778.5 c 128,-1,11
 797 816 797 816 805 859.5 c 128,-1,12
 813 903 813 903 812 940 c 0,13,14
 810 1003 810 1003 771.5 1034.5 c 128,-1,15
 733 1066 733 1066 654 1066 c 0,0,1
593 505 m 1,16,17
 526 503 526 503 482.5 471.5 c 128,-1,18
 439 440 439 440 414 396 c 128,-1,19
 389 352 389 352 379.5 304 c 128,-1,20
 370 256 370 256 371 221 c 0,21,22
 375 79 375 79 547 79 c 0,23,24
 588 79 588 79 627.5 89 c 128,-1,25
 667 99 667 99 697.5 125.5 c 128,-1,26
 728 152 728 152 746 197.5 c 128,-1,27
 764 243 764 243 761 314 c 0,28,29
 760 355 760 355 748.5 389.5 c 128,-1,30
 737 424 737 424 716 449.5 c 128,-1,31
 695 475 695 475 664 489.5 c 128,-1,32
 633 504 633 504 593 505 c 1,16,17
178 866 m 1,33,34
 174 960 174 960 208 1039 c 128,-1,35
 242 1118 242 1118 307 1174.5 c 128,-1,36
 372 1231 372 1231 465 1262.5 c 128,-1,37
 558 1294 558 1294 674 1294 c 0,38,39
 762 1294 762 1294 838.5 1275.5 c 128,-1,40
 915 1257 915 1257 972 1219 c 128,-1,41
 1029 1181 1029 1181 1062.5 1122 c 128,-1,42
 1096 1063 1096 1063 1099 982 c 1,43,44
 1100 905 1100 905 1078 839.5 c 128,-1,45
 1056 774 1056 774 1016.5 722.5 c 128,-1,46
 977 671 977 671 924 636.5 c 128,-1,47
 871 602 871 602 812 589 c 1,48,49
 855 581 855 581 896.5 557 c 128,-1,50
 938 533 938 533 971.5 495 c 128,-1,51
 1005 457 1005 457 1026 406 c 128,-1,52
 1047 355 1047 355 1049 294 c 1,53,54
 1052 245 1052 245 1041 192 c 128,-1,55
 1030 139 1030 139 1004 87.5 c 128,-1,56
 978 36 978 36 935.5 -10 c 128,-1,57
 893 -56 893 -56 833.5 -91 c 128,-1,58
 774 -126 774 -126 695.5 -146.5 c 128,-1,59
 617 -167 617 -167 519 -167 c 0,60,61
 433 -167 433 -167 354.5 -148 c 128,-1,62
 276 -129 276 -129 215 -88 c 128,-1,63
 154 -47 154 -47 116.5 17.5 c 128,-1,64
 79 82 79 82 76 173 c 0,65,66
 73 263 73 263 101.5 335.5 c 128,-1,67
 130 408 130 408 176 461 c 128,-1,68
 222 514 222 514 279 546.5 c 128,-1,69
 336 579 336 579 391 589 c 1,70,71
 347 600 347 600 308.5 624.5 c 128,-1,72
 270 649 270 649 241.5 684.5 c 128,-1,73
 213 720 213 720 196 766 c 128,-1,74
 179 812 179 812 178 866 c 1,33,34
EndSplineSet
EndChar

StartChar: nine
Encoding: 57 57 28
Width: 1178
Flags: W
HStem: 223 220<446.621 672.778> 959 253<494.358 745.097>
VStem: 107 283<505.899 837.854> 808 294<480.709 893.22>
LayerCount: 2
Fore
SplineSet
765 480 m 1,0,1
 765 484 765 484 772.5 503.5 c 128,-1,2
 780 523 780 523 788.5 555.5 c 128,-1,3
 797 588 797 588 803.5 631.5 c 128,-1,4
 810 675 810 675 808 727 c 0,5,6
 801 959 801 959 620 959 c 0,7,8
 562 959 562 959 518.5 932 c 128,-1,9
 475 905 475 905 446.5 859.5 c 128,-1,10
 418 814 418 814 404 754 c 128,-1,11
 390 694 390 694 390 628 c 0,12,13
 390 549 390 549 429.5 504.5 c 128,-1,14
 469 460 469 460 532 447 c 0,15,16
 548 444 548 444 565 443 c 128,-1,17
 582 442 582 442 600 443 c 0,18,19
 673 444 673 444 710 456 c 128,-1,20
 747 468 747 468 765 480 c 1,0,1
107 625 m 0,21,22
 107 694 107 694 120.5 764.5 c 128,-1,23
 134 835 134 835 162 900 c 128,-1,24
 190 965 190 965 232.5 1022 c 128,-1,25
 275 1079 275 1079 332.5 1121 c 128,-1,26
 390 1163 390 1163 464 1187.5 c 128,-1,27
 538 1212 538 1212 628 1212 c 0,28,29
 739 1212 739 1212 825.5 1181.5 c 128,-1,30
 912 1151 912 1151 972.5 1093.5 c 128,-1,31
 1033 1036 1033 1036 1066 953 c 128,-1,32
 1099 870 1099 870 1102 764 c 0,33,34
 1106 644 1106 644 1085.5 525 c 128,-1,35
 1065 406 1065 406 1020 296.5 c 128,-1,36
 975 187 975 187 905.5 91 c 128,-1,37
 836 -5 836 -5 742 -80.5 c 128,-1,38
 648 -156 648 -156 529.5 -206.5 c 128,-1,39
 411 -257 411 -257 268 -274 c 1,40,-1
 225 -16 l 1,41,42
 380 18 380 18 495.5 84.5 c 128,-1,43
 611 151 611 151 675 255 c 1,44,45
 604 223 604 223 518 223 c 0,46,47
 427 223 427 223 351.5 252 c 128,-1,48
 276 281 276 281 221.5 333.5 c 128,-1,49
 167 386 167 386 137 460.5 c 128,-1,50
 107 535 107 535 107 625 c 0,21,22
EndSplineSet
EndChar

StartChar: colon
Encoding: 58 58 29
Width: 804
Flags: W
HStem: 0 423<220 544> 737 422<306 629>
VStem: 161 383<0 383> 220 383<40 423> 247 382<737 1119> 306 383<776 1159>
DStem2: 161 0 544 0 0.12414 0.992265<47.5457 427.052 789.397 1168.04>
LayerCount: 2
Fore
SplineSet
247 737 m 1,0,-1
 306 1159 l 1,1,-1
 689 1159 l 1,2,-1
 629 737 l 1,3,-1
 247 737 l 1,0,-1
161 0 m 1,4,-1
 220 423 l 1,5,-1
 603 423 l 1,6,-1
 544 0 l 1,7,-1
 161 0 l 1,4,-1
EndSplineSet
EndChar

StartChar: semicolon
Encoding: 59 59 30
Width: 816
Flags: W
HStem: 737 422<320 643>
VStem: 261 382<737 1119> 320 383<776 1159>
DStem2: 159 -1 555 58 0.137475 0.990505<27.3272 426.104 797.531 1171.12>
LayerCount: 2
Fore
SplineSet
159 -1 m 1,0,-1
 218 421 l 1,1,-1
 606 421 l 1,2,-1
 555 58 l 2,3,4
 546 -10 546 -10 522.5 -65.5 c 128,-1,5
 499 -121 499 -121 468 -165 c 128,-1,6
 437 -209 437 -209 403 -241 c 128,-1,7
 369 -273 369 -273 338.5 -295 c 128,-1,8
 308 -317 308 -317 285 -329.5 c 128,-1,9
 262 -342 262 -342 254 -345 c 1,10,-1
 176 -224 l 1,11,12
 181 -223 181 -223 206 -200 c 128,-1,13
 231 -177 231 -177 260.5 -144 c 128,-1,14
 290 -111 290 -111 314.5 -72.5 c 128,-1,15
 339 -34 339 -34 344 -1 c 1,16,-1
 159 -1 l 1,0,-1
261 737 m 1,17,-1
 320 1159 l 1,18,-1
 703 1159 l 1,19,-1
 643 737 l 1,20,-1
 261 737 l 1,17,-1
EndSplineSet
EndChar

StartChar: less
Encoding: 60 60 31
Width: 1072
Flags: W
HStem: -37 21G<805.094 834.805>
DStem2: 434 590 158 464 0.802565 -0.596565<0 534.712>
LayerCount: 2
Fore
SplineSet
960 877 m 1,0,-1
 434 590 l 1,1,-1
 878 291 l 1,2,-1
 832 -37 l 1,3,-1
 158 464 l 1,4,-1
 192 706 l 1,5,-1
 1007 1206 l 1,6,-1
 960 877 l 1,0,-1
EndSplineSet
EndChar

StartChar: equal
Encoding: 61 61 32
Width: 1126
Flags: W
HStem: 271 254<201 960> 600 255<250 1009>
LayerCount: 2
Fore
SplineSet
960 271 m 1,0,-1
 165 271 l 1,1,-1
 201 525 l 1,2,-1
 996 525 l 1,3,-1
 960 271 l 1,0,-1
1009 600 m 1,4,-1
 214 600 l 1,5,-1
 250 855 l 1,6,-1
 1045 855 l 1,7,-1
 1009 600 l 1,4,-1
EndSplineSet
EndChar

StartChar: greater
Encoding: 62 62 33
Width: 1057
Flags: W
HStem: -17 21G<172.857 202.575>
DStem2: 217 312 170 -17 0.852196 0.523223<0 568.712> 335 1206 299 896 0.803135 -0.595797<155.784 650.441>
LayerCount: 2
Fore
SplineSet
299 896 m 1,0,-1
 335 1206 l 1,1,-1
 1009 706 l 1,2,-1
 986 484 l 1,3,-1
 170 -17 l 1,4,-1
 217 312 l 1,5,-1
 702 609 l 1,6,-1
 299 896 l 1,0,-1
EndSplineSet
EndChar

StartChar: question
Encoding: 63 63 34
Width: 1097
Flags: W
HStem: -1 422<210 549> 1304 21G<233.3 280> 1357 265<308.1 727.338>
VStem: 151 398<-1 397> 210 400<21 421> 759 310<1100.34 1321.77>
LayerCount: 2
Fore
SplineSet
759 1230 m 0,0,1
 759 1270 759 1270 742 1295 c 128,-1,2
 725 1320 725 1320 695 1334 c 128,-1,3
 665 1348 665 1348 624 1352.5 c 128,-1,4
 583 1357 583 1357 535 1357 c 0,5,6
 474 1357 474 1357 399 1343 c 128,-1,7
 324 1329 324 1329 236 1304 c 1,8,-1
 204 1541 l 1,9,10
 243 1559 243 1559 296.5 1574 c 128,-1,11
 350 1589 350 1589 408.5 1599.5 c 128,-1,12
 467 1610 467 1610 525 1616 c 128,-1,13
 583 1622 583 1622 631 1622 c 0,14,15
 849 1622 849 1622 959 1542 c 128,-1,16
 1069 1462 1069 1462 1069 1306 c 0,17,18
 1069 1199 1069 1199 1035 1109.5 c 128,-1,19
 1001 1020 1001 1020 937 947.5 c 128,-1,20
 873 875 873 875 782.5 818.5 c 128,-1,21
 692 762 692 762 580 720 c 1,22,-1
 552 521 l 1,23,-1
 238 521 l 1,24,-1
 275 835 l 1,25,26
 294 844 294 844 315 854 c 0,27,28
 333 862 333 862 356.5 873 c 128,-1,29
 380 884 380 884 406 895 c 0,30,31
 441 911 441 911 481 929.5 c 128,-1,32
 521 948 521 948 560 970.5 c 128,-1,33
 599 993 599 993 635 1020 c 128,-1,34
 671 1047 671 1047 698.5 1079 c 128,-1,35
 726 1111 726 1111 742.5 1148.5 c 128,-1,36
 759 1186 759 1186 759 1230 c 0,0,1
549 -1 m 1,37,-1
 151 -1 l 1,38,-1
 210 421 l 1,39,-1
 610 421 l 1,40,-1
 549 -1 l 1,37,-1
EndSplineSet
EndChar

StartChar: at
Encoding: 64 64 35
Width: 1887
Flags: W
HStem: -47 215<672.111 1143.73> 305 193<791.661 1013.46> 1038 175<931.958 1231.54> 1374 225<855.165 1320.71>
VStem: 177 248<400.402 885.469> 557 209<521.217 859.938> 1539 239<656.22 1167.75>
DStem2: 1175 819 1416 984 0.260192 0.965557<-227.26 208.203>
LayerCount: 2
Fore
SplineSet
968 1013 m 1,0,1
 909 986 909 986 870 942.5 c 128,-1,2
 831 899 831 899 808 856 c 1,3,4
 786 808 786 808 775 759 c 128,-1,5
 764 710 764 710 766 660 c 0,6,7
 767 611 767 611 776 579.5 c 128,-1,8
 785 548 785 548 800.5 530 c 128,-1,9
 816 512 816 512 837 505 c 128,-1,10
 858 498 858 498 884 498 c 0,11,12
 918 498 918 498 948 508 c 128,-1,13
 978 518 978 518 1002.5 534.5 c 128,-1,14
 1027 551 1027 551 1047 573 c 128,-1,15
 1067 595 1067 595 1082 618 c 0,16,17
 1093 636 1093 636 1105 655.5 c 128,-1,18
 1117 675 1117 675 1129 699 c 128,-1,19
 1141 723 1141 723 1152.5 752.5 c 128,-1,20
 1164 782 1164 782 1175 819 c 2,21,-1
 1233 1019 l 1,22,23
 1230 1020 1230 1020 1210 1023 c 128,-1,24
 1190 1026 1190 1026 1162.5 1029.5 c 128,-1,25
 1135 1033 1135 1033 1106 1035.5 c 128,-1,26
 1077 1038 1077 1038 1056 1038 c 0,27,28
 1014 1038 1014 1038 968 1013 c 1,0,1
1300 318 m 0,29,30
 1166 318 1166 318 1162 468 c 0,31,32
 1161 489 1161 489 1165 518.5 c 128,-1,33
 1169 548 1169 548 1176 583 c 1,34,35
 1144 509 1144 509 1113.5 456 c 128,-1,36
 1083 403 1083 403 1046 369.5 c 128,-1,37
 1009 336 1009 336 963 320.5 c 128,-1,38
 917 305 917 305 854 305 c 0,39,40
 789 305 789 305 735.5 324.5 c 128,-1,41
 682 344 682 344 643 383 c 128,-1,42
 604 422 604 422 582 479.5 c 128,-1,43
 560 537 560 537 557 613 c 0,44,45
 553 723 553 723 578 810 c 128,-1,46
 603 897 603 897 647 964.5 c 128,-1,47
 691 1032 691 1032 751 1081 c 128,-1,48
 811 1130 811 1130 877 1163 c 0,49,50
 974 1213 974 1213 1076 1213 c 0,51,52
 1138 1213 1138 1213 1198.5 1202 c 128,-1,53
 1259 1191 1259 1191 1307 1169 c 128,-1,54
 1355 1147 1355 1147 1385 1114.5 c 128,-1,55
 1415 1082 1415 1082 1417 1039 c 0,56,57
 1418 1026 1418 1026 1417.5 1010.5 c 128,-1,58
 1417 995 1417 995 1416 984 c 1,59,-1
 1288 509 l 1,60,61
 1363 524 1363 524 1414 563 c 128,-1,62
 1465 602 1465 602 1496 658 c 128,-1,63
 1527 714 1527 714 1539 784 c 128,-1,64
 1551 854 1551 854 1549 933 c 0,65,66
 1546 1045 1546 1045 1513 1128 c 128,-1,67
 1480 1211 1480 1211 1419.5 1266 c 128,-1,68
 1359 1321 1359 1321 1272.5 1347.5 c 128,-1,69
 1186 1374 1186 1374 1076 1374 c 0,70,71
 975 1374 975 1374 891 1344 c 128,-1,72
 807 1314 807 1314 739 1263.5 c 128,-1,73
 671 1213 671 1213 617.5 1147.5 c 128,-1,74
 564 1082 564 1082 525 1010 c 0,75,76
 418 815 418 815 425 597 c 0,77,78
 429 488 429 488 465.5 407.5 c 128,-1,79
 502 327 502 327 568 273.5 c 128,-1,80
 634 220 634 220 727.5 194 c 128,-1,81
 821 168 821 168 939 168 c 0,82,83
 982 168 982 168 1018 173 c 128,-1,84
 1054 178 1054 178 1084.5 186.5 c 128,-1,85
 1115 195 1115 195 1143 206.5 c 128,-1,86
 1171 218 1171 218 1200 232 c 1,87,88
 1206 186 1206 186 1216 135.5 c 128,-1,89
 1226 85 1226 85 1232 39 c 1,90,91
 1166 1 1166 1 1078.5 -23 c 128,-1,92
 991 -47 991 -47 882 -47 c 0,93,94
 726 -47 726 -47 598.5 -4 c 128,-1,95
 471 39 471 39 378.5 119 c 128,-1,96
 286 199 286 199 233.5 314 c 128,-1,97
 181 429 181 429 177 573 c 0,98,99
 174 688 174 688 199.5 810 c 128,-1,100
 225 932 225 932 277 1046 c 128,-1,101
 329 1160 329 1160 407.5 1259.5 c 128,-1,102
 486 1359 486 1359 590 1430 c 1,103,104
 712 1515 712 1515 843 1557 c 128,-1,105
 974 1599 974 1599 1120 1599 c 0,106,107
 1202 1599 1202 1599 1282.5 1582 c 128,-1,108
 1363 1565 1363 1565 1436.5 1530.5 c 128,-1,109
 1510 1496 1510 1496 1573 1443.5 c 128,-1,110
 1636 1391 1636 1391 1683 1320 c 128,-1,111
 1730 1249 1730 1249 1758 1158 c 128,-1,112
 1786 1067 1786 1067 1789 957 c 0,113,114
 1792 880 1792 880 1778 802.5 c 128,-1,115
 1764 725 1764 725 1735.5 654 c 128,-1,116
 1707 583 1707 583 1664 522 c 128,-1,117
 1621 461 1621 461 1565.5 415.5 c 128,-1,118
 1510 370 1510 370 1443.5 344 c 128,-1,119
 1377 318 1377 318 1300 318 c 0,29,30
EndSplineSet
EndChar

StartChar: A
Encoding: 65 65 36
Width: 1368
Flags: W
HStem: 0 21G<-15 324.917 998.028 1317> 397 157<552 911> 1586 20G<710.847 1038.51>
VStem: 1001 316<0 316>
DStem2: -15 0 316 0 0.416148 0.909297<137.745 572.394 739.706 1345.84> 1035 1606 859 909 0.172946 -0.984931<368.488 1014.7 1174.7 1575.92>
LayerCount: 2
Fore
SplineSet
825 1195 m 1,0,-1
 727 957 l 1,1,-1
 552 554 l 1,2,-1
 911 554 l 1,3,-1
 859 909 l 1,4,-1
 825 1195 l 1,0,-1
720 1606 m 1,5,-1
 1035 1606 l 1,6,-1
 1317 0 l 1,7,-1
 1001 0 l 1,8,-1
 942 397 l 1,9,-1
 493 397 l 1,10,-1
 316 0 l 1,11,-1
 -15 0 l 1,12,-1
 720 1606 l 1,5,-1
EndSplineSet
EndChar

StartChar: B
Encoding: 66 66 37
Width: 1372
Flags: W
HStem: 0 233<427 848.982> 731 224<531 913.895> 1373 233<591 954.125>
VStem: 997 317<365.635 666.167> 1029 294<1054.51 1304.77>
DStem2: 75 0 427 233 0.147196 0.989107<282.275 785.301 1011.72 1434>
LayerCount: 2
Fore
SplineSet
679 955 m 2,0,1
 779 955 779 955 846.5 974 c 128,-1,2
 914 993 914 993 954.5 1024.5 c 128,-1,3
 995 1056 995 1056 1012 1097.5 c 128,-1,4
 1029 1139 1029 1139 1029 1184 c 1,5,6
 1030 1221 1030 1221 1018 1255.5 c 128,-1,7
 1006 1290 1006 1290 972.5 1316 c 128,-1,8
 939 1342 939 1342 879.5 1357.5 c 128,-1,9
 820 1373 820 1373 726 1373 c 2,10,-1
 591 1373 l 1,11,-1
 531 955 l 1,12,-1
 679 955 l 2,0,1
587 233 m 2,13,14
 682 233 682 233 757.5 247.5 c 128,-1,15
 833 262 833 262 886 297.5 c 128,-1,16
 939 333 939 333 967.5 392 c 128,-1,17
 996 451 996 451 997 540 c 0,18,19
 997 592 997 592 980 628 c 128,-1,20
 963 664 963 664 925.5 687 c 128,-1,21
 888 710 888 710 827 720.5 c 128,-1,22
 766 731 766 731 678 731 c 2,23,-1
 498 731 l 1,24,-1
 427 233 l 1,25,-1
 587 233 l 2,13,14
1314 553 m 0,26,27
 1313 497 1313 497 1299.5 434.5 c 128,-1,28
 1286 372 1286 372 1252.5 310.5 c 128,-1,29
 1219 249 1219 249 1163 192.5 c 128,-1,30
 1107 136 1107 136 1020 93.5 c 128,-1,31
 933 51 933 51 812 25.5 c 128,-1,32
 691 0 691 0 529 0 c 2,33,-1
 75 0 l 1,34,-1
 314 1606 l 1,35,-1
 686 1606 l 2,36,37
 853 1606 853 1606 973.5 1582.5 c 128,-1,38
 1094 1559 1094 1559 1172 1512.5 c 128,-1,39
 1250 1466 1250 1466 1287 1396 c 128,-1,40
 1324 1326 1324 1326 1323 1233 c 0,41,42
 1322 1078 1322 1078 1240.5 989 c 128,-1,43
 1159 900 1159 900 994 870 c 1,44,45
 1063 855 1063 855 1122 827.5 c 128,-1,46
 1181 800 1181 800 1224 760 c 128,-1,47
 1267 720 1267 720 1291 668 c 128,-1,48
 1315 616 1315 616 1314 553 c 0,26,27
EndSplineSet
EndChar

StartChar: C
Encoding: 67 67 38
Width: 1244
Flags: W
HStem: -38 270<584.447 956.919> 1356 273<741.116 1132.22>
VStem: 144 319<365.101 958.199>
LayerCount: 2
Fore
SplineSet
144 565 m 0,0,1
 144 706 144 706 163 840 c 128,-1,2
 182 974 182 974 222.5 1092 c 128,-1,3
 263 1210 263 1210 326.5 1309 c 128,-1,4
 390 1408 390 1408 478.5 1479 c 128,-1,5
 567 1550 567 1550 682.5 1589.5 c 128,-1,6
 798 1629 798 1629 942 1629 c 0,7,8
 1029 1629 1029 1629 1097.5 1614 c 128,-1,9
 1166 1599 1166 1599 1216 1580.5 c 128,-1,10
 1266 1562 1266 1562 1297.5 1544.5 c 128,-1,11
 1329 1527 1329 1527 1341 1522 c 1,12,-1
 1235 1265 l 1,13,14
 1229 1266 1229 1266 1201.5 1280.5 c 128,-1,15
 1174 1295 1174 1295 1130.5 1312 c 128,-1,16
 1087 1329 1087 1329 1030 1342.5 c 128,-1,17
 973 1356 973 1356 908 1356 c 0,18,19
 804 1356 804 1356 722 1300 c 128,-1,20
 640 1244 640 1244 582 1143.5 c 128,-1,21
 524 1043 524 1043 493.5 903 c 128,-1,22
 463 763 463 763 463 595 c 0,23,24
 463 232 463 232 745 232 c 0,25,26
 802 232 802 232 856 245 c 128,-1,27
 910 258 910 258 955.5 276 c 128,-1,28
 1001 294 1001 294 1035 312.5 c 128,-1,29
 1069 331 1069 331 1086 341 c 1,30,-1
 1141 94 l 1,31,32
 1108 68 1108 68 1062 44 c 128,-1,33
 1016 20 1016 20 959 2 c 128,-1,34
 902 -16 902 -16 834.5 -27 c 128,-1,35
 767 -38 767 -38 692 -38 c 0,36,37
 570 -38 570 -38 469 -3.5 c 128,-1,38
 368 31 368 31 296 104 c 128,-1,39
 224 177 224 177 184 291.5 c 128,-1,40
 144 406 144 406 144 565 c 0,0,1
EndSplineSet
EndChar

StartChar: D
Encoding: 68 68 39
Width: 1441
Flags: W
HStem: 0 230<430 834.175> 1373 235<603 998.609>
VStem: 1105 320<639.807 1249.23>
DStem2: 77 0 430 230 0.144608 0.989489<278.629 1434.63>
LayerCount: 2
Fore
SplineSet
1105 1007 m 0,0,1
 1106 1187 1106 1187 1044 1280 c 128,-1,2
 982 1373 982 1373 852 1373 c 2,3,-1
 603 1373 l 1,4,-1
 430 230 l 1,5,-1
 662 230 l 2,6,7
 741 230 741 230 804.5 259 c 128,-1,8
 868 288 868 288 917 340 c 128,-1,9
 966 392 966 392 1001 464 c 128,-1,10
 1036 536 1036 536 1059 622 c 128,-1,11
 1082 708 1082 708 1093 806 c 128,-1,12
 1104 904 1104 904 1105 1007 c 0,0,1
1425 1024 m 0,13,14
 1423 793 1423 793 1372 604 c 128,-1,15
 1321 415 1321 415 1223 281 c 128,-1,16
 1125 147 1125 147 980 73.5 c 128,-1,17
 835 0 835 0 645 0 c 2,18,-1
 77 0 l 1,19,-1
 312 1608 l 1,20,-1
 876 1608 l 2,21,22
 1002 1608 1002 1608 1103.5 1574.5 c 128,-1,23
 1205 1541 1205 1541 1277 1470 c 128,-1,24
 1349 1399 1349 1399 1387.5 1288.5 c 128,-1,25
 1426 1178 1426 1178 1425 1024 c 0,13,14
EndSplineSet
EndChar

StartChar: E
Encoding: 69 69 40
Width: 1179
Flags: W
HStem: 0 229<417 1042> 729 226<524 1058> 1373 233<584 1216>
DStem2: 77 0 417 229 0.139954 0.990158<274.33 779.626 1008.16 1430.44>
LayerCount: 2
Fore
SplineSet
1042 0 m 1,0,-1
 77 0 l 1,1,-1
 304 1606 l 1,2,-1
 1251 1606 l 1,3,-1
 1216 1373 l 1,4,-1
 584 1373 l 1,5,-1
 524 955 l 1,6,-1
 1089 955 l 1,7,-1
 1058 729 l 1,8,-1
 490 729 l 1,9,-1
 417 229 l 1,10,-1
 1086 229 l 1,11,-1
 1042 0 l 1,0,-1
EndSplineSet
EndChar

StartChar: F
Encoding: 70 70 41
Width: 1145
Flags: W
HStem: 0 21G<75 392.049> 728 227<533 1119> 1343 263<587 1262>
VStem: 75 314<0 314>
DStem2: 75 0 389 0 0.145991 0.989286<45.841 782.246 1011.63 1403.36>
LayerCount: 2
Fore
SplineSet
500 728 m 1,0,-1
 389 0 l 1,1,-1
 75 0 l 1,2,-1
 312 1606 l 1,3,-1
 1299 1606 l 1,4,-1
 1262 1343 l 1,5,-1
 587 1343 l 1,6,-1
 533 955 l 1,7,-1
 1153 955 l 1,8,-1
 1119 728 l 1,9,-1
 500 728 l 1,0,-1
EndSplineSet
EndChar

StartChar: G
Encoding: 71 71 42
Width: 1450
Flags: W
HStem: -38 269<579.542 893.744> 0 21G<1073.21 1279.82> 650 229<835 1108> 1356 273<751.967 1198.51>
VStem: 144 318<357.402 944.281> 1075 202<0 101.624>
DStem2: 1061 338 1277 0 0.139686 0.990196<-36.3476 315.506> 1363 1525.5 1283.5 1277 0.904124 -0.42727<-231.547 76.1221>
LayerCount: 2
Fore
SplineSet
144 565 m 0,0,1
 144 821 144 821 206 1019 c 128,-1,2
 268 1217 268 1217 376 1352.5 c 128,-1,3
 484 1488 484 1488 630 1558.5 c 128,-1,4
 776 1629 776 1629 943 1629 c 1,5,6
 1036 1627 1036 1627 1115 1610.5 c 128,-1,7
 1194 1594 1194 1594 1256.5 1571.5 c 128,-1,8
 1319 1549 1319 1549 1363 1525.5 c 128,-1,9
 1407 1502 1407 1502 1429 1487 c 1,10,-1
 1322 1258 l 1,11,12
 1315 1261 1315 1261 1283.5 1277 c 128,-1,13
 1252 1293 1252 1293 1200 1310.5 c 128,-1,14
 1148 1328 1148 1328 1078 1342 c 128,-1,15
 1008 1356 1008 1356 924 1356 c 0,16,17
 816 1356 816 1356 730 1298 c 128,-1,18
 644 1240 644 1240 584.5 1137.5 c 128,-1,19
 525 1035 525 1035 493.5 894.5 c 128,-1,20
 462 754 462 754 462 589 c 0,21,22
 462 493 462 493 480 425 c 128,-1,23
 498 357 498 357 534 314 c 128,-1,24
 570 271 570 271 623 251 c 128,-1,25
 676 231 676 231 746 231 c 0,26,27
 786 231 786 231 834 243 c 128,-1,28
 882 255 882 255 927 271.5 c 128,-1,29
 972 288 972 288 1008.5 306.5 c 128,-1,30
 1045 325 1045 325 1061 338 c 1,31,32
 1064 362 1064 362 1068 385 c 128,-1,33
 1072 408 1072 408 1075 432 c 2,34,-1
 1108 650 l 1,35,-1
 804 650 l 1,36,-1
 835 879 l 1,37,-1
 1401 879 l 1,38,-1
 1277 0 l 1,39,-1
 1075 0 l 1,40,-1
 1062 145 l 1,41,42
 1039 110 1039 110 1002 77 c 128,-1,43
 965 44 965 44 917.5 18.5 c 128,-1,44
 870 -7 870 -7 814 -22.5 c 128,-1,45
 758 -38 758 -38 698 -38 c 0,46,47
 144 -38 144 -38 144 565 c 0,0,1
EndSplineSet
EndChar

StartChar: H
Encoding: 72 72 43
Width: 1482
Flags: W
HStem: 0 21G<74 392.956 970 1283.99> 724 227<531 1079> 1585 20G<311.009 629 1206.94 1521>
VStem: 74 316<0 316> 314 315<1290 1605> 970 311<0 311> 1210 311<1294 1605>
DStem2: 74 0 390 0 0.147888 0.989004<46.7328 778.596 1008.13 1622.84> 970 0 1281 0 0.147888 0.989004<45.9933 732.159 961.247 1622.84>
LayerCount: 2
Fore
SplineSet
970 0 m 1,0,-1
 1079 724 l 1,1,-1
 497 724 l 1,2,-1
 390 0 l 1,3,-1
 74 0 l 1,4,-1
 314 1605 l 1,5,-1
 629 1605 l 1,6,-1
 531 951 l 1,7,-1
 1110 951 l 1,8,-1
 1210 1605 l 1,9,-1
 1521 1605 l 1,10,-1
 1281 0 l 1,11,-1
 970 0 l 1,0,-1
EndSplineSet
EndChar

StartChar: I
Encoding: 73 73 44
Width: 894
Flags: W
HStem: 0 152<61 240 544 696> 1446 159<296 445 749 930>
DStem2: 240 152 544 152 0.156472 0.987682<47.5675 1310.14>
LayerCount: 2
Fore
SplineSet
61 152 m 1,0,-1
 240 152 l 1,1,-1
 445 1446 l 1,2,-1
 267 1446 l 1,3,-1
 296 1605 l 1,4,-1
 958 1605 l 1,5,-1
 930 1446 l 1,6,-1
 749 1446 l 1,7,-1
 544 152 l 1,8,-1
 725 152 l 1,9,-1
 696 0 l 1,10,-1
 36 0 l 1,11,-1
 61 152 l 1,0,-1
EndSplineSet
EndChar

StartChar: J
Encoding: 74 74 45
Width: 853
Flags: W
HStem: -88 233<117.739 236.135> 1585 20G<572.208 887>
VStem: 575 312<1293 1605>
DStem2: 422 509 715 401.5 0.141479 0.989941<-256.897 1106.62>
LayerCount: 2
Fore
SplineSet
68 145 m 1,0,1
 179 164 179 164 244.5 193 c 128,-1,2
 310 222 310 222 345.5 265.5 c 128,-1,3
 381 309 381 309 396 368.5 c 128,-1,4
 411 428 411 428 422 509 c 2,5,-1
 575 1605 l 1,6,-1
 887 1605 l 1,7,-1
 739 546 l 2,8,9
 729 474 729 474 715 401.5 c 128,-1,10
 701 329 701 329 675.5 261.5 c 128,-1,11
 650 194 650 194 608.5 134.5 c 128,-1,12
 567 75 567 75 502 28.5 c 128,-1,13
 437 -18 437 -18 343.5 -48.5 c 128,-1,14
 250 -79 250 -79 121 -88 c 1,15,-1
 68 145 l 1,0,1
EndSplineSet
EndChar

StartChar: K
Encoding: 75 75 46
Width: 1319
Flags: W
HStem: 0 21G<83 399.759 939.966 1313> 1585 20G<304.209 621 1116.55 1483>
VStem: 83 314<0 314> 307 314<1291 1605> 1132 351<1254 1605>
DStem2: 83 0 397 0 0.138224 0.990401<43.4024 745.991 972.402 1620.56> 864 802 567 696 0.483077 -0.875578<0 744.241> 603 920 864 802 0.610521 0.792<65.8899 865.486>
LayerCount: 2
Fore
SplineSet
1132 1605 m 1,0,-1
 1483 1605 l 1,1,-1
 864 802 l 1,2,-1
 918 696 l 1,3,-1
 1313 0 l 1,4,-1
 951 0 l 1,5,-1
 567 696 l 1,6,-1
 493 696 l 1,7,-1
 397 0 l 1,8,-1
 83 0 l 1,9,-1
 307 1605 l 1,10,-1
 621 1605 l 1,11,-1
 526 920 l 1,12,-1
 603 920 l 1,13,-1
 1132 1605 l 1,0,-1
EndSplineSet
EndChar

StartChar: L
Encoding: 76 76 47
Width: 1079
Flags: W
HStem: 0 229<428 1011> 1585 20G<306.184 622>
VStem: 309 313<1292 1605>
DStem2: 83 0 428 229 0.139434 0.990231<274.868 1620.83>
LayerCount: 2
Fore
SplineSet
1011 0 m 1,0,-1
 83 0 l 1,1,-1
 309 1605 l 1,2,-1
 622 1605 l 1,3,-1
 428 229 l 1,4,-1
 1043 229 l 1,5,-1
 1011 0 l 1,0,-1
EndSplineSet
EndChar

StartChar: M
Encoding: 77 77 48
Width: 1772
Flags: W
HStem: 0 21G<83 370.865 693.743 998.185 1307 1596.86> 1585 20G<314.783 708.102 1409.25 1806>
VStem: 83 285<0 285> 1307 287<0 287>
DStem2: 83 0 368 0 0.144873 0.98945<41.2887 1212.11> 772 1173 534 1159 0.139268 -0.990255<-19.2822 869.909> 882 310 1096 233 0.382866 0.923804<0 1013.51> 1307 0 1594 0 0.139633 0.990203<40.0747 1174.51>
LayerCount: 2
Fore
SplineSet
697 0 m 1,0,-1
 647 307 l 1,1,-1
 534 1159 l 1,2,-1
 368 0 l 1,3,-1
 83 0 l 1,4,5
 125 296 125 296 166 588 c 128,-1,6
 207 880 207 880 249 1176 c 1,7,-1
 318 1605 l 1,8,-1
 705 1605 l 1,9,-1
 772 1173 l 1,10,-1
 856 561 l 1,11,-1
 882 310 l 1,12,-1
 971 551 l 1,13,-1
 1247 1214 l 1,14,-1
 1418 1605 l 1,15,-1
 1806 1605 l 1,16,-1
 1746 1063 l 1,17,-1
 1594 0 l 1,18,-1
 1307 0 l 1,19,-1
 1471 1163 l 1,20,-1
 1096 233 l 1,21,-1
 989 0 l 1,22,-1
 697 0 l 1,0,-1
EndSplineSet
EndChar

StartChar: N
Encoding: 78 78 49
Width: 1537
Flags: W
HStem: 0 21G<83 377.781 999.376 1339.92> 1585 20G<313.097 661.387 1275.35 1571>
VStem: 83 292<0 292> 1278 293<1312 1605>
DStem2: 83 0 375 0 0.143665 0.989626<41.9503 1211.07> 809 1233 536 1158 0.377449 -0.92603<-33.5914 844.356> 1125 450 1337 0 0.144269 0.989538<0 1164.99>
LayerCount: 2
Fore
SplineSet
1337 0 m 1,0,-1
 1008 0 l 1,1,-1
 845 378 l 1,2,-1
 536 1158 l 1,3,-1
 375 0 l 1,4,-1
 83 0 l 1,5,-1
 316 1605 l 1,6,-1
 653 1605 l 1,7,-1
 809 1233 l 1,8,-1
 1125 450 l 1,9,-1
 1278 1605 l 1,10,-1
 1571 1605 l 1,11,-1
 1337 0 l 1,0,-1
EndSplineSet
EndChar

StartChar: O
Encoding: 79 79 50
Width: 1481
Flags: W
HStem: -38 270<581.385 884.276> 1358 269<733.214 1036.09>
VStem: 144 320<365.964 970.722> 1146 319<618.058 1230.25>
LayerCount: 2
Fore
SplineSet
1465 979 m 256,0,1
 1465 817 1465 817 1437 678.5 c 128,-1,2
 1409 540 1409 540 1357.5 427 c 128,-1,3
 1306 314 1306 314 1235 227.5 c 128,-1,4
 1164 141 1164 141 1077.5 82 c 128,-1,5
 991 23 991 23 892.5 -7.5 c 128,-1,6
 794 -38 794 -38 689 -38 c 0,7,8
 563 -38 563 -38 462.5 1 c 128,-1,9
 362 40 362 40 291 119 c 128,-1,10
 220 198 220 198 182 315.5 c 128,-1,11
 144 433 144 433 144 591 c 0,12,13
 144 834 144 834 205 1026 c 128,-1,14
 266 1218 266 1218 371.5 1351.5 c 128,-1,15
 477 1485 477 1485 619 1556 c 128,-1,16
 761 1627 761 1627 924 1627 c 0,17,18
 1045 1627 1045 1627 1144.5 1586.5 c 128,-1,19
 1244 1546 1244 1546 1315.5 1465 c 128,-1,20
 1387 1384 1387 1384 1426 1262.5 c 128,-1,21
 1465 1141 1465 1141 1465 979 c 256,0,1
1146 973 m 1,22,23
 1146 1165 1146 1165 1084.5 1261.5 c 128,-1,24
 1023 1358 1023 1358 886 1358 c 0,25,26
 805 1358 805 1358 728.5 1311.5 c 128,-1,27
 652 1265 652 1265 593.5 1172.5 c 128,-1,28
 535 1080 535 1080 499.5 940.5 c 128,-1,29
 464 801 464 801 464 615 c 0,30,31
 464 232 464 232 727 232 c 0,32,33
 825 232 825 232 902.5 288.5 c 128,-1,34
 980 345 980 345 1034 444 c 128,-1,35
 1088 543 1088 543 1116.5 678.5 c 128,-1,36
 1145 814 1145 814 1146 973 c 1,22,23
EndSplineSet
EndChar

StartChar: P
Encoding: 80 80 51
Width: 1266
Flags: W
HStem: 0 21G<75 391.933> 600 203<515 851.089> 1373 233<592 939.195>
VStem: 75 314<0 314> 1042 302<966.54 1285>
DStem2: 75 0 389 0 0.147196 0.989107<46.2195 652.637 859.019 1434.14>
LayerCount: 2
Fore
SplineSet
579 803 m 2,0,1
 813 803 813 803 927.5 888.5 c 128,-1,2
 1042 974 1042 974 1042 1151 c 0,3,4
 1042 1204 1042 1204 1024 1245.5 c 128,-1,5
 1006 1287 1006 1287 964 1315.5 c 128,-1,6
 922 1344 922 1344 853.5 1358.5 c 128,-1,7
 785 1373 785 1373 685 1373 c 2,8,-1
 592 1373 l 1,9,-1
 515 803 l 1,10,-1
 579 803 l 2,0,1
314 1606 m 1,11,-1
 721 1606 l 2,12,13
 887 1606 887 1606 1005.5 1580.5 c 128,-1,14
 1124 1555 1124 1555 1199.5 1502.5 c 128,-1,15
 1275 1450 1275 1450 1310 1371 c 128,-1,16
 1345 1292 1345 1292 1344 1185 c 0,17,18
 1342 1023 1342 1023 1294 911.5 c 128,-1,19
 1246 800 1246 800 1148 730.5 c 128,-1,20
 1050 661 1050 661 899.5 630.5 c 128,-1,21
 749 600 749 600 542 600 c 2,22,-1
 477 600 l 1,23,-1
 389 0 l 1,24,-1
 75 0 l 1,25,-1
 314 1606 l 1,11,-1
EndSplineSet
EndChar

StartChar: Q
Encoding: 81 81 52
Width: 1493
Flags: W
HStem: -428 21G<971.005 1011.71> 1356 273<731.14 1045.29>
VStem: 144 324<352.583 938.793> 1161 316<637.741 1225.21>
DStem2: 910 6 630 -29 0.668862 -0.743387<0 375.47> 1144 773 1439.5 665.5 0.141421 0.989949<-317.241 210.787>
LayerCount: 2
Fore
SplineSet
480 760 m 0,0,1
 465 650 465 650 468 568 c 1,2,3
 471 394 471 394 537.5 312.5 c 128,-1,4
 604 231 604 231 734 231 c 0,5,6
 904 231 904 231 1004.5 365.5 c 128,-1,7
 1105 500 1105 500 1144 773 c 0,8,9
 1152 832 1152 832 1156.5 884.5 c 128,-1,10
 1161 937 1161 937 1161 985 c 0,11,12
 1161 1356 1161 1356 894 1356 c 0,13,14
 806 1356 806 1356 737 1315.5 c 128,-1,15
 668 1275 668 1275 617 1198.5 c 128,-1,16
 566 1122 566 1122 532 1011 c 128,-1,17
 498 900 498 900 480 760 c 0,0,1
1477 1005 m 0,18,19
 1477 941 1477 941 1469 852.5 c 128,-1,20
 1461 764 1461 764 1439.5 665.5 c 128,-1,21
 1418 567 1418 567 1378.5 465.5 c 128,-1,22
 1339 364 1339 364 1276 274.5 c 128,-1,23
 1213 185 1213 185 1123 114 c 128,-1,24
 1033 43 1033 43 910 6 c 1,25,-1
 1165 -273 l 1,26,-1
 989 -428 l 1,27,-1
 630 -29 l 1,28,29
 522 -15 522 -15 432.5 26 c 128,-1,30
 343 67 343 67 279 140 c 128,-1,31
 215 213 215 213 179.5 321 c 128,-1,32
 144 429 144 429 144 578 c 0,33,34
 144 648 144 648 152 730 c 128,-1,35
 160 812 160 812 178.5 899 c 128,-1,36
 197 986 197 986 227 1073.5 c 128,-1,37
 257 1161 257 1161 301.5 1242.5 c 128,-1,38
 346 1324 346 1324 405.5 1394.5 c 128,-1,39
 465 1465 465 1465 542.5 1517 c 128,-1,40
 620 1569 620 1569 716.5 1599 c 128,-1,41
 813 1629 813 1629 931 1629 c 0,42,43
 1045 1629 1045 1629 1144 1595 c 128,-1,44
 1243 1561 1243 1561 1316.5 1486.5 c 128,-1,45
 1390 1412 1390 1412 1433 1293 c 128,-1,46
 1476 1174 1476 1174 1477 1005 c 0,18,19
EndSplineSet
EndChar

StartChar: R
Encoding: 82 82 53
Width: 1376
Flags: W
HStem: 0 21G<73 389.152 882 1199.5> 717 192<528 898.048> 1373 233<597 1019.15>
VStem: 73 313<0 313> 948 319<208.258 680.315> 1080 298<1055.42 1317.56>
DStem2: 73 0 386 0 0.149605 0.988746<46.8263 772.662 966.84 1435.94> 882 0 1191 0 0.15029 0.988642<46.4396 581.161>
LayerCount: 2
Fore
SplineSet
882 0 m 1,0,1
 901 139 901 139 917 254 c 128,-1,2
 933 369 933 369 948 478 c 1,3,4
 949 500 949 500 950.5 518 c 128,-1,5
 952 536 952 536 951 555 c 0,6,7
 950 605 950 605 937.5 635.5 c 128,-1,8
 925 666 925 666 899.5 683.5 c 128,-1,9
 874 701 874 701 836.5 707 c 128,-1,10
 799 713 799 713 749 714 c 1,11,12
 729 716 729 716 706.5 716.5 c 128,-1,13
 684 717 684 717 659 717 c 2,14,-1
 499 717 l 1,15,-1
 386 0 l 1,16,-1
 73 0 l 1,17,-1
 316 1606 l 1,18,-1
 691 1606 l 2,19,20
 960 1606 960 1606 1078 1581 c 0,21,22
 1232 1549 1232 1549 1306 1471 c 128,-1,23
 1380 1393 1380 1393 1378 1257 c 0,24,25
 1377 1172 1377 1172 1350.5 1096.5 c 128,-1,26
 1324 1021 1324 1021 1267 963 c 128,-1,27
 1210 905 1210 905 1119.5 867.5 c 128,-1,28
 1029 830 1029 830 901 822 c 1,29,30
 992 817 992 817 1060.5 800.5 c 128,-1,31
 1129 784 1129 784 1174.5 750 c 128,-1,32
 1220 716 1220 716 1243.5 662.5 c 128,-1,33
 1267 609 1267 609 1267 530 c 0,34,35
 1267 508 1267 508 1264.5 483.5 c 128,-1,36
 1262 459 1262 459 1257 427 c 0,37,38
 1240 324 1240 324 1224 218.5 c 128,-1,39
 1208 113 1208 113 1191 0 c 1,40,-1
 882 0 l 1,0,1
615 909 m 2,41,42
 841 909 841 909 959.5 976.5 c 128,-1,43
 1078 1044 1078 1044 1080 1196 c 0,44,45
 1081 1249 1081 1249 1064.5 1283 c 128,-1,46
 1048 1317 1048 1317 1007.5 1337 c 128,-1,47
 967 1357 967 1357 899.5 1365 c 128,-1,48
 832 1373 832 1373 730 1373 c 2,49,-1
 597 1373 l 1,50,-1
 528 909 l 1,51,-1
 615 909 l 2,41,42
EndSplineSet
EndChar

StartChar: S
Encoding: 83 83 54
Width: 1289
Flags: W
HStem: -38 270<304.172 792.715> 1356 273<583.042 1105.18>
VStem: 213 307<1099.49 1298.67> 899 310<324.482 580.523>
DStem2: 318 273 142 27.5 0.974924 -0.222537<-140.967 264.248> 403.5 253 381 -20.5 0.992054 -0.125815<-239.969 177.429> 659.5 1042.5 410 809 0.901561 -0.432652<-168.709 426.276> 972.5 1618.5 919 1350 0.983 -0.183604<-82.8488 302.755>
LayerCount: 2
Fore
SplineSet
1226 1272 m 1,0,1
 1224 1273 1224 1273 1205 1280 c 128,-1,2
 1186 1287 1186 1287 1155.5 1296.5 c 128,-1,3
 1125 1306 1125 1306 1086 1316.5 c 128,-1,4
 1047 1327 1047 1327 1004.5 1335.5 c 128,-1,5
 962 1344 962 1344 919 1350 c 128,-1,6
 876 1356 876 1356 838 1356 c 0,7,8
 781 1356 781 1356 724.5 1351.5 c 128,-1,9
 668 1347 668 1347 622.5 1331 c 128,-1,10
 577 1315 577 1315 548.5 1284 c 128,-1,11
 520 1253 520 1253 520 1201 c 0,12,13
 520 1159 520 1159 539 1130 c 128,-1,14
 558 1101 558 1101 589 1080 c 128,-1,15
 620 1059 620 1059 659.5 1042.5 c 128,-1,16
 699 1026 699 1026 740 1008 c 2,17,-1
 933 921 l 2,18,19
 1011 885 1011 885 1064 840.5 c 128,-1,20
 1117 796 1117 796 1149 743 c 128,-1,21
 1181 690 1181 690 1195 628.5 c 128,-1,22
 1209 567 1209 567 1209 498 c 0,23,24
 1209 388 1209 388 1168 290.5 c 128,-1,25
 1127 193 1127 193 1049.5 120 c 128,-1,26
 972 47 972 47 860.5 4.5 c 128,-1,27
 749 -38 749 -38 608 -38 c 0,28,29
 551 -38 551 -38 493 -33 c 128,-1,30
 435 -28 435 -28 381 -20.5 c 128,-1,31
 327 -13 327 -13 280 -4 c 128,-1,32
 233 5 233 5 198 13.5 c 128,-1,33
 163 22 163 22 142 27.5 c 128,-1,34
 121 33 121 33 119 35 c 1,35,-1
 170 320 l 1,36,37
 173 318 173 318 193 310.5 c 128,-1,38
 213 303 213 303 245 293.5 c 128,-1,39
 277 284 277 284 318 273 c 128,-1,40
 359 262 359 262 403.5 253 c 128,-1,41
 448 244 448 244 493.5 238 c 128,-1,42
 539 232 539 232 581 232 c 0,43,44
 899 232 899 232 899 469 c 0,45,46
 899 576 899 576 783 630 c 2,47,-1
 534 748 l 2,48,49
 503 763 503 763 472 778 c 128,-1,50
 441 793 441 793 410 809 c 0,51,52
 365 831 365 831 328.5 865 c 128,-1,53
 292 899 292 899 266.5 941 c 128,-1,54
 241 983 241 983 227 1032.5 c 128,-1,55
 213 1082 213 1082 213 1137 c 0,56,57
 213 1248 213 1248 256 1338.5 c 128,-1,58
 299 1429 299 1429 376.5 1493.5 c 128,-1,59
 454 1558 454 1558 562.5 1593.5 c 128,-1,60
 671 1629 671 1629 802 1629 c 0,61,62
 890 1629 890 1629 972.5 1618.5 c 128,-1,63
 1055 1608 1055 1608 1119.5 1595.5 c 128,-1,64
 1184 1583 1184 1583 1224 1571 c 128,-1,65
 1264 1559 1264 1559 1269 1556 c 1,66,-1
 1226 1272 l 1,0,1
EndSplineSet
EndChar

StartChar: T
Encoding: 84 84 55
Width: 1083
Flags: W
HStem: 0 21G<346 657.784> 1372 234<168 536 846 1243>
VStem: 346 309<0 309>
DStem2: 346 0 655 0 0.137883 0.990449<42.6059 1385.09>
LayerCount: 2
Fore
SplineSet
1243 1372 m 1,0,-1
 846 1372 l 1,1,-1
 655 0 l 1,2,-1
 346 0 l 1,3,-1
 536 1372 l 1,4,-1
 135 1372 l 1,5,-1
 168 1606 l 1,6,-1
 1277 1606 l 1,7,-1
 1243 1372 l 1,0,-1
EndSplineSet
EndChar

StartChar: U
Encoding: 85 85 56
Width: 1504
Flags: W
HStem: -38 259<573.069 914.623> 1586 20G<306 637 1223.17 1539>
VStem: 186 310<301.685 925.664> 322 315<1291 1606> 1226 313<1293 1606>
DStem2: 201 730 500 611.5 0.136469 0.990644<-165.515 884.317> 1102 731 1418 735 0.140312 0.990107<-332.34 883.743>
LayerCount: 2
Fore
SplineSet
736 221 m 0,0,1
 819 222 819 222 878.5 246.5 c 128,-1,2
 938 271 938 271 980 329 c 128,-1,3
 1022 387 1022 387 1050.5 484.5 c 128,-1,4
 1079 582 1079 582 1102 731 c 1,5,-1
 1226 1606 l 1,6,-1
 1539 1606 l 1,7,-1
 1418 735 l 2,8,9
 1396 581 1396 581 1358 464 c 128,-1,10
 1320 347 1320 347 1268.5 261 c 128,-1,11
 1217 175 1217 175 1154 117.5 c 128,-1,12
 1091 60 1091 60 1018.5 25.5 c 128,-1,13
 946 -9 946 -9 866 -23.5 c 128,-1,14
 786 -38 786 -38 701 -38 c 0,15,16
 585 -38 585 -38 490 -11 c 128,-1,17
 395 16 395 16 327.5 80 c 128,-1,18
 260 144 260 144 223 250.5 c 128,-1,19
 186 357 186 357 186 515 c 0,20,21
 186 565 186 565 189.5 617.5 c 128,-1,22
 193 670 193 670 201 730 c 0,23,24
 229 935 229 935 259.5 1151.5 c 128,-1,25
 290 1368 290 1368 322 1606 c 1,26,-1
 637 1606 l 1,27,28
 603 1367 603 1367 572 1149 c 128,-1,29
 541 931 541 931 512 725 c 0,30,31
 504 661 504 661 500 611.5 c 128,-1,32
 496 562 496 562 496 521 c 0,33,34
 496 438 496 438 508.5 381 c 128,-1,35
 521 324 521 324 549.5 288.5 c 128,-1,36
 578 253 578 253 624 237 c 128,-1,37
 670 221 670 221 736 221 c 0,0,1
EndSplineSet
EndChar

StartChar: V
Encoding: 86 86 57
Width: 1246
Flags: W
HStem: -1 21G<357.394 735.612> 1583 23G<151 446.512 1103.49 1419>
VStem: 151 293<1310 1603>
DStem2: 444 1603 151 1603 0.129207 -0.991618<0 1219.5> 596 393 727 -1 0.395505 0.918464<0 1318.18>
LayerCount: 2
Fore
SplineSet
444 1603 m 1,0,-1
 596 393 l 1,1,-1
 1112 1606 l 1,2,-1
 1419 1606 l 1,3,-1
 727 -1 l 1,4,-1
 360 -1 l 1,5,-1
 151 1603 l 1,6,-1
 444 1603 l 1,0,-1
EndSplineSet
EndChar

StartChar: W
Encoding: 87 87 58
Width: 1917
Flags: W
HStem: 0 21G<303.867 676.689 1117.1 1489.8> 1586 20G<214 512.922 1719.71 2029>
VStem: 214 298<1352.99 1606> 1726 303<1303 1606>
LayerCount: 2
Fore
SplineSet
929 1594 m 1,0,-1
 1288 1594 l 1,1,-1
 1351 413 l 1,2,-1
 1726 1606 l 1,3,-1
 2029 1606 l 1,4,-1
 1483 0 l 1,5,-1
 1118 0 l 1,6,-1
 1065 1181 l 1,7,-1
 670 0 l 1,8,-1
 305 0 l 1,9,-1
 214 1606 l 1,10,-1
 512 1606 l 1,11,-1
 567 413 l 1,12,-1
 929 1594 l 1,0,-1
EndSplineSet
EndChar

StartChar: X
Encoding: 88 88 59
Width: 1338
Flags: W
HStem: 0 21G<-4 361.992 911.822 1273> 1586 20G<221 583.992 1133.16 1502>
VStem: -4 352<0 352> 1147 355<1251 1606>
DStem2: -4 0 348 0 0.583532 0.81209<205.403 835.097 1339.9 1975.86> 576 1606 221 1606 0.39812 -0.917333<0 562.972 1052.84 1610.19>
LayerCount: 2
Fore
SplineSet
926 804 m 1,0,-1
 1273 0 l 1,1,-1
 920 0 l 1,2,-1
 709 516 l 1,3,-1
 348 0 l 1,4,-1
 -4 0 l 1,5,-1
 570 804 l 1,6,-1
 221 1606 l 1,7,-1
 576 1606 l 1,8,-1
 785 1083 l 1,9,-1
 1147 1606 l 1,10,-1
 1502 1606 l 1,11,-1
 926 804 l 1,0,-1
EndSplineSet
EndChar

StartChar: Y
Encoding: 89 89 60
Width: 1206
Flags: W
HStem: 0 21G<394 705.71> 1585 20G<146 481.554 1056.52 1412>
VStem: 146 330<1275 1605> 394 309<0 309>
DStem2: 476 1605 146 1605 0.283755 -0.958897<0 721.198> 394 0 703 0 0.133519 0.991046<41.2572 531.761> 669 910 774 524 0.508273 0.861196<0 801.332>
LayerCount: 2
Fore
SplineSet
669 910 m 1,0,-1
 1068 1605 l 1,1,-1
 1412 1605 l 1,2,-1
 774 524 l 1,3,-1
 703 0 l 1,4,-1
 394 0 l 1,5,-1
 465 527 l 1,6,-1
 146 1605 l 1,7,-1
 476 1605 l 1,8,-1
 669 910 l 1,0,-1
EndSplineSet
EndChar

StartChar: Z
Encoding: 90 90 61
Width: 1222
Flags: W
HStem: 0 232<443 1095> 1372 233<275 923>
DStem2: 85 246 443 232 0.591638 0.806204<200.52 1403.58>
LayerCount: 2
Fore
SplineSet
1317 1605 m 1,0,-1
 1284 1378 l 1,1,-1
 443 232 l 1,2,-1
 1121 232 l 1,3,-1
 1095 0 l 1,4,-1
 52 0 l 1,5,-1
 85 246 l 1,6,-1
 923 1372 l 1,7,-1
 248 1372 l 1,8,-1
 275 1605 l 1,9,-1
 1317 1605 l 1,0,-1
EndSplineSet
EndChar

StartChar: bracketleft
Encoding: 91 91 62
Width: 1098
Flags: W
HStem: 0 255<548 909> 1309 256<711 1111>
DStem2: 208 0 548 255 0.1522 0.98835<303.777 1370.31>
LayerCount: 2
Fore
SplineSet
449 1565 m 1,0,-1
 1149 1565 l 1,1,-1
 1111 1309 l 1,2,-1
 711 1309 l 1,3,-1
 548 255 l 1,4,-1
 948 255 l 1,5,-1
 909 0 l 1,6,-1
 208 0 l 1,7,-1
 449 1565 l 1,0,-1
EndSplineSet
EndChar

StartChar: backslash
Encoding: 92 92 63
Width: 1223
Flags: W
VStem: 383 634
DStem2: 652 1703 383 1654 0.198204 -0.980161<0 1836.23>
LayerCount: 2
Fore
SplineSet
652 1703 m 1,0,-1
 1017 -102 l 1,1,-1
 743 -152 l 1,2,-1
 383 1654 l 1,3,-1
 652 1703 l 1,0,-1
EndSplineSet
EndChar

StartChar: bracketright
Encoding: 93 93 64
Width: 1120
Flags: W
HStem: 0 255<166 566> 1309 256<351 714>
DStem2: 566 255 832 0 0.139206 0.990263<0 1064.34>
LayerCount: 2
Fore
SplineSet
351 1565 m 1,0,-1
 1052 1565 l 1,1,-1
 832 0 l 1,2,-1
 131 0 l 1,3,-1
 166 255 l 1,4,-1
 566 255 l 1,5,-1
 714 1309 l 1,6,-1
 315 1309 l 1,7,-1
 351 1565 l 1,0,-1
EndSplineSet
EndChar

StartChar: asciicircum
Encoding: 94 94 65
Width: 1859
Flags: W
HStem: 552 640<861 917>
VStem: 1080 243<552 795>
LayerCount: 2
Fore
SplineSet
917 1192 m 1,0,-1
 1136 1192 l 1,1,-1
 1323 552 l 1,2,-1
 1080 552 l 1,3,-1
 1003 873 l 1,4,-1
 864 552 l 1,5,-1
 607 552 l 1,6,-1
 917 1192 l 1,0,-1
EndSplineSet
EndChar

StartChar: underscore
Encoding: 95 95 66
Width: 1167
Flags: W
HStem: -101 254<98 1005>
LayerCount: 2
Fore
SplineSet
1005 -101 m 1,0,-1
 67 -101 l 1,1,-1
 98 153 l 1,2,-1
 1036 153 l 1,3,-1
 1005 -101 l 1,0,-1
EndSplineSet
EndChar

StartChar: grave
Encoding: 96 96 67
Width: 685
Flags: W
VStem: 92 416
LayerCount: 2
Fore
SplineSet
508 148 m 1,0,-1
 315 148 l 1,1,-1
 92 860 l 1,2,-1
 481 860 l 1,3,-1
 508 148 l 1,0,-1
EndSplineSet
EndChar

StartChar: a
Encoding: 97 97 68
Width: 1201
Flags: W
HStem: -17 228<444.892 619.199> 0 21G<779.556 1007.94> 921 224<595.168 833.279>
VStem: 95 306<267.733 657.535>
DStem2: 742 293 1005 0 0.145551 0.989351<-52.5861 621.58>
LayerCount: 2
Fore
SplineSet
1153 1006 m 1,0,-1
 1005 0 l 1,1,-1
 784 0 l 1,2,-1
 746 171 l 1,3,4
 729 132 729 132 701 97.5 c 128,-1,5
 673 63 673 63 635 37.5 c 128,-1,6
 597 12 597 12 549.5 -2.5 c 128,-1,7
 502 -17 502 -17 448 -17 c 0,8,9
 354 -17 354 -17 287 14 c 128,-1,10
 220 45 220 45 177 100.5 c 128,-1,11
 134 156 134 156 114 233 c 128,-1,12
 94 310 94 310 95 404 c 0,13,14
 96 492 96 492 117.5 581 c 128,-1,15
 139 670 139 670 178 752 c 128,-1,16
 217 834 217 834 271 906 c 128,-1,17
 325 978 325 978 390 1031 c 128,-1,18
 455 1084 455 1084 530 1114.5 c 128,-1,19
 605 1145 605 1145 685 1145 c 0,20,21
 764 1145 764 1145 834 1131.5 c 128,-1,22
 904 1118 904 1118 961.5 1098.5 c 128,-1,23
 1019 1079 1019 1079 1061 1058.5 c 128,-1,24
 1103 1038 1103 1038 1126 1023 c 2,25,-1
 1153 1006 l 1,0,-1
401 436 m 1,26,27
 401 321 401 321 436.5 266 c 128,-1,28
 472 211 472 211 545 211 c 0,29,30
 613 211 613 211 662.5 233 c 128,-1,31
 712 255 712 255 742 293 c 1,32,-1
 834 904 l 1,33,34
 811 911 811 911 779 916 c 128,-1,35
 747 921 747 921 712 921 c 0,36,37
 657 921 657 921 602 882 c 128,-1,38
 547 843 547 843 503 776 c 128,-1,39
 459 709 459 709 430.5 621 c 128,-1,40
 402 533 402 533 401 436 c 1,26,27
EndSplineSet
EndChar

StartChar: b
Encoding: 98 98 69
Width: 1173
Flags: W
HStem: -17 230<452.397 692.505> 0 21G<64 285.353> 916 229<632.081 854.5>
VStem: 835 299<429.251 865.458>
DStem2: 64 0 407 292 0.14381 0.989605<301.868 905.501 1052.9 1641.06>
LayerCount: 2
Fore
SplineSet
1124 577 m 1,0,1
 1107 458 1107 458 1069.5 350.5 c 128,-1,2
 1032 243 1032 243 970.5 161.5 c 128,-1,3
 909 80 909 80 821 31.5 c 128,-1,4
 733 -17 733 -17 614 -17 c 0,5,6
 560 -17 560 -17 516 -2.5 c 128,-1,7
 472 12 472 12 439.5 37 c 128,-1,8
 407 62 407 62 387.5 96.5 c 128,-1,9
 368 131 368 131 363 170 c 1,10,-1
 275 0 l 1,11,-1
 64 0 l 1,12,-1
 300 1624 l 1,13,-1
 609 1667 l 1,14,-1
 511 999 l 1,15,16
 565 1068 565 1068 642.5 1106 c 128,-1,17
 720 1144 720 1144 815 1145 c 1,18,19
 894 1144 894 1144 954.5 1113 c 128,-1,20
 1015 1082 1015 1082 1055.5 1026 c 128,-1,21
 1096 970 1096 970 1115.5 890.5 c 128,-1,22
 1135 811 1135 811 1134 714 c 1,23,24
 1135 682 1135 682 1131 648.5 c 128,-1,25
 1127 615 1127 615 1124 577 c 1,0,1
583 213 m 0,26,27
 631 213 631 213 669 239 c 128,-1,28
 707 265 707 265 735 307 c 128,-1,29
 763 349 763 349 782 403.5 c 128,-1,30
 801 458 801 458 813 514.5 c 128,-1,31
 825 571 825 571 830 626 c 128,-1,32
 835 681 835 681 835 725 c 0,33,34
 835 818 835 818 808 867 c 128,-1,35
 781 916 781 916 715 916 c 0,36,37
 651 916 651 916 592 885 c 128,-1,38
 533 854 533 854 484 805 c 1,39,40
 481 785 481 785 477.5 766 c 128,-1,41
 474 747 474 747 472 727 c 2,42,-1
 407 292 l 1,43,44
 423 260 423 260 467 236.5 c 128,-1,45
 511 213 511 213 583 213 c 0,26,27
EndSplineSet
EndChar

StartChar: c
Encoding: 99 99 70
Width: 939
Flags: W
HStem: -17 230<474.519 754.296> 916 229<556.734 886.783>
VStem: 96 307<283.839 703.422>
LayerCount: 2
Fore
SplineSet
96 444 m 0,0,1
 99 603 99 603 151 732 c 128,-1,2
 203 861 203 861 287 953 c 128,-1,3
 371 1045 371 1045 478.5 1095 c 128,-1,4
 586 1145 586 1145 701 1145 c 0,5,6
 759 1145 759 1145 805 1138.5 c 128,-1,7
 851 1132 851 1132 890.5 1119.5 c 128,-1,8
 930 1107 930 1107 965.5 1087.5 c 128,-1,9
 1001 1068 1001 1068 1039 1043 c 1,10,-1
 946 829 l 1,11,12
 936 842 936 842 912 857 c 128,-1,13
 888 872 888 872 856 885 c 128,-1,14
 824 898 824 898 787.5 907 c 128,-1,15
 751 916 751 916 717 916 c 0,16,17
 649 916 649 916 599 895.5 c 128,-1,18
 549 875 549 875 512.5 833 c 128,-1,19
 476 791 476 791 452 726.5 c 128,-1,20
 428 662 428 662 414 575 c 1,21,22
 408 547 408 547 405.5 519 c 128,-1,23
 403 491 403 491 403 464 c 0,24,25
 397 213 397 213 619 213 c 0,26,27
 642 213 642 213 668 218 c 128,-1,28
 694 223 694 223 717.5 230 c 128,-1,29
 741 237 741 237 760.5 245 c 128,-1,30
 780 253 780 253 790 259 c 0,31,32
 807 269 807 269 824 280 c 128,-1,33
 841 291 841 291 858 302 c 1,34,-1
 878 88 l 1,35,36
 832 62 832 62 790 43 c 128,-1,37
 748 24 748 24 704.5 11 c 128,-1,38
 661 -2 661 -2 612.5 -9 c 128,-1,39
 564 -16 564 -16 506 -17 c 1,40,41
 413 -16 413 -16 336.5 14.5 c 128,-1,42
 260 45 260 45 205.5 103.5 c 128,-1,43
 151 162 151 162 122 247.5 c 128,-1,44
 93 333 93 333 96 444 c 0,0,1
EndSplineSet
EndChar

StartChar: d
Encoding: 100 100 71
Width: 1190
Flags: W
HStem: -17 229<386.5 610.127> 2 21G<775.449 1000.91> 917 228<510.238 751.127>
VStem: 89 304<268.731 720.79>
DStem2: 737 294 998 2 0.143749 0.989614<-51.6756 564.342 708.238 1337.85>
LayerCount: 2
Fore
SplineSet
588 1145 m 1,0,1
 681 1144 681 1144 743.5 1105 c 128,-1,2
 806 1066 806 1066 838 995 c 1,3,-1
 929 1618 l 1,4,-1
 1240 1668 l 1,5,-1
 998 2 l 1,6,-1
 780 2 l 1,7,-1
 742 169 l 1,8,9
 723 129 723 129 693.5 95 c 128,-1,10
 664 61 664 61 624.5 36 c 128,-1,11
 585 11 585 11 536.5 -3 c 128,-1,12
 488 -17 488 -17 433 -17 c 0,13,14
 340 -17 340 -17 275 14 c 128,-1,15
 210 45 210 45 168.5 101.5 c 128,-1,16
 127 158 127 158 108 236 c 128,-1,17
 89 314 89 314 89 408 c 1,18,19
 88 497 88 497 102.5 586 c 128,-1,20
 117 675 117 675 145 757 c 128,-1,21
 173 839 173 839 215.5 909.5 c 128,-1,22
 258 980 258 980 314 1032 c 128,-1,23
 370 1084 370 1084 438.5 1114 c 128,-1,24
 507 1144 507 1144 588 1145 c 1,0,1
402 551 m 1,25,26
 391 483 391 483 393 428 c 0,27,28
 395 322 395 322 429 267 c 128,-1,29
 463 212 463 212 536 212 c 0,30,31
 605 212 605 212 655.5 234 c 128,-1,32
 706 256 706 256 737 294 c 1,33,34
 748 372 748 372 758.5 442 c 128,-1,35
 769 512 769 512 778 576.5 c 128,-1,36
 787 641 787 641 796 701 c 128,-1,37
 805 761 805 761 813 820 c 1,38,39
 780 861 780 861 730 889 c 128,-1,40
 680 917 680 917 614 917 c 0,41,42
 557 917 557 917 519.5 882 c 128,-1,43
 482 847 482 847 459 793.5 c 128,-1,44
 436 740 436 740 423 675.5 c 128,-1,45
 410 611 410 611 402 551 c 1,25,26
EndSplineSet
EndChar

StartChar: e
Encoding: 101 101 72
Width: 1091
Flags: W
HStem: -16 215<495.027 852.035> 493 160<441 794.202> 935 213<557.516 789.322>
VStem: 92 323<280.975 491.458> 830 257<693.578 893.75>
LayerCount: 2
Fore
SplineSet
441 653 m 1,0,1
 537 655 537 655 603.5 660.5 c 128,-1,2
 670 666 670 666 713.5 674 c 128,-1,3
 757 682 757 682 780.5 691.5 c 128,-1,4
 804 701 804 701 815 710.5 c 128,-1,5
 826 720 826 720 828 729 c 128,-1,6
 830 738 830 738 830 745 c 0,7,8
 830 936 830 936 677 935 c 0,9,10
 629 935 629 935 589.5 914 c 128,-1,11
 550 893 550 893 520 855.5 c 128,-1,12
 490 818 490 818 470 766 c 128,-1,13
 450 714 450 714 441 653 c 1,0,1
970 78 m 1,14,15
 782 -16 782 -16 588 -16 c 0,16,17
 474 -16 474 -16 382 13.5 c 128,-1,18
 290 43 290 43 225.5 99.5 c 128,-1,19
 161 156 161 156 126.5 238.5 c 128,-1,20
 92 321 92 321 92 428 c 0,21,22
 92 584 92 584 138 716 c 128,-1,23
 184 848 184 848 267.5 944 c 128,-1,24
 351 1040 351 1040 467 1094 c 128,-1,25
 583 1148 583 1148 724 1148 c 0,26,27
 820 1148 820 1148 889 1116.5 c 128,-1,28
 958 1085 958 1085 1002 1031 c 128,-1,29
 1046 977 1046 977 1066.5 904.5 c 128,-1,30
 1087 832 1087 832 1087 749 c 0,31,32
 1087 739 1087 739 1083.5 717 c 128,-1,33
 1080 695 1080 695 1061 667 c 128,-1,34
 1042 639 1042 639 1002 609 c 128,-1,35
 962 579 962 579 887.5 553.5 c 128,-1,36
 813 528 813 528 699 511 c 128,-1,37
 585 494 585 494 419 493 c 1,38,39
 417 478 417 478 416 464 c 128,-1,40
 415 450 415 450 415 436 c 0,41,42
 415 325 415 325 474.5 262 c 128,-1,43
 534 199 534 199 644 199 c 0,44,45
 727 199 727 199 799 223 c 128,-1,46
 871 247 871 247 937 292 c 1,47,-1
 970 78 l 1,14,15
EndSplineSet
EndChar

StartChar: f
Encoding: 102 102 73
Width: 792
Flags: W
HStem: 0 21G<133 439.795> 973 154<158 269 595 822> 1379 252<666.998 879.279>
VStem: 133 304<0 304> 291 304<1127 1291.86>
DStem2: 133 0 437 0 0.138428 0.990372<42.0822 982.459>
LayerCount: 2
Fore
SplineSet
753 1379 m 0,0,1
 693 1379 693 1379 652.5 1315.5 c 128,-1,2
 612 1252 612 1252 595 1127 c 1,3,-1
 845 1127 l 1,4,-1
 822 973 l 1,5,-1
 573 973 l 1,6,-1
 437 0 l 1,7,-1
 133 0 l 1,8,-1
 269 973 l 1,9,-1
 134 973 l 1,10,-1
 158 1127 l 1,11,-1
 291 1127 l 1,12,13
 307 1233 307 1233 342 1325 c 128,-1,14
 377 1417 377 1417 431 1485 c 128,-1,15
 485 1553 485 1553 558.5 1592 c 128,-1,16
 632 1631 632 1631 726 1631 c 0,17,18
 777 1631 777 1631 826 1619 c 128,-1,19
 875 1607 875 1607 920 1593 c 1,20,-1
 880 1354 l 1,21,22
 857 1363 857 1363 825.5 1371 c 128,-1,23
 794 1379 794 1379 753 1379 c 0,0,1
EndSplineSet
EndChar

StartChar: g
Encoding: 103 103 74
Width: 1130
Flags: W
HStem: -541 213<272.895 713.458> 930 215<476.363 739.735 1013.23 1235>
VStem: -21 257<-285.34 -104.578> 175 275<644.08 900.986> 764 293<-278.88 -68.9355> 767 271<658.021 902.514>
DStem2: 351 500 399 308 0.945622 0.325267<-118.474 0 195.055 426.462> 445.5 236 398 21 0.983589 -0.180422<-41.1556 345.112>
LayerCount: 2
Fore
SplineSet
450 764 m 0,0,1
 450 735 450 735 464.5 702 c 128,-1,2
 479 669 479 669 497 640.5 c 128,-1,3
 515 612 515 612 531.5 592 c 128,-1,4
 548 572 548 572 552 569 c 1,5,6
 622 587 622 587 664.5 612 c 128,-1,7
 707 637 707 637 729.5 666 c 128,-1,8
 752 695 752 695 759.5 728 c 128,-1,9
 767 761 767 761 767 796 c 0,10,11
 767 930 767 930 617 930 c 0,12,13
 561 930 561 930 528 919 c 128,-1,14
 495 908 495 908 477.5 886.5 c 128,-1,15
 460 865 460 865 455 834 c 128,-1,16
 450 803 450 803 450 764 c 0,0,1
236 -209 m 0,17,18
 236 -240 236 -240 252 -262.5 c 128,-1,19
 268 -285 268 -285 301 -299.5 c 128,-1,20
 334 -314 334 -314 386 -321 c 128,-1,21
 438 -328 438 -328 511 -328 c 0,22,23
 578 -328 578 -328 625.5 -319.5 c 128,-1,24
 673 -311 673 -311 704 -291 c 128,-1,25
 735 -271 735 -271 749.5 -238.5 c 128,-1,26
 764 -206 764 -206 764 -158 c 0,27,28
 764 -133 764 -133 754.5 -111 c 128,-1,29
 745 -89 745 -89 722 -70.5 c 128,-1,30
 699 -52 699 -52 661 -36.5 c 128,-1,31
 623 -21 623 -21 567 -10 c 2,32,-1
 398 21 l 1,33,34
 371 -2 371 -2 342 -31.5 c 128,-1,35
 313 -61 313 -61 289.5 -92.5 c 128,-1,36
 266 -124 266 -124 251 -154.5 c 128,-1,37
 236 -185 236 -185 236 -209 c 0,17,18
1038 796 m 0,38,39
 1037 707 1037 707 1011.5 642.5 c 128,-1,40
 986 578 986 578 932.5 528.5 c 128,-1,41
 879 479 879 479 796.5 440.5 c 128,-1,42
 714 402 714 402 598 367 c 2,43,-1
 399 308 l 2,44,45
 372 300 372 300 348.5 291.5 c 128,-1,46
 325 283 325 283 303 273 c 1,47,48
 368 251 368 251 445.5 236 c 128,-1,49
 523 221 523 221 598 206 c 0,50,51
 718 182 718 182 804 149.5 c 128,-1,52
 890 117 890 117 945.5 74.5 c 128,-1,53
 1001 32 1001 32 1028 -21 c 128,-1,54
 1055 -74 1055 -74 1057 -139 c 1,55,56
 1057 -209 1057 -209 1031 -280.5 c 128,-1,57
 1005 -352 1005 -352 940 -410 c 128,-1,58
 875 -468 875 -468 763.5 -504.5 c 128,-1,59
 652 -541 652 -541 481 -541 c 0,60,61
 350 -541 350 -541 255.5 -519.5 c 128,-1,62
 161 -498 161 -498 99.5 -462 c 128,-1,63
 38 -426 38 -426 8.5 -379.5 c 128,-1,64
 -21 -333 -21 -333 -21 -283 c 0,65,66
 -21 -239 -21 -239 -16 -203.5 c 128,-1,67
 -11 -168 -11 -168 0 -138.5 c 128,-1,68
 11 -109 11 -109 28 -83.5 c 128,-1,69
 45 -58 45 -58 71 -34 c 1,70,71
 103 -2 103 -2 137 30 c 128,-1,72
 171 62 171 62 200 91 c 1,73,74
 200 89 200 89 180.5 96.5 c 128,-1,75
 161 104 161 104 137 121 c 128,-1,76
 113 138 113 138 92.5 164 c 128,-1,77
 72 190 72 190 71 226 c 0,78,79
 70 250 70 250 71 272.5 c 128,-1,80
 72 295 72 295 76 315 c 0,81,82
 82 344 82 344 95.5 367 c 128,-1,83
 109 390 109 390 132.5 409 c 128,-1,84
 156 428 156 428 189.5 443.5 c 128,-1,85
 223 459 223 459 270 472 c 1,86,-1
 351 500 l 1,87,88
 349 501 349 501 335 510 c 128,-1,89
 321 519 321 519 301.5 534.5 c 128,-1,90
 282 550 282 550 260 572 c 128,-1,91
 238 594 238 594 219.5 623 c 128,-1,92
 201 652 201 652 188.5 688 c 128,-1,93
 176 724 176 724 175 766 c 0,94,95
 174 833 174 833 199 901 c 128,-1,96
 224 969 224 969 279 1023 c 128,-1,97
 334 1077 334 1077 419.5 1111 c 128,-1,98
 505 1145 505 1145 625 1145 c 0,99,100
 818 1145 818 1145 895 1084 c 1,101,102
 1019 1142 1019 1142 1152 1143 c 1,103,104
 1180 1146 1180 1146 1207 1148.5 c 128,-1,105
 1234 1151 1234 1151 1262 1153 c 1,106,-1
 1235 928 l 1,107,-1
 1011 928 l 1,108,109
 1015 917 1015 917 1020 900.5 c 128,-1,110
 1025 884 1025 884 1029 866 c 128,-1,111
 1033 848 1033 848 1035.5 829.5 c 128,-1,112
 1038 811 1038 811 1038 796 c 0,38,39
EndSplineSet
EndChar

StartChar: h
Encoding: 104 104 75
Width: 1181
Flags: W
HStem: 0 21G<64 368.929 718 1025.88> 916 229<636.665 896>
VStem: 64 302<0 302> 718 305<0 305> 819 303<397.172 875.771>
DStem2: 64 0 366 0 0.142082 0.989855<42.9086 931.779 1049.97 1639.78> 718 0 1023 0 0.142069 0.989857<43.331 867.336>
LayerCount: 2
Fore
SplineSet
607 1679 m 1,0,-1
 508 997 l 1,1,2
 514 1003 514 1003 536.5 1027 c 128,-1,3
 559 1051 559 1051 598 1077.5 c 128,-1,4
 637 1104 637 1104 692 1124.5 c 128,-1,5
 747 1145 747 1145 818 1145 c 0,6,7
 974 1145 974 1145 1054 1061.5 c 128,-1,8
 1134 978 1134 978 1133 806 c 0,9,10
 1133 778 1133 778 1130.5 749 c 128,-1,11
 1128 720 1128 720 1122 687 c 1,12,-1
 1023 0 l 1,13,-1
 718 0 l 1,14,-1
 819 698 l 2,15,16
 821 712 821 712 822.5 727 c 128,-1,17
 824 742 824 742 824 758 c 0,18,19
 825 838 825 838 788 877 c 128,-1,20
 751 916 751 916 687 916 c 0,21,22
 650 916 650 916 620.5 909 c 128,-1,23
 591 902 591 902 567 890.5 c 128,-1,24
 543 879 543 879 523.5 864 c 128,-1,25
 504 849 504 849 488 833 c 1,26,-1
 366 0 l 1,27,-1
 64 0 l 1,28,-1
 298 1623 l 1,29,-1
 607 1679 l 1,0,-1
EndSplineSet
EndChar

StartChar: i
Encoding: 105 105 76
Width: 625
Flags: W
HStem: 0 21G<115 422.91> 1107 20G<276.09 584> 1312 21G<453.5 485.5>
VStem: 115 305<0 305> 279 305<822 1127> 327 336<1390.32 1588.57>
DStem2: 115 0 420 0 0.158975 0.987283<48.4873 1138.74>
LayerCount: 2
Fore
SplineSet
661 1492 m 0,0,1
 656 1454 656 1454 638.5 1421.5 c 128,-1,2
 621 1389 621 1389 594.5 1364.5 c 128,-1,3
 568 1340 568 1340 535.5 1326 c 128,-1,4
 503 1312 503 1312 468 1312 c 0,5,6
 439 1312 439 1312 413 1323 c 128,-1,7
 387 1334 387 1334 367.5 1354 c 128,-1,8
 348 1374 348 1374 337 1401 c 128,-1,9
 326 1428 326 1428 327 1461 c 1,10,11
 327 1502 327 1502 343.5 1540 c 128,-1,12
 360 1578 360 1578 387 1607 c 128,-1,13
 414 1636 414 1636 449 1653 c 128,-1,14
 484 1670 484 1670 521 1670 c 0,15,16
 552 1670 552 1670 578 1658.5 c 128,-1,17
 604 1647 604 1647 623 1626.5 c 128,-1,18
 642 1606 642 1606 652.5 1578.5 c 128,-1,19
 663 1551 663 1551 663 1520 c 0,20,21
 663 1512 663 1512 662.5 1506 c 128,-1,22
 662 1500 662 1500 661 1492 c 0,0,1
420 0 m 1,23,-1
 115 0 l 1,24,-1
 279 1127 l 1,25,-1
 584 1127 l 1,26,-1
 420 0 l 1,23,-1
EndSplineSet
EndChar

StartChar: j
Encoding: 106 106 77
Width: 668
Flags: W
HStem: -357 21G<53.7368 101.5> 1107 20G<343.348 652> 1312 21G<499.5 531.5>
VStem: 346 306<821 1127> 370 335.5<1388.35 1589.98>
DStem2: 226 222 529 202 0.13413 0.990964<-223.459 912.918>
LayerCount: 2
Fore
SplineSet
704 1492 m 0,0,1
 699 1454 699 1454 682 1421.5 c 128,-1,2
 665 1389 665 1389 639.5 1364.5 c 128,-1,3
 614 1340 614 1340 581.5 1326 c 128,-1,4
 549 1312 549 1312 514 1312 c 0,5,6
 485 1312 485 1312 458.5 1323 c 128,-1,7
 432 1334 432 1334 412.5 1354 c 128,-1,8
 393 1374 393 1374 381.5 1401 c 128,-1,9
 370 1428 370 1428 370 1461 c 0,10,11
 370 1502 370 1502 386 1540 c 128,-1,12
 402 1578 402 1578 428.5 1607 c 128,-1,13
 455 1636 455 1636 489.5 1653 c 128,-1,14
 524 1670 524 1670 562 1670 c 0,15,16
 592 1670 592 1670 618 1658.5 c 128,-1,17
 644 1647 644 1647 663.5 1626.5 c 128,-1,18
 683 1606 683 1606 694 1578.5 c 128,-1,19
 705 1551 705 1551 705 1520 c 1,20,21
 706 1512 706 1512 705.5 1506 c 128,-1,22
 705 1500 705 1500 704 1492 c 0,0,1
-1 -129 m 1,23,24
 51 -96 51 -96 89.5 -63.5 c 128,-1,25
 128 -31 128 -31 155.5 9 c 128,-1,26
 183 49 183 49 200 100.5 c 128,-1,27
 217 152 217 152 226 222 c 2,28,-1
 346 1127 l 1,29,-1
 652 1127 l 1,30,-1
 529 202 l 1,31,32
 513 93 513 93 469.5 0 c 128,-1,33
 426 -93 426 -93 363 -165.5 c 128,-1,34
 300 -238 300 -238 222 -287 c 128,-1,35
 144 -336 144 -336 59 -357 c 1,36,-1
 -1 -129 l 1,23,24
EndSplineSet
EndChar

StartChar: k
Encoding: 107 107 78
Width: 1093
Flags: W
HStem: 0 21G<64 369.843 750.776 1084> 1107 20G<841.381 1197>
VStem: 64 303<0 303> 860 337<790 1127>
DStem2: 64 0 367 0 0.145409 0.989372<44.0588 456.156 758.376 1640.07> 469 707 725 632 0.690093 0.723721<122.385 573.789> 725 632 496 474 0.493915 -0.86951<24.2761 567.805>
LayerCount: 2
Fore
SplineSet
425 408 m 1,0,-1
 367 0 l 1,1,-1
 64 0 l 1,2,-1
 300 1623 l 1,3,-1
 612 1667 l 1,4,-1
 469 707 l 1,5,-1
 860 1127 l 1,6,-1
 1197 1127 l 1,7,-1
 725 632 l 1,8,-1
 1084 0 l 1,9,-1
 762 0 l 1,10,-1
 496 474 l 1,11,-1
 425 408 l 1,0,-1
EndSplineSet
EndChar

StartChar: l
Encoding: 108 108 79
Width: 575
Flags: W
HStem: 0 21G<67 372.914>
VStem: 67 303<0 303>
DStem2: 67 0 370 0 0.144162 0.989554<43.681 1639.08>
LayerCount: 2
Fore
SplineSet
613 1668 m 1,0,-1
 370 0 l 1,1,-1
 67 0 l 1,2,-1
 303 1622 l 1,3,-1
 613 1668 l 1,0,-1
EndSplineSet
EndChar

StartChar: m
Encoding: 109 109 80
Width: 1708
Flags: W
HStem: 0 21G<64 369.886 662 967.896 1252 1569.5> 916 229<628.679 814.5 1193.42 1464> 1107 20G<223.125 460.645>
VStem: 64 303<0 303> 662 303<0 303> 1252 304<0 304> 1363 301.5<465 902.813>
DStem2: 64 0 367 0 0.142282 0.989826<43.1115 925.166> 662 0 965 0 0.143379 0.989668<43.444 817.225> 1252 0 1556 0 0.134428 0.990923<40.866 896.141>
LayerCount: 2
Fore
SplineSet
1393 1145 m 0,0,1
 1535 1145 1535 1145 1600.5 1067.5 c 128,-1,2
 1666 990 1666 990 1664 834 c 1,3,4
 1665 826 1665 826 1664.5 814.5 c 128,-1,5
 1664 803 1664 803 1661 774 c 128,-1,6
 1658 745 1658 745 1651 692 c 128,-1,7
 1644 639 1644 639 1632 549 c 128,-1,8
 1620 459 1620 459 1601.5 325 c 128,-1,9
 1583 191 1583 191 1556 0 c 1,10,-1
 1252 0 l 1,11,12
 1279 191 1279 191 1298 323.5 c 128,-1,13
 1317 456 1317 456 1329.5 543.5 c 128,-1,14
 1342 631 1342 631 1349 680.5 c 128,-1,15
 1356 730 1356 730 1359.5 754.5 c 128,-1,16
 1363 779 1363 779 1363 785.5 c 128,-1,17
 1363 792 1363 792 1363 795 c 0,18,19
 1363 916 1363 916 1272 916 c 0,20,21
 1225 916 1225 916 1180.5 903.5 c 128,-1,22
 1136 891 1136 891 1088 849 c 1,23,24
 1084 822 1084 822 1080.5 794.5 c 128,-1,25
 1077 767 1077 767 1072 739 c 2,26,-1
 965 0 l 1,27,-1
 662 0 l 1,28,29
 690 207 690 207 717.5 391 c 128,-1,30
 745 575 745 575 769 748 c 0,31,32
 771 765 771 765 772.5 780 c 128,-1,33
 774 795 774 795 774 810 c 0,34,35
 774 868 774 868 752 892 c 128,-1,36
 730 916 730 916 688 916 c 0,37,38
 665 916 665 916 639 911.5 c 128,-1,39
 613 907 613 907 586.5 895.5 c 128,-1,40
 560 884 560 884 534 865 c 128,-1,41
 508 846 508 846 485 817 c 1,42,43
 480 786 480 786 475.5 755 c 128,-1,44
 471 724 471 724 467 693 c 2,45,-1
 367 0 l 1,46,-1
 64 0 l 1,47,-1
 226 1127 l 1,48,-1
 456 1127 l 1,49,-1
 492 972 l 1,50,51
 513 1006 513 1006 545 1037.5 c 128,-1,52
 577 1069 577 1069 616.5 1093 c 128,-1,53
 656 1117 656 1117 699.5 1131 c 128,-1,54
 743 1145 743 1145 787 1145 c 0,55,56
 842 1145 842 1145 885.5 1136 c 128,-1,57
 929 1127 929 1127 961.5 1106 c 128,-1,58
 994 1085 994 1085 1016.5 1050 c 128,-1,59
 1039 1015 1039 1015 1053 963 c 1,60,61
 1115 1061 1115 1061 1199 1103 c 128,-1,62
 1283 1145 1283 1145 1393 1145 c 0,0,1
EndSplineSet
EndChar

StartChar: n
Encoding: 110 110 81
Width: 1154
Flags: W
HStem: 0 21G<64 370.912 695 1013.5> 916 228<636.276 882.5> 1107 20G<225.09 463.762>
VStem: 64 304<0 304> 695 305<0 305> 804 307<454.617 889.151>
DStem2: 64 0 368 0 0.144002 0.989577<43.7767 932.235> 695 0 1000 0 0.140688 0.990054<42.91 784.634>
LayerCount: 2
Fore
SplineSet
695 0 m 1,0,1
 723 193 723 193 749 366.5 c 128,-1,2
 775 540 775 540 798 702 c 0,3,4
 804 747 804 747 804 778 c 0,5,6
 804 850 804 850 776.5 883 c 128,-1,7
 749 916 749 916 680 916 c 0,8,9
 626 916 626 916 575.5 892.5 c 128,-1,10
 525 869 525 869 489 831 c 1,11,-1
 368 0 l 1,12,-1
 64 0 l 1,13,-1
 228 1127 l 1,14,-1
 459 1127 l 1,15,-1
 494 980 l 1,16,17
 519 1013 519 1013 554 1043 c 128,-1,18
 589 1073 589 1073 629.5 1095.5 c 128,-1,19
 670 1118 670 1118 714 1131 c 128,-1,20
 758 1144 758 1144 802 1144 c 0,21,22
 963 1144 963 1144 1037 1063.5 c 128,-1,23
 1111 983 1111 983 1111 820 c 0,24,25
 1111 789 1111 789 1107.5 756.5 c 128,-1,26
 1104 724 1104 724 1100 686 c 1,27,28
 1077 524 1077 524 1052 355.5 c 128,-1,29
 1027 187 1027 187 1000 0 c 1,30,-1
 695 0 l 1,0,1
EndSplineSet
EndChar

StartChar: o
Encoding: 111 111 82
Width: 1164
Flags: W
HStem: -17 228<452.161 685.13> 916 229<538.961 778.297>
VStem: 97 302<265.818 725.081> 828 301<407.555 860.298>
LayerCount: 2
Fore
SplineSet
97 432 m 0,0,1
 96 500 96 500 107 579 c 128,-1,2
 118 658 118 658 145 737.5 c 128,-1,3
 172 817 172 817 216.5 890.5 c 128,-1,4
 261 964 261 964 327.5 1020.5 c 128,-1,5
 394 1077 394 1077 484 1111 c 128,-1,6
 574 1145 574 1145 692 1145 c 0,7,8
 803 1145 803 1145 884.5 1113.5 c 128,-1,9
 966 1082 966 1082 1020 1023 c 128,-1,10
 1074 964 1074 964 1101 879 c 128,-1,11
 1128 794 1128 794 1129 686 c 0,12,13
 1129 617 1129 617 1116.5 537.5 c 128,-1,14
 1104 458 1104 458 1076.5 380 c 128,-1,15
 1049 302 1049 302 1003.5 230 c 128,-1,16
 958 158 958 158 892 103.5 c 128,-1,17
 826 49 826 49 737.5 16 c 128,-1,18
 649 -17 649 -17 535 -17 c 0,19,20
 429 -17 429 -17 348 13 c 128,-1,21
 267 43 267 43 211.5 101 c 128,-1,22
 156 159 156 159 127 242 c 128,-1,23
 98 325 98 325 97 432 c 0,0,1
566 211 m 0,24,25
 633 211 633 211 683 253.5 c 128,-1,26
 733 296 733 296 765.5 365 c 128,-1,27
 798 434 798 434 813.5 521 c 128,-1,28
 829 608 829 608 828 696 c 0,29,30
 826 808 826 808 787 862 c 128,-1,31
 748 916 748 916 662 916 c 0,32,33
 607 916 607 916 566 891.5 c 128,-1,34
 525 867 525 867 495.5 826.5 c 128,-1,35
 466 786 466 786 447 735 c 128,-1,36
 428 684 428 684 417 630.5 c 128,-1,37
 406 577 406 577 402 526.5 c 128,-1,38
 398 476 398 476 399 437 c 0,39,40
 400 326 400 326 440.5 268.5 c 128,-1,41
 481 211 481 211 566 211 c 0,24,25
EndSplineSet
EndChar

StartChar: p
Encoding: 112 112 83
Width: 1193
Flags: W
HStem: -410 21G<6.95381 309> -17 228<469.201 721.463> 915 229<634.039 803.997> 1107 20G<228.046 466.73>
VStem: 4 305<-410 -105> 849 305<411.148 871.406>
DStem2: 4 -410 309 -407 0.146105 0.989269<47.53 580.417 736.315 1345.69>
LayerCount: 2
Fore
SplineSet
1154 708 m 0,0,1
 1153 563 1153 563 1115.5 431.5 c 128,-1,2
 1078 300 1078 300 1008.5 200.5 c 128,-1,3
 939 101 939 101 839 42 c 128,-1,4
 739 -17 739 -17 612 -17 c 0,5,6
 531 -17 531 -17 474.5 18 c 128,-1,7
 418 53 418 53 388 120 c 1,8,-1
 309 -407 l 1,9,-1
 4 -410 l 1,10,-1
 231 1127 l 1,11,-1
 462 1127 l 1,12,-1
 497 979 l 1,13,14
 525 1018 525 1018 560.5 1048.5 c 128,-1,15
 596 1079 596 1079 635.5 1100.5 c 128,-1,16
 675 1122 675 1122 717 1133 c 128,-1,17
 759 1144 759 1144 801 1144 c 0,18,19
 889 1144 889 1144 955.5 1114.5 c 128,-1,20
 1022 1085 1022 1085 1066.5 1029 c 128,-1,21
 1111 973 1111 973 1133 892 c 128,-1,22
 1155 811 1155 811 1154 708 c 0,0,1
840 584 m 0,23,24
 849 656 849 656 849 708 c 1,25,26
 845 915 845 915 706 915 c 0,27,28
 581 915 581 915 493 833 c 1,29,-1
 415 309 l 1,30,31
 451 261 451 261 503 236 c 128,-1,32
 555 211 555 211 617 211 c 0,33,34
 674 211 674 211 713 247 c 128,-1,35
 752 283 752 283 778 338.5 c 128,-1,36
 804 394 804 394 818.5 459.5 c 128,-1,37
 833 525 833 525 840 584 c 0,23,24
EndSplineSet
EndChar

StartChar: q
Encoding: 113 113 84
Width: 1137
Flags: W
HStem: -411 21G<642.917 944> -17 228<426.824 619.785> 916 229<528.051 768.294> 1107 20G<896.688 1164>
VStem: 97 296<242.477 712.782> 640 304<-411 -107>
DStem2: 640 -411 944 -409 0.141782 0.989898<45.0816 533.583 678.169 1281.37>
LayerCount: 2
Fore
SplineSet
621 1145 m 1,0,1
 718 1144 718 1144 769.5 1101 c 128,-1,2
 821 1058 821 1058 841 973 c 1,3,-1
 905 1127 l 1,4,-1
 1164 1127 l 1,5,-1
 944 -409 l 1,6,-1
 640 -411 l 1,7,-1
 717 117 l 1,8,9
 667 51 667 51 601 17 c 128,-1,10
 535 -17 535 -17 455 -17 c 0,11,12
 352 -17 352 -17 283.5 21.5 c 128,-1,13
 215 60 215 60 173.5 122.5 c 128,-1,14
 132 185 132 185 114.5 264.5 c 128,-1,15
 97 344 97 344 97 425 c 256,16,17
 97 506 97 506 109.5 584 c 128,-1,18
 122 662 122 662 144.5 733 c 128,-1,19
 167 804 167 804 197.5 865.5 c 128,-1,20
 228 927 228 927 265 975 c 0,21,22
 329 1058 329 1058 415 1101 c 128,-1,23
 501 1144 501 1144 621 1145 c 1,0,1
406 554 m 1,24,25
 398 507 398 507 395.5 467.5 c 128,-1,26
 393 428 393 428 393 393 c 0,27,28
 396 211 396 211 515 211 c 0,29,30
 581 211 581 211 638.5 237 c 128,-1,31
 696 263 696 263 744 308 c 1,32,-1
 816 812 l 1,33,34
 806 832 806 832 790 850.5 c 128,-1,35
 774 869 774 869 751.5 883.5 c 128,-1,36
 729 898 729 898 700.5 907 c 128,-1,37
 672 916 672 916 639 916 c 0,38,39
 592 916 592 916 553.5 891.5 c 128,-1,40
 515 867 515 867 485.5 820.5 c 128,-1,41
 456 774 456 774 436 706.5 c 128,-1,42
 416 639 416 639 406 554 c 1,24,25
EndSplineSet
EndChar

StartChar: r
Encoding: 114 114 85
Width: 752
Flags: W
HStem: 0 21G<64 369.886> 893 250<619.122 799.374> 1107 20G<223.125 460.645>
VStem: 64 303<0 303>
DStem2: 64 0 367 0 0.142282 0.989826<43.1115 894.41>
LayerCount: 2
Fore
SplineSet
492 972 m 1,0,1
 523 1016 523 1016 554 1046.5 c 128,-1,2
 585 1077 585 1077 615.5 1096.5 c 128,-1,3
 646 1116 646 1116 676 1126 c 128,-1,4
 706 1136 706 1136 735 1140 c 0,5,6
 763 1143 763 1143 789.5 1143 c 128,-1,7
 816 1143 816 1143 841 1144 c 1,8,-1
 800 877 l 1,9,10
 780 884 780 884 756 888.5 c 128,-1,11
 732 893 732 893 708 893 c 0,12,13
 649 892 649 892 592.5 867.5 c 128,-1,14
 536 843 536 843 483 804 c 1,15,-1
 367 0 l 1,16,-1
 64 0 l 1,17,-1
 226 1127 l 1,18,-1
 456 1127 l 1,19,-1
 492 972 l 1,0,1
EndSplineSet
EndChar

StartChar: s
Encoding: 115 115 86
Width: 947
Flags: W
HStem: -17 232<219.836 565.798> 912 233<423.631 805.568>
VStem: 133 274<752.604 890.226> 603 283<246.46 412.363>
DStem2: 446.5 755 380 495 0.914095 -0.405501<-62.1397 307.466>
LayerCount: 2
Fore
SplineSet
133 778 m 0,0,1
 132 862 132 862 164 929.5 c 128,-1,2
 196 997 196 997 255.5 1045 c 128,-1,3
 315 1093 315 1093 399.5 1119 c 128,-1,4
 484 1145 484 1145 587 1145 c 0,5,6
 631 1145 631 1145 679 1138.5 c 128,-1,7
 727 1132 727 1132 775.5 1119.5 c 128,-1,8
 824 1107 824 1107 870 1089 c 128,-1,9
 916 1071 916 1071 955 1048 c 1,10,-1
 869 840 l 1,11,12
 864 843 864 843 837.5 854.5 c 128,-1,13
 811 866 811 866 771.5 878.5 c 128,-1,14
 732 891 732 891 683 901.5 c 128,-1,15
 634 912 634 912 585 912 c 0,16,17
 534 912 534 912 500 906 c 128,-1,18
 466 900 466 900 445.5 888 c 128,-1,19
 425 876 425 876 416 859 c 128,-1,20
 407 842 407 842 407 820 c 0,21,22
 407 804 407 804 410.5 792.5 c 128,-1,23
 414 781 414 781 423 772 c 128,-1,24
 432 763 432 763 446.5 755 c 128,-1,25
 461 747 461 747 482 739 c 2,26,-1
 608 689 l 2,27,28
 665 666 665 666 715.5 641 c 128,-1,29
 766 616 766 616 804 582 c 128,-1,30
 842 548 842 548 864 503 c 128,-1,31
 886 458 886 458 886 395 c 0,32,33
 887 302 887 302 853.5 226.5 c 128,-1,34
 820 151 820 151 759 97.5 c 128,-1,35
 698 44 698 44 612 14 c 128,-1,36
 526 -16 526 -16 421 -17 c 1,37,38
 297 -16 297 -16 202.5 12 c 128,-1,39
 108 40 108 40 41 91 c 1,40,-1
 127 302 l 1,41,42
 131 299 131 299 159.5 285 c 128,-1,43
 188 271 188 271 231 255.5 c 128,-1,44
 274 240 274 240 326 227.5 c 128,-1,45
 378 215 378 215 431 215 c 0,46,47
 516 215 516 215 559.5 245.5 c 128,-1,48
 603 276 603 276 603 336 c 0,49,50
 603 369 603 369 583.5 391.5 c 128,-1,51
 564 414 564 414 513 436 c 2,52,-1
 380 495 l 2,53,54
 316 523 316 523 269.5 552 c 128,-1,55
 223 581 223 581 192.5 615 c 128,-1,56
 162 649 162 649 147.5 689 c 128,-1,57
 133 729 133 729 133 778 c 0,0,1
EndSplineSet
EndChar

StartChar: t
Encoding: 116 116 87
Width: 782
Flags: W
HStem: -16 203<459 693.806> 975 152<160 263 587 824> 1588 20G<583.634 656.006>
VStem: 174 299.5<200.484 457.85>
DStem2: 177.5 384 477 363 0.144647 0.989483<-62.874 597.152 794.419 1154.94>
LayerCount: 2
Fore
SplineSet
565 187 m 0,0,1
 595 187 595 187 624.5 194.5 c 128,-1,2
 654 202 654 202 677.5 211.5 c 128,-1,3
 701 221 701 221 715.5 228.5 c 0,4,-1
 730 236 l 1,5,-1
 782 69 l 1,6,7
 780 68 780 68 754 54.5 c 128,-1,8
 728 41 728 41 684.5 25.5 c 128,-1,9
 641 10 641 10 583 -3 c 128,-1,10
 525 -16 525 -16 459 -16 c 0,11,12
 345 -16 345 -16 273 41 c 128,-1,13
 201 98 201 98 181 219 c 0,14,15
 177 241 177 241 175.5 266 c 128,-1,16
 174 291 174 291 174 320 c 0,17,18
 174 351 174 351 177.5 384 c 128,-1,19
 181 417 181 417 186 452 c 2,20,-1
 263 975 l 1,21,-1
 138 975 l 1,22,-1
 160 1127 l 1,23,-1
 294 1127 l 1,24,-1
 350 1526 l 1,25,-1
 659 1608 l 1,26,-1
 587 1127 l 1,27,-1
 847 1127 l 1,28,-1
 824 975 l 1,29,-1
 566 975 l 1,30,-1
 477 363 l 2,31,32
 470 315 470 315 473.5 281.5 c 128,-1,33
 477 248 477 248 489 227 c 128,-1,34
 501 206 501 206 520.5 196.5 c 128,-1,35
 540 187 540 187 565 187 c 0,0,1
EndSplineSet
EndChar

StartChar: u
Encoding: 117 117 88
Width: 1209
Flags: W
HStem: -17 228<461.955 626.734> 0 21G<790.5 1013.84> 1107 20G<212.5 528 864.084 1171>
VStem: 118 308<251.131 705.656> 867 304<823 1127>
DStem2: 121 408 425 392 0.13878 0.990323<-96.1079 726.198> 746 297 1011 0 0.14056 0.990072<-51.0658 838.768>
LayerCount: 2
Fore
SplineSet
528 1127 m 1,0,1
 517 1050 517 1050 505 964.5 c 128,-1,2
 493 879 493 879 480.5 790 c 128,-1,3
 468 701 468 701 455.5 611.5 c 128,-1,4
 443 522 443 522 431 438 c 0,5,6
 426 409 426 409 425 392 c 0,7,8
 425 379 425 379 424.5 367.5 c 128,-1,9
 424 356 424 356 426 346 c 1,10,11
 428 286 428 286 464 250 c 128,-1,12
 500 214 500 214 557 211 c 1,13,14
 617 214 617 214 663 235 c 128,-1,15
 709 256 709 256 746 297 c 1,16,-1
 867 1127 l 1,17,-1
 1171 1127 l 1,18,-1
 1011 0 l 1,19,-1
 796 0 l 1,20,21
 785 43 785 43 774.5 85 c 128,-1,22
 764 127 764 127 753 170 c 1,23,24
 734 133 734 133 707 99.5 c 128,-1,25
 680 66 680 66 645 40 c 128,-1,26
 610 14 610 14 566 -1.5 c 128,-1,27
 522 -17 522 -17 470 -17 c 0,28,29
 289 -17 289 -17 203 75.5 c 128,-1,30
 117 168 117 168 118 350 c 0,31,32
 118 376 118 376 121 408 c 128,-1,33
 124 440 124 440 129 475 c 0,34,35
 153 643 153 643 177.5 810.5 c 128,-1,36
 202 978 202 978 223 1127 c 1,37,-1
 528 1127 l 1,0,1
EndSplineSet
EndChar

StartChar: v
Encoding: 118 118 89
Width: 1015
Flags: W
HStem: 0 21G<278.196 642.075> 1107 20G<123 404.38 782.557 1089>
VStem: 123 279<848 1127>
DStem2: 402 1127 123 1127 0.138837 -0.990315<0 795.4> 496 337 634 0 0.374368 0.92728<0 842.616>
LayerCount: 2
Fore
SplineSet
634 0 m 1,0,-1
 281 0 l 1,1,-1
 123 1127 l 1,2,-1
 402 1127 l 1,3,-1
 496 337 l 1,4,-1
 790 1127 l 1,5,-1
 1089 1127 l 1,6,-1
 634 0 l 1,0,-1
EndSplineSet
EndChar

StartChar: w
Encoding: 119 119 90
Width: 1412
Flags: W
HStem: 0 21G<228.225 528.695 793.884 1098.03> 1107 20G<130 401.102 671.629 938.105 1225.15 1487>
VStem: 130 270<857 1127>
DStem2: 441 383 230 0 0.0883839 -0.996086<-744.712 0> 441 383 522 0 0.303521 0.952825<0 396.702> 978 385 756 699 0.0551719 -0.998477<-325.77 0> 978 385 1091 0 0.331506 0.943453<0 784.245>
LayerCount: 2
Fore
SplineSet
795 0 m 1,0,-1
 756 699 l 1,1,-1
 522 0 l 1,2,-1
 230 0 l 1,3,-1
 130 1127 l 1,4,-1
 400 1127 l 1,5,-1
 441 383 l 1,6,-1
 678 1127 l 1,7,-1
 937 1127 l 1,8,-1
 978 385 l 1,9,-1
 1232 1127 l 1,10,-1
 1487 1127 l 1,11,-1
 1091 0 l 1,12,-1
 795 0 l 1,0,-1
EndSplineSet
EndChar

StartChar: x
Encoding: 120 120 91
Width: 1003
Flags: W
HStem: 0 21G<-18 302.845 634.199 945> 1107 20G<126 447.235 778.378 1100>
VStem: -18 308<0 308> 792 308<819 1127>
DStem2: 572 804 693 567 0.583621 0.812026<0 390.681>
LayerCount: 2
Fore
SplineSet
509 341 m 1,0,-1
 290 0 l 1,1,-1
 -18 0 l 1,2,-1
 388 567 l 1,3,-1
 126 1127 l 1,4,-1
 439 1127 l 1,5,-1
 572 804 l 1,6,-1
 792 1127 l 1,7,-1
 1100 1127 l 1,8,-1
 693 567 l 1,9,-1
 945 0 l 1,10,-1
 642 0 l 1,11,-1
 509 341 l 1,0,-1
EndSplineSet
EndChar

StartChar: y
Encoding: 121 121 92
Width: 1053
Flags: W
HStem: -482 21G<80.918 103> 1107 20G<117 407.276 833.422 1130>
VStem: 117 286<841 1127>
DStem2: 561 388 670 -21 0.371948 0.928253<0 790.125>
LayerCount: 2
Fore
SplineSet
24 -238 m 1,0,1
 53 -229 53 -229 81 -221 c 128,-1,2
 109 -213 109 -213 136 -203 c 0,3,4
 182 -187 182 -187 224.5 -161 c 128,-1,5
 267 -135 267 -135 299.5 -105 c 128,-1,6
 332 -75 332 -75 352 -44 c 128,-1,7
 372 -13 372 -13 374 14 c 1,8,-1
 370 39 l 1,9,-1
 117 1127 l 1,10,-1
 403 1127 l 1,11,-1
 561 388 l 1,12,-1
 841 1127 l 1,13,-1
 1130 1127 l 1,14,-1
 670 -21 l 1,15,16
 638 -104 638 -104 595.5 -170.5 c 128,-1,17
 553 -237 553 -237 497.5 -289 c 128,-1,18
 442 -341 442 -341 373 -379.5 c 128,-1,19
 304 -418 304 -418 219 -444 c 0,20,21
 186 -454 186 -454 153 -464 c 128,-1,22
 120 -474 120 -474 86 -482 c 1,23,-1
 24 -238 l 1,0,1
EndSplineSet
EndChar

StartChar: z
Encoding: 122 122 93
Width: 945
Flags: W
HStem: 0 228<407 823> 896 231<228 626>
DStem2: 95 231 407 228 0.612972 0.790105<188.877 850.908>
LayerCount: 2
Fore
SplineSet
626 896 m 1,0,-1
 202 896 l 1,1,-1
 228 1127 l 1,2,-1
 963 1127 l 1,3,-1
 933 906 l 1,4,-1
 407 228 l 1,5,-1
 846 228 l 1,6,-1
 823 0 l 1,7,-1
 67 0 l 1,8,-1
 95 231 l 1,9,-1
 626 896 l 1,0,-1
EndSplineSet
EndChar

StartChar: braceleft
Encoding: 123 123 94
Width: 840
Flags: W
HStem: 1335 191<721.303 813>
VStem: 250 319<-21.3516 530.085> 269.5 299.5<141.813 530.085>
DStem2: 257 257.5 562 299 0.131999 0.99125<-115.598 188.601 551.896 1073.56>
LayerCount: 2
Fore
SplineSet
653 1002 m 1,0,1
 641 906 641 906 616 844 c 128,-1,2
 591 782 591 782 560 743.5 c 128,-1,3
 529 705 529 705 496 685.5 c 128,-1,4
 463 666 463 666 436 657 c 1,5,6
 501 629 501 629 534.5 567 c 128,-1,7
 568 505 568 505 569 407 c 0,8,9
 569 382 569 382 567 355.5 c 128,-1,10
 565 329 565 329 562 299 c 0,11,12
 542 138 542 138 557 73 c 1,13,14
 557 40 557 40 562.5 20.5 c 128,-1,15
 568 1 568 1 578 -8.5 c 128,-1,16
 588 -18 588 -18 602 -20.5 c 128,-1,17
 616 -23 616 -23 633 -23 c 1,18,-1
 607 -214 l 1,19,20
 587 -214 587 -214 565.5 -213 c 128,-1,21
 544 -212 544 -212 523 -209 c 0,22,23
 469 -202 469 -202 419.5 -181 c 128,-1,24
 370 -160 370 -160 332.5 -118.5 c 128,-1,25
 295 -77 295 -77 272.5 -13.5 c 128,-1,26
 250 50 250 50 250 141 c 0,27,28
 250 167 250 167 252 197 c 128,-1,29
 254 227 254 227 257 257.5 c 128,-1,30
 260 288 260 288 263 318 c 128,-1,31
 266 348 266 348 268 375 c 0,32,33
 269 394 269 394 269.5 409.5 c 128,-1,34
 270 425 270 425 269 439 c 0,35,36
 268 502 268 502 251 531 c 128,-1,37
 234 560 234 560 192 560 c 1,38,-1
 217 752 l 1,39,40
 245 752 245 752 267.5 766.5 c 128,-1,41
 290 781 290 781 307 815 c 128,-1,42
 324 849 324 849 337.5 905.5 c 128,-1,43
 351 962 351 962 362 1046 c 0,44,45
 375 1149 375 1149 402 1224.5 c 128,-1,46
 429 1300 429 1300 466 1353 c 128,-1,47
 503 1406 503 1406 548 1440 c 128,-1,48
 593 1474 593 1474 641.5 1493 c 128,-1,49
 690 1512 690 1512 740 1519 c 128,-1,50
 790 1526 790 1526 837 1526 c 1,51,-1
 813 1335 l 1,52,53
 786 1335 786 1335 764 1330 c 128,-1,54
 742 1325 742 1325 723 1294 c 128,-1,55
 704 1263 704 1263 687 1195 c 128,-1,56
 670 1127 670 1127 653 1002 c 1,0,1
EndSplineSet
EndChar

StartChar: bar
Encoding: 124 124 95
Width: 781
Flags: W
VStem: 292 280<-122 1713>
LayerCount: 2
Fore
SplineSet
292 -122 m 1,0,-1
 303 1713 l 1,1,-1
 582 1713 l 1,2,-1
 572 -122 l 1,3,-1
 292 -122 l 1,0,-1
EndSplineSet
EndChar

StartChar: braceright
Encoding: 125 125 96
Width: 856
Flags: W
HStem: -214 191<135 219.242>
VStem: 384 277<768.712 1208.23> 418 271<875.049 1330.83>
DStem2: 290 310 561 266 0.152901 0.988241<-291.051 246.655 607.922 923.411>
LayerCount: 2
Fore
SplineSet
384 881 m 0,0,1
 384 924 384 924 389.5 966.5 c 128,-1,2
 395 1009 395 1009 401 1051.5 c 128,-1,3
 407 1094 407 1094 412.5 1137.5 c 128,-1,4
 418 1181 418 1181 418 1226 c 0,5,6
 418 1263 418 1263 412.5 1284.5 c 128,-1,7
 407 1306 407 1306 396.5 1317 c 128,-1,8
 386 1328 386 1328 371 1331.5 c 128,-1,9
 356 1335 356 1335 337 1335 c 1,10,-1
 365 1526 l 1,11,12
 425 1526 425 1526 482.5 1513 c 128,-1,13
 540 1500 540 1500 585.5 1463 c 128,-1,14
 631 1426 631 1426 659 1361 c 128,-1,15
 687 1296 687 1296 689 1193 c 0,16,17
 689 1157 689 1157 684 1110.5 c 128,-1,18
 679 1064 679 1064 674 1018 c 128,-1,19
 669 972 669 972 665 931.5 c 128,-1,20
 661 891 661 891 661 867 c 0,21,22
 662 808 662 808 677.5 780 c 128,-1,23
 693 752 693 752 731 752 c 1,24,-1
 704 560 l 1,25,26
 677 560 677 560 656 546 c 128,-1,27
 635 532 635 532 618 498 c 128,-1,28
 601 464 601 464 587 407.5 c 128,-1,29
 573 351 573 351 561 266 c 0,30,31
 546 165 546 165 519 89.5 c 128,-1,32
 492 14 492 14 456 -39 c 128,-1,33
 420 -92 420 -92 377.5 -126 c 128,-1,34
 335 -160 335 -160 289.5 -179.5 c 128,-1,35
 244 -199 244 -199 197.5 -206.5 c 128,-1,36
 151 -214 151 -214 107 -214 c 1,37,-1
 135 -23 l 1,38,39
 162 -23 162 -23 183 -15 c 128,-1,40
 204 -7 204 -7 222 26 c 128,-1,41
 240 59 240 59 256 126 c 128,-1,42
 272 193 272 193 290 310 c 1,43,44
 310 451 310 451 364.5 536.5 c 128,-1,45
 419 622 419 622 504 657 c 1,46,47
 483 666 483 666 461.5 681 c 128,-1,48
 440 696 440 696 423 721.5 c 128,-1,49
 406 747 406 747 395 786 c 128,-1,50
 384 825 384 825 384 881 c 0,0,1
EndSplineSet
EndChar

StartChar: asciitilde
Encoding: 126 126 97
Width: 1124
Flags: W
HStem: 151 218<643.506 806.635> 302 209<372.963 517.242>
VStem: 156 193<176 272.599> 809 212<370.938 475>
LayerCount: 2
Fore
SplineSet
762 151 m 0,0,1
 704 151 704 151 654.5 174.5 c 128,-1,2
 605 198 605 198 563 226.5 c 128,-1,3
 521 255 521 255 486 278.5 c 128,-1,4
 451 302 451 302 422 302 c 0,5,6
 391 302 391 302 374 273.5 c 128,-1,7
 357 245 357 245 349 176 c 1,8,-1
 156 176 l 1,9,10
 203 511 203 511 416 511 c 0,11,12
 476 511 476 511 521.5 489 c 128,-1,13
 567 467 567 467 605 440 c 128,-1,14
 643 413 643 413 677 391 c 128,-1,15
 711 369 711 369 750 369 c 0,16,17
 767 369 767 369 778 373.5 c 128,-1,18
 789 378 789 378 796.5 390 c 128,-1,19
 804 402 804 402 809 422.5 c 128,-1,20
 814 443 814 443 819 475 c 1,21,-1
 1021 475 l 1,22,23
 1011 400 1011 400 988 340 c 128,-1,24
 965 280 965 280 932 238 c 128,-1,25
 899 196 899 196 856 173.5 c 128,-1,26
 813 151 813 151 762 151 c 0,0,1
EndSplineSet
EndChar

StartChar: exclamdown
Encoding: 161 161 98
Width: 689
Flags: W
HStem: 0 21G<123 563> 1308 21G<457 488.5> 1607 20G<465 516.5>
VStem: 311 328<1369.97 1554.29>
LayerCount: 2
Fore
SplineSet
606 1584 m 1,0,1
 639 1545 639 1545 639 1493 c 1,2,3
 641 1456 641 1456 627.5 1423.5 c 128,-1,4
 614 1391 614 1391 590.5 1366 c 128,-1,5
 567 1341 567 1341 536 1325.5 c 128,-1,6
 505 1310 505 1310 472 1308 c 1,7,8
 442 1308 442 1308 415 1317 c 128,-1,9
 388 1326 388 1326 366.5 1342.5 c 128,-1,10
 345 1359 345 1359 330 1381.5 c 128,-1,11
 315 1404 315 1404 311 1431 c 1,12,13
 311 1469 311 1469 325 1503 c 128,-1,14
 339 1537 339 1537 363 1563 c 128,-1,15
 387 1589 387 1589 418 1606 c 128,-1,16
 449 1623 449 1623 481 1627 c 1,17,18
 552 1627 552 1627 606 1584 c 1,0,1
123 0 m 1,19,-1
 349 1175 l 1,20,-1
 538 1175 l 1,21,-1
 563 0 l 1,22,-1
 123 0 l 1,19,-1
EndSplineSet
EndChar

StartChar: cent
Encoding: 162 162 99
Width: 993
Flags: W
HStem: -10 226<662 789.875> 916 230<520.808 652.561 810 866.043>
VStem: 87 305<304.553 742.217>
DStem2: 475 -171 594 -190 0.161816 0.986821<0.50647 158.151 412.159 1101.48 1334.66 1568.7>
LayerCount: 2
Fore
SplineSet
87 446 m 1,0,1
 83 600 83 600 126 728 c 128,-1,2
 169 856 169 856 245.5 948 c 128,-1,3
 322 1040 322 1040 425 1091.5 c 128,-1,4
 528 1143 528 1143 643 1146 c 0,5,6
 659 1147 659 1147 670.5 1147.5 c 128,-1,7
 682 1148 682 1148 690 1147 c 1,8,-1
 729 1377 l 1,9,-1
 848 1359 l 1,10,-1
 810 1132 l 1,11,12
 853 1122 853 1122 899 1101.5 c 128,-1,13
 945 1081 945 1081 995 1051 c 1,14,-1
 922 835 l 1,15,16
 916 842 916 842 902 851 c 128,-1,17
 888 860 888 860 868.5 870 c 128,-1,18
 849 880 849 880 824.5 889 c 128,-1,19
 800 898 800 898 773 904 c 1,20,-1
 662 216 l 1,21,22
 681 218 681 218 702 223.5 c 128,-1,23
 723 229 723 229 742.5 236 c 128,-1,24
 762 243 762 243 778 249.5 c 128,-1,25
 794 256 794 256 803 261 c 2,26,-1
 859 295 l 1,27,-1
 887 80 l 1,28,29
 816 42 816 42 750.5 20 c 128,-1,30
 685 -2 685 -2 625 -10 c 1,31,-1
 594 -190 l 1,32,-1
 475 -171 l 1,33,-1
 501 -15 l 1,34,35
 411 -11 411 -11 337 21.5 c 128,-1,36
 263 54 263 54 208.5 113 c 128,-1,37
 154 172 154 172 122.5 255.5 c 128,-1,38
 91 339 91 339 87 446 c 1,0,1
653 916 m 1,39,40
 607 913 607 913 574 900 c 1,41,42
 483 871 483 871 437.5 760 c 128,-1,43
 392 649 392 649 392 466 c 1,44,45
 399 270 399 270 540 227 c 1,46,-1
 653 916 l 1,39,40
EndSplineSet
EndChar

StartChar: sterling
Encoding: 163 163 100
Width: 1143
Flags: W
HStem: 0 227<390 938> 574 111<202 305 556.711 945> 1092 253<564.997 891.021>
VStem: 230 274<739.384 1030.96> 317 246<407.729 574>
LayerCount: 2
Fore
SplineSet
714 1092 m 0,0,1
 672 1092 672 1092 633.5 1082 c 128,-1,2
 595 1072 595 1072 565.5 1048 c 128,-1,3
 536 1024 536 1024 519 985 c 128,-1,4
 502 946 502 946 504 888 c 0,5,6
 505 856 505 856 512 824 c 128,-1,7
 519 792 519 792 527.5 764.5 c 128,-1,8
 536 737 536 737 544 716 c 128,-1,9
 552 695 552 695 557 685 c 1,10,-1
 957 685 l 1,11,-1
 945 574 l 1,12,-1
 563 574 l 1,13,14
 554 493 554 493 529.5 431.5 c 128,-1,15
 505 370 505 370 477.5 327.5 c 128,-1,16
 450 285 450 285 425 260 c 128,-1,17
 400 235 400 235 390 227 c 1,18,-1
 962 227 l 1,19,-1
 938 0 l 1,20,-1
 120 0 l 1,21,-1
 141 222 l 1,22,23
 163 248 163 248 186 276.5 c 128,-1,24
 209 305 209 305 233 336 c 1,25,26
 237 345 237 345 248.5 363 c 128,-1,27
 260 381 260 381 273 409.5 c 128,-1,28
 286 438 286 438 298.5 479 c 128,-1,29
 311 520 311 520 317 575 c 1,30,31
 285 575 285 575 253.5 574.5 c 128,-1,32
 222 574 222 574 190 574 c 1,33,-1
 202 681 l 1,34,-1
 305 681 l 1,35,36
 269 744 269 744 250 803 c 128,-1,37
 231 862 231 862 230 925 c 1,38,39
 228 968 228 968 238 1016 c 128,-1,40
 248 1064 248 1064 271.5 1110.5 c 128,-1,41
 295 1157 295 1157 332.5 1199.5 c 128,-1,42
 370 1242 370 1242 423 1274.5 c 128,-1,43
 476 1307 476 1307 545.5 1326 c 128,-1,44
 615 1345 615 1345 703 1345 c 0,45,46
 795 1345 795 1345 865 1327.5 c 128,-1,47
 935 1310 935 1310 984.5 1287 c 128,-1,48
 1034 1264 1034 1264 1063 1242 c 128,-1,49
 1092 1220 1092 1220 1103 1211 c 1,50,-1
 962 997 l 1,51,52
 959 999 959 999 941.5 1014 c 128,-1,53
 924 1029 924 1029 892.5 1046.5 c 128,-1,54
 861 1064 861 1064 816 1078 c 128,-1,55
 771 1092 771 1092 714 1092 c 0,0,1
EndSplineSet
EndChar

StartChar: currency
Encoding: 164 164 101
Width: 1426
Flags: W
HStem: 553 185<580.804 847.1> 1263 187<642.288 906.258>
VStem: 321 177<821.864 1110.98> 991 174<887.506 1173.78>
DStem2: 160 550 268 417 0.720508 0.693447<0 283.62 1186.12 1463.71> 394 1575 257 1442 0.634755 -0.772713<15.8093 270.027 1059.76 1326.5>
LayerCount: 2
Fore
SplineSet
991 1047 m 0,0,1
 989 1090 989 1090 972.5 1129 c 128,-1,2
 956 1168 956 1168 928 1198 c 128,-1,3
 900 1228 900 1228 862 1245.5 c 128,-1,4
 824 1263 824 1263 780 1263 c 0,5,6
 724 1263 724 1263 672.5 1236.5 c 128,-1,7
 621 1210 621 1210 581.5 1166.5 c 128,-1,8
 542 1123 542 1123 519 1067.5 c 128,-1,9
 496 1012 496 1012 498 954 c 0,10,11
 499 909 499 909 515 870 c 128,-1,12
 531 831 531 831 559 801.5 c 128,-1,13
 587 772 587 772 625 755 c 128,-1,14
 663 738 663 738 708 738 c 0,15,16
 764 738 764 738 816 764.5 c 128,-1,17
 868 791 868 791 907.5 834.5 c 128,-1,18
 947 878 947 878 970 933.5 c 128,-1,19
 993 989 993 989 991 1047 c 0,0,1
1128 1245 m 1,20,21
 1162 1168 1162 1168 1165 1084 c 0,22,23
 1170 912 1170 912 1061 762 c 1,24,-1
 1236 550 l 1,25,-1
 1099 417 l 1,26,-1
 924 631 l 1,27,28
 864 591 864 591 803.5 572 c 128,-1,29
 743 553 743 553 679 553 c 0,30,31
 562 553 562 553 474 616 c 1,32,-1
 268 417 l 1,33,-1
 160 550 l 1,34,-1
 365 746 l 1,35,36
 324 822 324 822 321 919 c 0,37,38
 317 1094 317 1094 425 1238 c 1,39,-1
 257 1442 l 1,40,-1
 394 1575 l 1,41,-1
 561 1370 l 1,42,43
 678 1450 678 1450 809 1450 c 0,44,45
 930 1450 930 1450 1022 1379 c 1,46,-1
 1224 1575 l 1,47,-1
 1333 1442 l 1,48,-1
 1128 1245 l 1,20,21
EndSplineSet
EndChar

StartChar: yen
Encoding: 165 165 102
Width: 1206
Flags: W
HStem: 0 21G<438 754.475> 404 123<199 488 819 1106> 659 123<230 430 956 1139> 1586 20G<162 507.019 1076.96 1430>
VStem: 438 314<0 314>
DStem2: 502 1606 430 782 0.243417 -0.969922<393.992 781.69>
LayerCount: 2
Fore
SplineSet
697 829 m 1,0,-1
 1087 1606 l 1,1,-1
 1430 1606 l 1,2,-1
 956 782 l 1,3,-1
 1154 782 l 1,4,-1
 1139 659 l 1,5,-1
 889 659 l 1,6,-1
 819 527 l 1,7,-1
 1122 527 l 1,8,-1
 1106 404 l 1,9,-1
 802 404 l 1,10,-1
 752 0 l 1,11,-1
 438 0 l 1,12,-1
 488 404 l 1,13,-1
 183 404 l 1,14,-1
 199 527 l 1,15,-1
 501 527 l 1,16,-1
 465 659 l 1,17,-1
 215 659 l 1,18,-1
 230 782 l 1,19,-1
 430 782 l 1,20,-1
 162 1606 l 1,21,-1
 502 1606 l 1,22,-1
 697 829 l 1,0,-1
EndSplineSet
EndChar

StartChar: brokenbar
Encoding: 166 166 103
Width: 713
Flags: W
VStem: 174 282<-135 147> 269 281<338 619> 307 282<934 1216> 432 251<1436 1687>
DStem2: 174 -135 456 -135 0.123633 0.992328<34.8644 759.96 1112.11 1706.68>
LayerCount: 2
Fore
SplineSet
174 -135 m 1,0,-1
 269 619 l 1,1,-1
 550 619 l 1,2,-1
 456 -135 l 1,3,-1
 174 -135 l 1,0,-1
307 934 m 1,4,-1
 432 1687 l 1,5,-1
 683 1687 l 1,6,-1
 589 934 l 1,7,-1
 307 934 l 1,4,-1
EndSplineSet
EndChar

StartChar: section
Encoding: 167 167 104
Width: 1059
Flags: W
HStem: -110 233<327.24 669.011> 1372 234<515.935 825.13>
VStem: 180 234<677.445 842.573> 238 233<1204.43 1341.06> 715 246<168.617 350.814> 777 240<689.553 850.337>
LayerCount: 2
Fore
SplineSet
238 1237 m 0,0,1
 235 1317 235 1317 264.5 1385 c 128,-1,2
 294 1453 294 1453 350.5 1502 c 128,-1,3
 407 1551 407 1551 489 1578.5 c 128,-1,4
 571 1606 571 1606 673 1606 c 0,5,6
 724 1606 724 1606 770.5 1595.5 c 128,-1,7
 817 1585 817 1585 858 1569 c 128,-1,8
 899 1553 899 1553 933 1534 c 128,-1,9
 967 1515 967 1515 992.5 1497.5 c 128,-1,10
 1018 1480 1018 1480 1033.5 1467 c 128,-1,11
 1049 1454 1049 1454 1053 1451 c 1,12,-1
 948 1251 l 1,13,14
 925 1272 925 1272 889.5 1293.5 c 128,-1,15
 854 1315 854 1315 814 1332.5 c 128,-1,16
 774 1350 774 1350 733 1361 c 128,-1,17
 692 1372 692 1372 659 1372 c 0,18,19
 560 1372 560 1372 514.5 1342 c 128,-1,20
 469 1312 469 1312 471 1255 c 0,21,22
 471 1235 471 1235 493.5 1216.5 c 128,-1,23
 516 1198 516 1198 579 1173 c 2,24,-1
 720 1116 l 2,25,26
 805 1082 805 1082 861.5 1049 c 128,-1,27
 918 1016 918 1016 952 981.5 c 128,-1,28
 986 947 986 947 1000.5 908.5 c 128,-1,29
 1015 870 1015 870 1017 825 c 1,30,31
 1018 759 1018 759 1002 707 c 128,-1,32
 986 655 986 655 957.5 616.5 c 128,-1,33
 929 578 929 578 890 553 c 128,-1,34
 851 528 851 528 807 516 c 1,35,36
 955 447 955 447 961 284 c 1,37,38
 961 243 961 243 953.5 198.5 c 128,-1,39
 946 154 946 154 927 110.5 c 128,-1,40
 908 67 908 67 874.5 27 c 128,-1,41
 841 -13 841 -13 789 -43 c 128,-1,42
 737 -73 737 -73 664.5 -91 c 128,-1,43
 592 -109 592 -109 494 -110 c 0,44,45
 474 -110 474 -110 454.5 -109 c 128,-1,46
 435 -108 435 -108 413 -104 c 0,47,48
 373 -98 373 -98 331 -86.5 c 128,-1,49
 289 -75 289 -75 251 -59 c 128,-1,50
 213 -43 213 -43 181.5 -24.5 c 128,-1,51
 150 -6 150 -6 130 14 c 0,52,53
 123 21 123 21 116 27.5 c 128,-1,54
 109 34 109 34 103 41 c 1,55,-1
 211 252 l 1,56,57
 215 250 215 250 217.5 246.5 c 128,-1,58
 220 243 220 243 224 241 c 1,59,60
 236 230 236 230 260.5 210.5 c 128,-1,61
 285 191 285 191 320.5 171.5 c 128,-1,62
 356 152 356 152 401 137.5 c 128,-1,63
 446 123 446 123 498 123 c 0,64,65
 567 123 567 123 610 137.5 c 128,-1,66
 653 152 653 152 677 174 c 128,-1,67
 701 196 701 196 708.5 222.5 c 128,-1,68
 716 249 716 249 715 273 c 0,69,70
 714 295 714 295 706.5 311.5 c 128,-1,71
 699 328 699 328 684 341.5 c 128,-1,72
 669 355 669 355 645 367 c 128,-1,73
 621 379 621 379 588 392 c 2,74,-1
 442 447 l 1,75,76
 367 474 367 474 318 501.5 c 128,-1,77
 269 529 269 529 239 560.5 c 128,-1,78
 209 592 209 592 196 628.5 c 128,-1,79
 183 665 183 665 180 710 c 1,80,81
 178 783 178 783 197.5 837.5 c 128,-1,82
 217 892 217 892 248.5 930 c 128,-1,83
 280 968 280 968 319 990.5 c 128,-1,84
 358 1013 358 1013 396 1022 c 1,85,86
 242 1083 242 1083 238 1237 c 0,0,1
606 872 m 0,87,88
 509 872 509 872 460.5 843.5 c 128,-1,89
 412 815 412 815 414 746 c 1,90,91
 415 655 415 655 581 655 c 0,92,93
 684 655 684 655 731.5 688.5 c 128,-1,94
 779 722 779 722 777 782 c 0,95,96
 775 830 775 830 735.5 851 c 128,-1,97
 696 872 696 872 606 872 c 0,87,88
EndSplineSet
EndChar

StartChar: dieresis
Encoding: 168 168 105
Width: 1333
Flags: W
HStem: 148 361<259.879 449.461 861.605 1050.64>
VStem: 186 337<222.045 433.004> 788 336<222.045 434.579>
LayerCount: 2
Fore
SplineSet
522 331 m 0,0,1
 518 293 518 293 501.5 259.5 c 128,-1,2
 485 226 485 226 459.5 201.5 c 128,-1,3
 434 177 434 177 401.5 162.5 c 128,-1,4
 369 148 369 148 335 148 c 0,5,6
 305 148 305 148 278.5 159.5 c 128,-1,7
 252 171 252 171 232 191 c 128,-1,8
 212 211 212 211 199.5 238.5 c 128,-1,9
 187 266 187 266 186 298 c 0,10,11
 184 340 184 340 199.5 378 c 128,-1,12
 215 416 215 416 241 445.5 c 128,-1,13
 267 475 267 475 301.5 492 c 128,-1,14
 336 509 336 509 373 509 c 0,15,16
 404 509 404 509 430.5 497 c 128,-1,17
 457 485 457 485 477 464.5 c 128,-1,18
 497 444 497 444 509 416.5 c 128,-1,19
 521 389 521 389 523 358 c 0,20,21
 523 350 523 350 522.5 344 c 128,-1,22
 522 338 522 338 522 331 c 0,0,1
1123 330 m 0,23,24
 1119 292 1119 292 1102.5 259 c 128,-1,25
 1086 226 1086 226 1060.5 201.5 c 128,-1,26
 1035 177 1035 177 1003 162.5 c 128,-1,27
 971 148 971 148 937 148 c 0,28,29
 906 148 906 148 879.5 159.5 c 128,-1,30
 853 171 853 171 833 191 c 128,-1,31
 813 211 813 211 801 238.5 c 128,-1,32
 789 266 789 266 788 298 c 0,33,34
 786 340 786 340 801 378.5 c 128,-1,35
 816 417 816 417 842.5 446 c 128,-1,36
 869 475 869 475 903 492 c 128,-1,37
 937 509 937 509 975 509 c 0,38,39
 1006 509 1006 509 1032.5 497 c 128,-1,40
 1059 485 1059 485 1078.5 464.5 c 128,-1,41
 1098 444 1098 444 1110 416.5 c 128,-1,42
 1122 389 1122 389 1124 358 c 0,43,44
 1124 350 1124 350 1123.5 344 c 128,-1,45
 1123 338 1123 338 1123 330 c 0,23,24
EndSplineSet
EndChar

StartChar: copyright
Encoding: 169 169 106
Width: 1875
Flags: W
HStem: -65 214<677.882 1137.06> 286 204<808.76 1130.8> 1128 204<875.758 1217.81> 1471 215<817.116 1271.31>
VStem: 138 221<478.02 987.125> 531 218.5<550.62 978.195> 1591 222<627.381 1135.01>
LayerCount: 2
Fore
SplineSet
906 149 m 0,0,1
 998 149 998 149 1086 176 c 128,-1,2
 1174 203 1174 203 1251 252.5 c 128,-1,3
 1328 302 1328 302 1392.5 371.5 c 128,-1,4
 1457 441 1457 441 1502 525.5 c 128,-1,5
 1547 610 1547 610 1570.5 707 c 128,-1,6
 1594 804 1594 804 1591 909 c 0,7,8
 1589 973 1589 973 1575 1039.5 c 128,-1,9
 1561 1106 1561 1106 1532.5 1168.5 c 128,-1,10
 1504 1231 1504 1231 1460 1286 c 128,-1,11
 1416 1341 1416 1341 1355 1382 c 128,-1,12
 1294 1423 1294 1423 1214 1447 c 128,-1,13
 1134 1471 1134 1471 1034 1471 c 0,14,15
 952 1471 952 1471 869.5 1445.5 c 128,-1,16
 787 1420 787 1420 710.5 1372.5 c 128,-1,17
 634 1325 634 1325 568.5 1256.5 c 128,-1,18
 503 1188 503 1188 455 1101.5 c 128,-1,19
 407 1015 407 1015 381 912.5 c 128,-1,20
 355 810 355 810 359 695 c 0,21,22
 363 578 363 578 403 478 c 128,-1,23
 443 378 443 378 514 305 c 128,-1,24
 585 232 585 232 684 190.5 c 128,-1,25
 783 149 783 149 906 149 c 0,0,1
1061 1686 m 0,26,27
 1203 1686 1203 1686 1314 1649 c 128,-1,28
 1425 1612 1425 1612 1508 1551 c 128,-1,29
 1591 1490 1591 1490 1648.5 1412 c 128,-1,30
 1706 1334 1706 1334 1742 1251.5 c 128,-1,31
 1778 1169 1778 1169 1794.5 1089 c 128,-1,32
 1811 1009 1811 1009 1813 945 c 0,33,34
 1815 882 1815 882 1808.5 801.5 c 128,-1,35
 1802 721 1802 721 1774.5 629.5 c 128,-1,36
 1747 538 1747 538 1692.5 437 c 128,-1,37
 1638 336 1638 336 1543 231 c 1,38,39
 1487 171 1487 171 1413 117 c 128,-1,40
 1339 63 1339 63 1252 22.5 c 128,-1,41
 1165 -18 1165 -18 1069 -41.5 c 128,-1,42
 973 -65 973 -65 875 -65 c 0,43,44
 726 -65 726 -65 593.5 -12 c 128,-1,45
 461 41 461 41 361.5 138 c 128,-1,46
 262 235 262 235 202 370 c 128,-1,47
 142 505 142 505 138 670 c 1,48,49
 132 815 132 815 166.5 946.5 c 128,-1,50
 201 1078 201 1078 265.5 1191 c 128,-1,51
 330 1304 330 1304 419.5 1395.5 c 128,-1,52
 509 1487 509 1487 613.5 1551.5 c 128,-1,53
 718 1616 718 1616 832.5 1651 c 128,-1,54
 947 1686 947 1686 1061 1686 c 0,26,27
752 798 m 0,55,56
 750 769 750 769 749.5 744 c 128,-1,57
 749 719 749 719 751 697 c 0,58,59
 754 638 754 638 768.5 598.5 c 128,-1,60
 783 559 783 559 808.5 535 c 128,-1,61
 834 511 834 511 869.5 500.5 c 128,-1,62
 905 490 905 490 950 490 c 0,63,64
 984 490 984 490 1017 496 c 128,-1,65
 1050 502 1050 502 1084.5 514 c 128,-1,66
 1119 526 1119 526 1156 543.5 c 128,-1,67
 1193 561 1193 561 1237 583 c 1,68,-1
 1215 370 l 1,69,70
 1134 329 1134 329 1067.5 307.5 c 128,-1,71
 1001 286 1001 286 938 286 c 0,72,73
 858 286 858 286 797.5 303 c 128,-1,74
 737 320 737 320 693 349.5 c 128,-1,75
 649 379 649 379 619 419.5 c 128,-1,76
 589 460 589 460 570 507 c 128,-1,77
 551 554 551 554 542 606 c 128,-1,78
 533 658 533 658 531 710 c 0,79,80
 526 846 526 846 563 960.5 c 128,-1,81
 600 1075 600 1075 668 1157.5 c 128,-1,82
 736 1240 736 1240 830.5 1286 c 128,-1,83
 925 1332 925 1332 1037 1332 c 0,84,85
 1068 1332 1068 1332 1103.5 1326 c 128,-1,86
 1139 1320 1139 1320 1172.5 1310.5 c 128,-1,87
 1206 1301 1206 1301 1234 1289.5 c 128,-1,88
 1262 1278 1262 1278 1277 1268 c 1,89,90
 1285 1264 1285 1264 1291 1260.5 c 128,-1,91
 1297 1257 1297 1257 1304 1252 c 1,92,-1
 1281 1048 l 1,93,94
 1264 1058 1264 1058 1246 1068.5 c 128,-1,95
 1228 1079 1228 1079 1205.5 1089 c 128,-1,96
 1183 1099 1183 1099 1154 1107.5 c 128,-1,97
 1125 1116 1125 1116 1086 1122 c 0,98,99
 1066 1125 1066 1125 1045.5 1127 c 128,-1,100
 1025 1129 1025 1129 1004 1128 c 0,101,102
 939 1126 939 1126 893.5 1097.5 c 128,-1,103
 848 1069 848 1069 818 1022.5 c 128,-1,104
 788 976 788 976 772.5 917.5 c 128,-1,105
 757 859 757 859 752 798 c 0,55,56
EndSplineSet
EndChar

StartChar: ordfeminine
Encoding: 170 170 107
Width: 1171
Flags: W
HStem: 396 129<238 856> 668 113<422.194 663.141> 1158 100<476.516 822.502> 1513 125<498.447 830.877>
VStem: 238 152<813.178 1075.36> 797 108<686 790.39> 851 142<1220.12 1490.32>
DStem2: 791 903 940.5 944.5 0.143536 0.989645<-49.1649 240.684 318.054 479.958>
LayerCount: 2
Fore
SplineSet
797 828 m 1,0,1
 667 668 667 668 496 668 c 0,2,3
 368 668 368 668 303 727 c 128,-1,4
 238 786 238 786 238 901 c 0,5,6
 238 980 238 980 265 1045.5 c 128,-1,7
 292 1111 292 1111 341.5 1158.5 c 128,-1,8
 391 1206 391 1206 461 1232 c 128,-1,9
 531 1258 531 1258 618 1258 c 0,10,11
 643 1258 643 1258 673.5 1254.5 c 128,-1,12
 704 1251 704 1251 734 1245 c 128,-1,13
 764 1239 764 1239 790.5 1232 c 128,-1,14
 817 1225 817 1225 835 1218 c 1,15,16
 844 1286 844 1286 847.5 1321.5 c 128,-1,17
 851 1357 851 1357 851 1380 c 0,18,19
 851 1418 851 1418 843 1443.5 c 128,-1,20
 835 1469 835 1469 816 1484.5 c 128,-1,21
 797 1500 797 1500 767 1506.5 c 128,-1,22
 737 1513 737 1513 693 1513 c 0,23,24
 639 1513 639 1513 587.5 1498.5 c 128,-1,25
 536 1484 536 1484 496 1467 c 128,-1,26
 456 1450 456 1450 432.5 1436 c 128,-1,27
 409 1422 409 1422 410 1423 c 1,28,-1
 375 1532 l 1,29,30
 409 1551 409 1551 447 1570 c 128,-1,31
 485 1589 485 1589 526.5 1604 c 128,-1,32
 568 1619 568 1619 612 1628.5 c 128,-1,33
 656 1638 656 1638 703 1638 c 0,34,35
 781 1638 781 1638 836 1623 c 128,-1,36
 891 1608 891 1608 926 1576 c 128,-1,37
 961 1544 961 1544 977 1493.5 c 128,-1,38
 993 1443 993 1443 993 1373 c 0,39,40
 993 1364 993 1364 992.5 1351.5 c 128,-1,41
 992 1339 992 1339 989 1313 c 128,-1,42
 986 1287 986 1287 980.5 1242.5 c 128,-1,43
 975 1198 975 1198 965 1125 c 128,-1,44
 955 1052 955 1052 940.5 944.5 c 128,-1,45
 926 837 926 837 905 686 c 1,46,-1
 797 686 l 1,47,-1
 797 828 l 1,0,1
824 1141 m 1,48,49
 776 1149 776 1149 734.5 1153.5 c 128,-1,50
 693 1158 693 1158 658 1158 c 0,51,52
 390 1158 390 1158 390 924 c 0,53,54
 390 781 390 781 547 781 c 0,55,56
 610 781 610 781 668.5 813.5 c 128,-1,57
 727 846 727 846 791 903 c 1,58,-1
 824 1141 l 1,48,49
238 525 m 1,59,-1
 874 525 l 1,60,-1
 856 396 l 1,61,-1
 220 396 l 1,62,-1
 238 525 l 1,59,-1
EndSplineSet
EndChar

StartChar: guillemotleft
Encoding: 171 171 108
Width: 1878
Flags: W
HStem: -37 21G<843.495 873.188 1587.46 1617.19>
DStem2: 489 585 182 464 0.808787 -0.588102<0 510.387> 207 706 489 585 0.847998 0.529999<175.006 736.593> 1232 585 925 464 0.809192 -0.587544<0 511.202> 950 706 1232 585 0.847998 0.529999<175.006 736.593>
LayerCount: 2
Fore
SplineSet
1713 875 m 1,0,-1
 1232 585 l 1,1,-1
 1651 292 l 1,2,-1
 1615 -37 l 1,3,-1
 925 464 l 1,4,-1
 950 706 l 1,5,-1
 1750 1206 l 1,6,-1
 1713 875 l 1,0,-1
970 875 m 1,7,-1
 489 585 l 1,8,-1
 907 292 l 1,9,-1
 871 -37 l 1,10,-1
 182 464 l 1,11,-1
 207 706 l 1,12,-1
 1007 1206 l 1,13,-1
 970 875 l 1,7,-1
EndSplineSet
EndChar

StartChar: logicalnot
Encoding: 172 172 109
Width: 1602
Flags: W
HStem: 977 207<209 1195>
VStem: 1100 259<314 573>
DStem2: 1100 314 1359 314 0.138871 0.99031<35.9676 669.769>
LayerCount: 2
Fore
SplineSet
179 977 m 1,0,-1
 209 1184 l 1,1,-1
 1481 1184 l 1,2,-1
 1359 314 l 1,3,-1
 1100 314 l 1,4,-1
 1195 977 l 1,5,-1
 179 977 l 1,0,-1
EndSplineSet
EndChar

StartChar: uni00AD
Encoding: 173 173 110
Width: 1208
Flags: W
HStem: 587 253<175 1053>
LayerCount: 2
Fore
SplineSet
1053 587 m 1,0,-1
 148 587 l 1,1,-1
 175 840 l 1,2,-1
 1081 840 l 1,3,-1
 1053 587 l 1,0,-1
EndSplineSet
EndChar

StartChar: registered
Encoding: 174 174 111
Width: 1331
Flags: W
HStem: 585 113<451.853 828.903> 1341 97<645 797.347> 1557 114<538.135 911.759>
VStem: 156 112<882.847 1274.55> 476 110<834 944> 801 110<1201.7 1331.35> 1099 115<974.741 1371.43>
DStem2: 476 834 586 834 0.106998 0.994259<11.7698 259.247 359.069 525.76>
LayerCount: 2
Fore
SplineSet
750 1102 m 1,0,1
 758 1088 758 1088 767.5 1072 c 128,-1,2
 777 1056 777 1056 785 1042 c 2,3,-1
 883 867 l 1,4,-1
 770 811 l 1,5,6
 757 838 757 838 745 865.5 c 128,-1,7
 733 893 733 893 720 920 c 2,8,-1
 646 1080 l 1,9,-1
 613 1080 l 1,10,-1
 586 834 l 1,11,-1
 476 834 l 1,12,-1
 541 1438 l 1,13,-1
 655 1438 l 2,14,15
 710 1438 710 1438 756.5 1431.5 c 128,-1,16
 803 1425 803 1425 837 1409 c 128,-1,17
 871 1393 871 1393 890.5 1366.5 c 128,-1,18
 910 1340 910 1340 911 1300 c 0,19,20
 913 1216 913 1216 874 1170.5 c 128,-1,21
 835 1125 835 1125 750 1102 c 1,0,1
730 1557 m 0,22,23
 632 1557 632 1557 546.5 1516.5 c 128,-1,24
 461 1476 461 1476 398 1407 c 128,-1,25
 335 1338 335 1338 300 1246.5 c 128,-1,26
 265 1155 265 1155 268 1053 c 0,27,28
 271 976 271 976 299 910.5 c 128,-1,29
 327 845 327 845 375.5 798 c 128,-1,30
 424 751 424 751 490.5 724.5 c 128,-1,31
 557 698 557 698 637 698 c 0,32,33
 734 698 734 698 820 738 c 128,-1,34
 906 778 906 778 969.5 846 c 128,-1,35
 1033 914 1033 914 1068 1005.5 c 128,-1,36
 1103 1097 1103 1097 1099 1199 c 1,37,38
 1097 1277 1097 1277 1068.5 1342.5 c 128,-1,39
 1040 1408 1040 1408 990.5 1455.5 c 128,-1,40
 941 1503 941 1503 874.5 1530 c 128,-1,41
 808 1557 808 1557 730 1557 c 0,22,23
669 1179 m 2,42,43
 732 1179 732 1179 767.5 1201 c 128,-1,44
 803 1223 803 1223 801 1281 c 0,45,46
 800 1298 800 1298 792.5 1309.5 c 128,-1,47
 785 1321 785 1321 767.5 1328 c 128,-1,48
 750 1335 750 1335 720 1338 c 128,-1,49
 690 1341 690 1341 645 1341 c 1,50,-1
 626 1179 l 1,51,-1
 669 1179 l 2,42,43
159 1120 m 0,52,53
 168 1235 168 1235 219 1335.5 c 128,-1,54
 270 1436 270 1436 350.5 1510.5 c 128,-1,55
 431 1585 431 1585 534.5 1628 c 128,-1,56
 638 1671 638 1671 752 1671 c 0,57,58
 849 1671 849 1671 932 1635.5 c 128,-1,59
 1015 1600 1015 1600 1076.5 1538 c 128,-1,60
 1138 1476 1138 1476 1174.5 1392.5 c 128,-1,61
 1211 1309 1211 1309 1214 1213 c 0,62,63
 1216 1132 1216 1132 1197 1053.5 c 128,-1,64
 1178 975 1178 975 1140.5 905.5 c 128,-1,65
 1103 836 1103 836 1049 777 c 128,-1,66
 995 718 995 718 928.5 675.5 c 128,-1,67
 862 633 862 633 785 609 c 128,-1,68
 708 585 708 585 624 585 c 0,69,70
 520 585 520 585 435 621.5 c 128,-1,71
 350 658 350 658 289 720.5 c 128,-1,72
 228 783 228 783 193.5 867 c 128,-1,73
 159 951 159 951 156 1046 c 0,74,75
 155 1081 155 1081 159 1120 c 0,52,53
EndSplineSet
EndChar

StartChar: macron
Encoding: 175 175 112
Width: 974
Flags: W
HStem: 0 255<105 812>
LayerCount: 2
Fore
SplineSet
812 0 m 1,0,-1
 78 0 l 1,1,-1
 105 255 l 1,2,-1
 839 255 l 1,3,-1
 812 0 l 1,0,-1
EndSplineSet
EndChar

StartChar: degree
Encoding: 176 176 113
Width: 859
Flags: W
HStem: -116 149<286.552 526.084> 395 149<317.829 555.072>
VStem: 75 162<83.0609 315.412> 605 160<110.236 345.625>
LayerCount: 2
Fore
SplineSet
442 395 m 0,0,1
 404 395 404 395 366.5 379 c 128,-1,2
 329 363 329 363 300 335.5 c 128,-1,3
 271 308 271 308 253 270.5 c 128,-1,4
 235 233 235 233 237 190 c 0,5,6
 238 155 238 155 251.5 126 c 128,-1,7
 265 97 265 97 287.5 76.5 c 128,-1,8
 310 56 310 56 339.5 44.5 c 128,-1,9
 369 33 369 33 402 33 c 0,10,11
 440 33 440 33 477.5 49 c 128,-1,12
 515 65 515 65 544 92.5 c 128,-1,13
 573 120 573 120 590 157.5 c 128,-1,14
 607 195 607 195 605 238 c 0,15,16
 604 272 604 272 590.5 301 c 128,-1,17
 577 330 577 330 555 351 c 128,-1,18
 533 372 533 372 504 383.5 c 128,-1,19
 475 395 475 395 442 395 c 0,0,1
75 169 m 1,20,21
 73 247 73 247 106 315.5 c 128,-1,22
 139 384 139 384 193 434.5 c 128,-1,23
 247 485 247 485 316.5 514.5 c 128,-1,24
 386 544 386 544 458 544 c 0,25,26
 520 544 520 544 575.5 523 c 128,-1,27
 631 502 631 502 672.5 464 c 128,-1,28
 714 426 714 426 738.5 374 c 128,-1,29
 763 322 763 322 765 261 c 1,30,31
 769 183 769 183 737.5 114.5 c 128,-1,32
 706 46 706 46 652.5 -5 c 128,-1,33
 599 -56 599 -56 529.5 -86 c 128,-1,34
 460 -116 460 -116 387 -116 c 0,35,36
 325 -116 325 -116 269.5 -95 c 128,-1,37
 214 -74 214 -74 172 -36 c 128,-1,38
 130 2 130 2 104 54.5 c 128,-1,39
 78 107 78 107 75 169 c 1,20,21
EndSplineSet
EndChar

StartChar: plusminus
Encoding: 177 177 114
Width: 1330
Flags: W
HStem: 3 228<263 1048> 639 244<391 627 916 1153>
VStem: 587 259<324 583> 696 259<939 1198>
DStem2: 587 324 846 324 0.123755 0.992313<32.0526 317.529 595.418 880.771>
LayerCount: 2
Fore
SplineSet
1048 3 m 1,0,-1
 236 3 l 1,1,-1
 263 231 l 1,2,-1
 1077 231 l 1,3,-1
 1048 3 l 1,0,-1
1153 639 m 1,4,-1
 886 639 l 1,5,-1
 846 324 l 1,6,-1
 587 324 l 1,7,-1
 627 639 l 1,8,-1
 361 639 l 1,9,-1
 391 883 l 1,10,-1
 656 883 l 1,11,-1
 696 1198 l 1,12,-1
 955 1198 l 1,13,-1
 916 883 l 1,14,-1
 1183 883 l 1,15,-1
 1153 639 l 1,4,-1
EndSplineSet
EndChar

StartChar: uni00B2
Encoding: 178 178 115
Width: 1058
Flags: W
HStem: 630 211<579 862> 1419 206<424.01 681.149>
VStem: 717 248<1194.12 1397.34>
DStem2: 501 1034 579 841 0.761145 0.648581<-65.8069 314.298>
LayerCount: 2
Fore
SplineSet
717 1295 m 1,0,1
 717 1306 717 1306 716.5 1315.5 c 128,-1,2
 716 1325 716 1325 714 1333 c 1,3,4
 709 1377 709 1377 682 1398 c 128,-1,5
 655 1419 655 1419 600 1419 c 0,6,7
 568 1419 568 1419 528 1408.5 c 128,-1,8
 488 1398 488 1398 449.5 1384 c 128,-1,9
 411 1370 411 1370 379 1356 c 128,-1,10
 347 1342 347 1342 331 1335 c 1,11,-1
 285 1523 l 1,12,13
 292 1526 292 1526 298 1528 c 1,14,15
 305 1533 305 1533 340 1548.5 c 128,-1,16
 375 1564 375 1564 424 1581 c 128,-1,17
 473 1598 473 1598 529.5 1611.5 c 128,-1,18
 586 1625 586 1625 637 1625 c 0,19,20
 699 1625 699 1625 757 1611.5 c 128,-1,21
 815 1598 815 1598 860 1568 c 128,-1,22
 905 1538 905 1538 933.5 1490 c 128,-1,23
 962 1442 962 1442 965 1373 c 0,24,25
 967 1314 967 1314 954 1264.5 c 128,-1,26
 941 1215 941 1215 911.5 1167 c 128,-1,27
 882 1119 882 1119 835 1069.5 c 128,-1,28
 788 1020 788 1020 721 962 c 2,29,-1
 579 841 l 1,30,-1
 884 841 l 1,31,-1
 862 630 l 1,32,-1
 203 630 l 1,33,-1
 221 804 l 1,34,35
 287 858 287 858 355 914 c 128,-1,36
 423 970 423 970 501 1034 c 0,37,38
 506 1038 506 1038 513.5 1044.5 c 128,-1,39
 521 1051 521 1051 537 1063 c 0,40,41
 589 1105 589 1105 621.5 1137 c 128,-1,42
 654 1169 654 1169 673.5 1195.5 c 128,-1,43
 693 1222 693 1222 702.5 1245.5 c 128,-1,44
 712 1269 712 1269 717 1295 c 1,0,1
EndSplineSet
EndChar

StartChar: uni00B3
Encoding: 179 179 116
Width: 1021
Flags: W
HStem: 473 205<254.719 615.726> 980 196<462 601.876> 1419 207<370.383 663.115>
VStem: 658 237<719.332 934.298> 694 228<1223.8 1393.21>
DStem2: 364 691 286 495.5 0.952271 -0.305255<-113.656 107.11>
LayerCount: 2
Fore
SplineSet
462 1176 m 1,0,1
 528 1176 528 1176 572.5 1188 c 128,-1,2
 617 1200 617 1200 644.5 1220 c 128,-1,3
 672 1240 672 1240 683.5 1265.5 c 128,-1,4
 695 1291 695 1291 694 1318 c 0,5,6
 692 1369 692 1369 664 1394 c 128,-1,7
 636 1419 636 1419 566 1419 c 0,8,9
 531 1419 531 1419 494 1411.5 c 128,-1,10
 457 1404 457 1404 425 1394 c 128,-1,11
 393 1384 393 1384 369.5 1374 c 128,-1,12
 346 1364 346 1364 337 1360 c 1,13,-1
 274 1542 l 1,14,-1
 292 1551 l 2,15,16
 307 1559 307 1559 335 1572 c 128,-1,17
 363 1585 363 1585 400 1597 c 128,-1,18
 437 1609 437 1609 480.5 1617.5 c 128,-1,19
 524 1626 524 1626 571 1626 c 0,20,21
 650 1626 650 1626 714 1611.5 c 128,-1,22
 778 1597 778 1597 823.5 1566.5 c 128,-1,23
 869 1536 869 1536 894.5 1487 c 128,-1,24
 920 1438 920 1438 922 1369 c 256,25,26
 924 1300 924 1300 906 1248.5 c 128,-1,27
 888 1197 888 1197 859 1161.5 c 128,-1,28
 830 1126 830 1126 795.5 1105.5 c 128,-1,29
 761 1085 761 1085 730 1079 c 1,30,31
 764 1070 764 1070 793.5 1049 c 128,-1,32
 823 1028 823 1028 845.5 998.5 c 128,-1,33
 868 969 868 969 881 932 c 128,-1,34
 894 895 894 895 895 855 c 0,35,36
 895 825 895 825 888.5 785.5 c 128,-1,37
 882 746 882 746 864.5 703.5 c 128,-1,38
 847 661 847 661 816 619.5 c 128,-1,39
 785 578 785 578 736.5 545.5 c 128,-1,40
 688 513 688 513 620 493 c 128,-1,41
 552 473 552 473 459 473 c 0,42,43
 406 473 406 473 362.5 479.5 c 128,-1,44
 319 486 319 486 286 495.5 c 128,-1,45
 253 505 253 505 229.5 515 c 128,-1,46
 206 525 206 525 194 533 c 1,47,48
 212 587 212 587 226 632.5 c 128,-1,49
 240 678 240 678 253 723 c 1,50,51
 308 704 308 704 364 691 c 128,-1,52
 420 678 420 678 474 678 c 0,53,54
 534 678 534 678 570 693 c 128,-1,55
 606 708 606 708 625.5 731.5 c 128,-1,56
 645 755 645 755 651.5 782.5 c 128,-1,57
 658 810 658 810 658 835 c 1,58,59
 655 907 655 907 603.5 942.5 c 128,-1,60
 552 978 552 978 441 980 c 1,61,-1
 462 1176 l 1,0,1
EndSplineSet
EndChar

StartChar: acute
Encoding: 180 180 117
Width: 903
Flags: W
VStem: 262 557
LayerCount: 2
Fore
SplineSet
460 148 m 1,0,-1
 262 148 l 1,1,-1
 439 837 l 1,2,-1
 819 837 l 1,3,-1
 460 148 l 1,0,-1
EndSplineSet
EndChar

StartChar: uni00B5
Encoding: 181 181 118
Width: 1146
Flags: W
HStem: -32 142<343.563 620.464> -12 21G<804 932>
VStem: 261 145<965 1110> 804 128<4 105.639> 916 172<938 1110>
DStem2: 71 -270 210 -290 0.138648 0.990342<0 354.721 604.555 1393.01> 800 272 932 4 0.139666 0.990199<-55.6144 845.988>
LayerCount: 2
Fore
SplineSet
210 -290 m 1,0,-1
 71 -270 l 1,1,-1
 261 1110 l 1,2,-1
 406 1110 l 1,3,4
 380 927 380 927 362.5 798 c 128,-1,5
 345 669 345 669 333.5 583 c 128,-1,6
 322 497 322 497 315.5 446 c 128,-1,7
 309 395 309 395 305.5 367 c 128,-1,8
 302 339 302 339 301.5 327.5 c 128,-1,9
 301 316 301 316 301 308 c 0,10,11
 301 205 301 205 341 157.5 c 128,-1,12
 381 110 381 110 466 110 c 0,13,14
 524 110 524 110 575 126.5 c 128,-1,15
 626 143 626 143 669 167.5 c 128,-1,16
 712 192 712 192 745 220.5 c 128,-1,17
 778 249 778 249 800 272 c 1,18,-1
 916 1110 l 1,19,-1
 1088 1110 l 1,20,-1
 932 4 l 1,21,-1
 804 -12 l 1,22,-1
 804 156 l 1,23,24
 627 -32 627 -32 444 -32 c 0,25,26
 397 -32 397 -32 364 -22 c 128,-1,27
 331 -12 331 -12 309.5 2 c 128,-1,28
 288 16 288 16 276 32.5 c 128,-1,29
 264 49 264 49 258 62 c 1,30,-1
 210 -290 l 1,0,-1
EndSplineSet
EndChar

StartChar: paragraph
Encoding: 182 182 119
Width: 1379
Flags: W
HStem: 0 21G<520 761.792 888 1126.79> 1454 152<962 1090>
VStem: 520 239<0 239> 888 236<0 236>
DStem2: 520 0 759 0 0.138274 0.990394<33.0474 750.243> 888 0 1124 0 0.13814 0.990413<32.601 1467.96>
LayerCount: 2
Fore
SplineSet
1348 1606 m 1,0,-1
 1124 0 l 1,1,-1
 888 0 l 1,2,-1
 1090 1454 l 1,3,-1
 962 1454 l 1,4,-1
 759 0 l 1,5,-1
 520 0 l 1,6,-1
 624 743 l 1,7,8
 530 743 530 743 445 760 c 128,-1,9
 360 777 360 777 296 818.5 c 128,-1,10
 232 860 232 860 194.5 928.5 c 128,-1,11
 157 997 157 997 157 1099 c 0,12,13
 157 1200 157 1200 180 1275 c 128,-1,14
 203 1350 203 1350 243 1404.5 c 128,-1,15
 283 1459 283 1459 335.5 1495.5 c 128,-1,16
 388 1532 388 1532 446.5 1554 c 128,-1,17
 505 1576 505 1576 566.5 1587 c 128,-1,18
 628 1598 628 1598 685 1602 c 128,-1,19
 742 1606 742 1606 792 1606 c 128,-1,20
 842 1606 842 1606 877 1606 c 2,21,-1
 1348 1606 l 1,0,-1
EndSplineSet
EndChar

StartChar: periodcentered
Encoding: 183 183 120
Width: 552
Flags: W
HStem: 533 360<187.189 417.867>
VStem: 123 359<597.35 829.283>
LayerCount: 2
Fore
SplineSet
300 893 m 0,0,1
 336 893 336 893 368.5 879 c 128,-1,2
 401 865 401 865 426 841 c 128,-1,3
 451 817 451 817 466 784.5 c 128,-1,4
 481 752 481 752 482 715 c 256,5,6
 483 678 483 678 469.5 645 c 128,-1,7
 456 612 456 612 432 587 c 128,-1,8
 408 562 408 562 376 547.5 c 128,-1,9
 344 533 344 533 307 533 c 0,10,11
 271 533 271 533 238 546.5 c 128,-1,12
 205 560 205 560 180 584 c 128,-1,13
 155 608 155 608 139.5 640.5 c 128,-1,14
 124 673 124 673 123 711 c 256,15,16
 122 749 122 749 135.5 782 c 128,-1,17
 149 815 149 815 173 840 c 128,-1,18
 197 865 197 865 229.5 879 c 128,-1,19
 262 893 262 893 300 893 c 0,0,1
EndSplineSet
EndChar

StartChar: cedilla
Encoding: 184 184 121
Width: 399
Flags: W
HStem: -620 148<-33.3159 245.245> -448 20G<-38.1053 -35>
VStem: 268 177<-426.992 -240.478>
DStem2: -55.3365 -620 47.5334 -620 0.207912 0.978148<547.893 706.826>
LayerCount: 2
Fore
SplineSet
-47 -567 m 1,0,1
 -48 -565 -48 -565 -48.5 -564 c 128,-1,2
 -49 -563 -49 -563 -50 -561 c 1,3,-1
 -36 -428 l 1,4,5
 -34 -429 -34 -429 -21.5 -436 c 128,-1,6
 -9 -443 -9 -443 11.5 -451 c 128,-1,7
 32 -459 32 -459 59.5 -465.5 c 128,-1,8
 87 -472 87 -472 120 -472 c 0,9,10
 137 -472 137 -472 151.5 -471 c 128,-1,11
 166 -470 166 -470 179 -468 c 0,12,13
 224 -460 224 -460 247 -428 c 128,-1,14
 270 -396 270 -396 268 -330 c 256,15,16
 266 -264 266 -264 208 -229.5 c 128,-1,17
 150 -195 150 -195 35 -195 c 1,18,-1
 84 73 l 1,19,-1
 199 73 l 1,20,21
 187 25 187 25 177 -19 c 128,-1,22
 167 -63 167 -63 157 -105 c 1,23,24
 179 -105 179 -105 208.5 -109 c 128,-1,25
 238 -113 238 -113 269.5 -122.5 c 128,-1,26
 301 -132 301 -132 332.5 -147.5 c 128,-1,27
 364 -163 364 -163 388.5 -186.5 c 128,-1,28
 413 -210 413 -210 428.5 -242.5 c 128,-1,29
 444 -275 444 -275 445 -317 c 0,30,31
 446 -325 446 -325 445.5 -332 c 128,-1,32
 445 -339 445 -339 445 -347 c 0,33,34
 433 -483 433 -483 357 -551.5 c 128,-1,35
 281 -620 281 -620 144 -620 c 0,36,37
 108 -620 108 -620 77.5 -614 c 128,-1,38
 47 -608 47 -608 22 -599.5 c 128,-1,39
 -3 -591 -3 -591 -20.5 -582 c 128,-1,40
 -38 -573 -38 -573 -47 -567 c 1,0,1
EndSplineSet
EndChar

StartChar: uni00B9
Encoding: 185 185 122
Width: 818
Flags: W
HStem: 1601 20G<421.316 718>
VStem: 339 242<635 877>
DStem2: 339 635 581 635 0.137623 0.990485<33.3048 779.793>
LayerCount: 2
Fore
SplineSet
339 635 m 1,0,-1
 449 1407 l 1,1,-1
 313 1357 l 1,2,-1
 271 1545 l 1,3,-1
 475 1621 l 1,4,-1
 718 1621 l 1,5,-1
 581 635 l 1,6,-1
 339 635 l 1,0,-1
EndSplineSet
EndChar

StartChar: ordmasculine
Encoding: 186 186 123
Width: 1164
Flags: W
HStem: 386 129<232 850> 670 125<451.131 731.232> 1512 126<544.624 821.2>
VStem: 235 145<870.914 1299.18> 894 146<1004.8 1434.39>
LayerCount: 2
Fore
SplineSet
569 670 m 256,0,1
 485 670 485 670 422.5 697 c 128,-1,2
 360 724 360 724 318 773.5 c 128,-1,3
 276 823 276 823 255.5 892 c 128,-1,4
 235 961 235 961 235 1045 c 0,5,6
 235 1098 235 1098 244.5 1162.5 c 128,-1,7
 254 1227 254 1227 276 1293 c 128,-1,8
 298 1359 298 1359 334 1421 c 128,-1,9
 370 1483 370 1483 422 1531.5 c 128,-1,10
 474 1580 474 1580 544 1609 c 128,-1,11
 614 1638 614 1638 705 1638 c 0,12,13
 789 1638 789 1638 851.5 1610.5 c 128,-1,14
 914 1583 914 1583 956 1533 c 128,-1,15
 998 1483 998 1483 1019 1413 c 128,-1,16
 1040 1343 1040 1343 1040 1258 c 0,17,18
 1040 1194 1040 1194 1028.5 1126 c 128,-1,19
 1017 1058 1017 1058 992.5 992.5 c 128,-1,20
 968 927 968 927 930.5 868.5 c 128,-1,21
 893 810 893 810 840.5 766 c 128,-1,22
 788 722 788 722 720.5 696 c 128,-1,23
 653 670 653 670 569 670 c 256,0,1
587 795 m 0,24,25
 648 795 648 795 694.5 818 c 128,-1,26
 741 841 741 841 775 878.5 c 128,-1,27
 809 916 809 916 832 964 c 128,-1,28
 855 1012 855 1012 868.5 1063 c 128,-1,29
 882 1114 882 1114 888 1164 c 128,-1,30
 894 1214 894 1214 894 1255 c 0,31,32
 894 1375 894 1375 844 1443.5 c 128,-1,33
 794 1512 794 1512 688 1512 c 0,34,35
 628 1512 628 1512 582 1489.5 c 128,-1,36
 536 1467 536 1467 501.5 1429.5 c 128,-1,37
 467 1392 467 1392 444 1344 c 128,-1,38
 421 1296 421 1296 406.5 1244.5 c 128,-1,39
 392 1193 392 1193 386 1142.5 c 128,-1,40
 380 1092 380 1092 380 1050 c 0,41,42
 380 929 380 929 430.5 862 c 128,-1,43
 481 795 481 795 587 795 c 0,24,25
232 515 m 1,44,-1
 868 515 l 1,45,-1
 850 386 l 1,46,-1
 213 386 l 1,47,-1
 232 515 l 1,44,-1
EndSplineSet
EndChar

StartChar: guillemotright
Encoding: 187 187 124
Width: 1746
Flags: W
HStem: -37 21G<97.7356 127.495 840.736 870.455>
DStem2: 140 292 95 -37 0.851622 0.524156<0 583.713> 268 1198 223 875 0.802988 -0.595995<156.372 662.683> 883 292 838 -37 0.851335 0.524623<0 584.559> 1011 1198 965 875 0.802988 -0.595995<155.569 663.486>
LayerCount: 2
Fore
SplineSet
965 875 m 1,0,-1
 1011 1198 l 1,1,-1
 1686 697 l 1,2,-1
 1651 464 l 1,3,-1
 838 -37 l 1,4,-1
 883 292 l 1,5,-1
 1386 590 l 1,6,-1
 965 875 l 1,0,-1
223 875 m 1,7,-1
 268 1198 l 1,8,-1
 943 697 l 1,9,-1
 909 464 l 1,10,-1
 95 -37 l 1,11,-1
 140 292 l 1,12,-1
 642 590 l 1,13,-1
 223 875 l 1,7,-1
EndSplineSet
EndChar

StartChar: onequarter
Encoding: 188 188 125
Width: 1856
Flags: W
HStem: 92 199<1178 1341 1590 1697>
VStem: 232 241<434 675> 1311 222<-140 82>
DStem2: 232 434 473 434 0.128708 0.991683<31.0186 746.201> 322 -30 508 -110 0.498852 0.866687<23.4515 1824.19> 903 250 1178 291 0.60374 0.797181<198.713 600.666> 1311 -140 1533 -138 0.129263 0.99161<30.6797 233.931 465.432 764.696>
LayerCount: 2
Fore
SplineSet
322 -30 m 1,0,-1
 1232 1551 l 1,1,-1
 1427 1465 l 1,2,-1
 508 -110 l 1,3,-1
 322 -30 l 1,0,-1
1496 1033 m 1,4,-1
 1679 982 l 1,5,-1
 1590 293 l 1,6,-1
 1723 293 l 1,7,-1
 1697 92 l 1,8,-1
 1563 92 l 1,9,-1
 1533 -138 l 1,10,-1
 1311 -140 l 1,11,-1
 1341 92 l 1,12,-1
 905 92 l 1,13,-1
 903 250 l 1,14,-1
 1496 1033 l 1,4,-1
1178 291 m 1,15,-1
 1366 291 l 1,16,-1
 1412 618 l 1,17,-1
 1178 291 l 1,15,-1
232 434 m 1,18,-1
 328 1174 l 1,19,-1
 197 1117 l 1,20,-1
 153 1301 l 1,21,-1
 435 1413 l 1,22,-1
 595 1374 l 1,23,-1
 473 434 l 1,24,-1
 232 434 l 1,18,-1
EndSplineSet
EndChar

StartChar: onehalf
Encoding: 189 189 126
Width: 1997
Flags: W
HStem: -16 211<1549 1817> 749 206<1396.33 1671.13>
VStem: 287 241<434 675> 1682 248<537.234 736.082>
DStem2: 287 434 528 434 0.129745 0.991547<31.2686 746.33> 375 -30 562 -110 0.498852 0.866687<23.9504 1824.19> 1468 382 1549 195 0.775737 0.631056<-55.1728 303.6>
LayerCount: 2
Fore
SplineSet
375 -30 m 1,0,-1
 1285 1551 l 1,1,-1
 1480 1465 l 1,2,-1
 562 -110 l 1,3,-1
 375 -30 l 1,0,-1
287 434 m 1,4,-1
 384 1174 l 1,5,-1
 253 1117 l 1,6,-1
 209 1301 l 1,7,-1
 491 1413 l 1,8,-1
 651 1374 l 1,9,-1
 528 434 l 1,10,-1
 287 434 l 1,4,-1
1468 382 m 2,11,12
 1525 429 1525 429 1566 464.5 c 128,-1,13
 1607 500 1607 500 1633 531.5 c 128,-1,14
 1659 563 1659 563 1671 593 c 128,-1,15
 1683 623 1683 623 1682 659 c 0,16,17
 1679 749 1679 749 1572 749 c 0,18,19
 1540 749 1540 749 1500 739 c 128,-1,20
 1460 729 1460 729 1421.5 715.5 c 128,-1,21
 1383 702 1383 702 1350.5 688 c 128,-1,22
 1318 674 1318 674 1301 667 c 1,23,-1
 1264 857 l 1,24,25
 1272 859 1272 859 1283.5 865.5 c 128,-1,26
 1295 872 1295 872 1322 883 c 0,27,28
 1389 909 1389 909 1461.5 932 c 128,-1,29
 1534 955 1534 955 1615 955 c 0,30,31
 1676 955 1676 955 1732.5 942 c 128,-1,32
 1789 929 1789 929 1832.5 900 c 128,-1,33
 1876 871 1876 871 1902.5 825.5 c 128,-1,34
 1929 780 1929 780 1930 714 c 1,35,36
 1932 652 1932 652 1914 598 c 128,-1,37
 1896 544 1896 544 1863 495 c 128,-1,38
 1830 446 1830 446 1783.5 399.5 c 128,-1,39
 1737 353 1737 353 1681 306 c 2,40,-1
 1549 195 l 1,41,-1
 1843 195 l 1,42,-1
 1817 -16 l 1,43,-1
 1167 -16 l 1,44,-1
 1188 157 l 1,45,-1
 1468 382 l 2,11,12
EndSplineSet
EndChar

StartChar: threequarters
Encoding: 190 190 127
Width: 2084
Flags: W
HStem: 540 132<375.078 744.053> 1142 65<784 796.461> 1541 136<516.261 877.518>
VStem: 843 163<766.978 1007.86> 926 158<1299.45 1507.2>
DStem2: 317 745 241 618 0.89182 -0.45239<0 245.354> 465 1612 484 1484 0.931128 0.364692<-4.03092 219.08>
LayerCount: 2
Fore
SplineSet
317 745 m 1,0,1
 340 733 340 733 368 720 c 128,-1,2
 396 707 396 707 429 696.5 c 128,-1,3
 462 686 462 686 500.5 679 c 128,-1,4
 539 672 539 672 583 672 c 0,5,6
 638 672 638 672 686 688.5 c 128,-1,7
 734 705 734 705 768.5 735 c 128,-1,8
 803 765 803 765 823 806.5 c 128,-1,9
 843 848 843 848 843 899 c 0,10,11
 843 972 843 972 790 1015.5 c 128,-1,12
 737 1059 737 1059 619 1072 c 1,13,-1
 645 1207 l 1,14,15
 691 1207 691 1207 740.5 1219.5 c 128,-1,16
 790 1232 790 1232 831.5 1257.5 c 128,-1,17
 873 1283 873 1283 899.5 1323 c 128,-1,18
 926 1363 926 1363 926 1418 c 0,19,20
 926 1478 926 1478 879 1509.5 c 128,-1,21
 832 1541 832 1541 729 1541 c 0,22,23
 700 1541 700 1541 668 1536.5 c 128,-1,24
 636 1532 636 1532 603.5 1524 c 128,-1,25
 571 1516 571 1516 540 1506 c 128,-1,26
 509 1496 509 1496 484 1484 c 1,27,-1
 461 1611 l 1,28,29
 463 1611 463 1611 465 1612 c 0,30,31
 474 1616 474 1616 501 1626.5 c 128,-1,32
 528 1637 528 1637 568 1648 c 128,-1,33
 608 1659 608 1659 657.5 1668 c 128,-1,34
 707 1677 707 1677 760 1677 c 0,35,36
 810 1677 810 1677 867 1666.5 c 128,-1,37
 924 1656 924 1656 972 1630.5 c 128,-1,38
 1020 1605 1020 1605 1052 1561.5 c 128,-1,39
 1084 1518 1084 1518 1084 1451 c 0,40,41
 1084 1393 1084 1393 1067 1348 c 128,-1,42
 1050 1303 1050 1303 1023 1268.5 c 128,-1,43
 996 1234 996 1234 962.5 1210 c 128,-1,44
 929 1186 929 1186 895.5 1171 c 128,-1,45
 862 1156 862 1156 832.5 1149 c 128,-1,46
 803 1142 803 1142 784 1142 c 1,47,48
 817 1135 817 1135 856 1120 c 128,-1,49
 895 1105 895 1105 928 1076.5 c 128,-1,50
 961 1048 961 1048 983.5 1004.5 c 128,-1,51
 1006 961 1006 961 1006 897 c 0,52,53
 1006 832 1006 832 985.5 780 c 128,-1,54
 965 728 965 728 930 688.5 c 128,-1,55
 895 649 895 649 848.5 620.5 c 128,-1,56
 802 592 802 592 750.5 574.5 c 128,-1,57
 699 557 699 557 645 548.5 c 128,-1,58
 591 540 591 540 542 540 c 0,59,60
 489 540 489 540 443 548 c 128,-1,61
 397 556 397 556 359 568 c 128,-1,62
 321 580 321 580 291.5 593.5 c 128,-1,63
 262 607 262 607 241 618 c 1,64,-1
 317 745 l 1,0,1
EndSplineSet
EndChar

StartChar: questiondown
Encoding: 191 191 128
Width: 1097
Flags: W
HStem: -23 266<455.937 864.022>
VStem: 109 310<279.45 501.958> 660 330<1257.33 1434.38>
LayerCount: 2
Fore
SplineSet
419 370 m 0,0,1
 420 329 420 329 437.5 304.5 c 128,-1,2
 455 280 455 280 484.5 266 c 128,-1,3
 514 252 514 252 554.5 247.5 c 128,-1,4
 595 243 595 243 643 243 c 0,5,6
 704 243 704 243 778.5 257 c 128,-1,7
 853 271 853 271 941 296 c 1,8,-1
 974 59 l 1,9,10
 935 41 935 41 881 26 c 128,-1,11
 827 11 827 11 768.5 0 c 128,-1,12
 710 -11 710 -11 652 -17 c 128,-1,13
 594 -23 594 -23 546 -23 c 0,14,15
 328 -23 328 -23 221 57 c 128,-1,16
 114 137 114 137 109 294 c 0,17,18
 106 397 106 397 138.5 485.5 c 128,-1,19
 171 574 171 574 235 647 c 128,-1,20
 299 720 299 720 390.5 778 c 128,-1,21
 482 836 482 836 598 879 c 1,22,-1
 625 1107 l 1,23,-1
 938 1107 l 1,24,-1
 903 765 l 1,25,26
 885 756 885 756 861 744.5 c 128,-1,27
 837 733 837 733 807 720 c 0,28,29
 769 703 769 703 725 683 c 128,-1,30
 681 663 681 663 637.5 639.5 c 128,-1,31
 594 616 594 616 554 588.5 c 128,-1,32
 514 561 514 561 483.5 527.5 c 128,-1,33
 453 494 453 494 435 455 c 128,-1,34
 417 416 417 416 419 370 c 0,0,1
990 1381 m 1,35,36
 990 1346 990 1346 977 1312.5 c 128,-1,37
 964 1279 964 1279 941 1252 c 128,-1,38
 918 1225 918 1225 887 1207.5 c 128,-1,39
 856 1190 856 1190 821 1186 c 1,40,41
 790 1186 790 1186 762.5 1195.5 c 128,-1,42
 735 1205 735 1205 713.5 1222 c 128,-1,43
 692 1239 692 1239 678 1261.5 c 128,-1,44
 664 1284 664 1284 660 1311 c 1,45,46
 659 1348 659 1348 673 1381.5 c 128,-1,47
 687 1415 687 1415 710 1441 c 128,-1,48
 733 1467 733 1467 764 1484 c 128,-1,49
 795 1501 795 1501 828 1505 c 1,50,51
 858 1505 858 1505 885 1495.5 c 128,-1,52
 912 1486 912 1486 934 1469.5 c 128,-1,53
 956 1453 956 1453 970.5 1430 c 128,-1,54
 985 1407 985 1407 990 1381 c 1,35,36
EndSplineSet
EndChar

StartChar: AE
Encoding: 198 198 135
Width: 1858
Flags: W
HStem: 0 260<1164 1746> 349 222<652 893> 728 233<1240 1759> 1347 258<1282 1869>
VStem: -15 342<0 342>
DStem2: -15 0 327 0 0.513316 0.8582<175.554 577.216 832.414 1472.1> 893 349 1164 260 0.111893 0.99372<-58.118 0 223.179 412.873 646.984 775.123>
LayerCount: 2
Fore
SplineSet
1240 961 m 1,0,-1
 1784 961 l 1,1,-1
 1759 728 l 1,2,-1
 1217 728 l 1,3,-1
 1164 260 l 1,4,-1
 1773 260 l 1,5,-1
 1746 0 l 1,6,-1
 856 0 l 1,7,-1
 893 349 l 1,8,-1
 526 349 l 1,9,-1
 327 0 l 1,10,-1
 -15 0 l 1,11,-1
 945 1605 l 1,12,-1
 1898 1605 l 1,13,-1
 1869 1347 l 1,14,-1
 1282 1347 l 1,15,-1
 1240 961 l 1,0,-1
916 571 m 1,16,-1
 982 1119 l 1,17,-1
 652 571 l 1,18,-1
 916 571 l 1,16,-1
EndSplineSet
EndChar

StartChar: Eth
Encoding: 208 208 145
Width: 1456
Flags: W
HStem: 0 231<460 852.395> 736 182<137 210 558 777> 1372 235<625 1011.18>
VStem: 1120 318<625.355 1246.91>
DStem2: 108 0 460 231 0.138055 0.990425<277.384 743.034 971.335 1430.24>
LayerCount: 2
Fore
SplineSet
1438 1027 m 1,0,1
 1439 797 1439 797 1389.5 607.5 c 128,-1,2
 1340 418 1340 418 1241.5 283 c 128,-1,3
 1143 148 1143 148 998 74 c 128,-1,4
 853 0 853 0 664 0 c 2,5,-1
 108 0 l 1,6,-1
 210 736 l 1,7,-1
 109 736 l 1,8,-1
 137 918 l 1,9,-1
 236 918 l 1,10,-1
 332 1607 l 1,11,-1
 887 1607 l 2,12,13
 1012 1607 1012 1607 1114 1573.5 c 128,-1,14
 1216 1540 1216 1540 1288.5 1469.5 c 128,-1,15
 1361 1399 1361 1399 1400 1289.5 c 128,-1,16
 1439 1180 1439 1180 1438 1027 c 1,0,1
1120 1009 m 1,17,18
 1120 1189 1120 1189 1057 1280.5 c 128,-1,19
 994 1372 994 1372 865 1372 c 2,20,-1
 625 1372 l 1,21,-1
 558 918 l 1,22,-1
 806 918 l 1,23,-1
 777 736 l 1,24,-1
 533 736 l 1,25,-1
 460 231 l 1,26,-1
 680 231 l 2,27,28
 799 231 799 231 882.5 294.5 c 128,-1,29
 966 358 966 358 1018.5 465.5 c 128,-1,30
 1071 573 1071 573 1095 713.5 c 128,-1,31
 1119 854 1119 854 1120 1009 c 1,17,18
EndSplineSet
EndChar

StartChar: multiply
Encoding: 215 215 152
Width: 1389
Flags: W
HStem: -5 21G<959.444 1000.75> 1120 20G<451.415 492.501>
DStem2: 157 197 351 5 0.717989 0.696054<5.6474 508.46 821.757 1367.71> 478 1140 260 976 0.588074 -0.808807<4.44432 458.259 772.523 1214.13>
LayerCount: 2
Fore
SplineSet
909 547 m 1,0,-1
 1192 158 l 1,1,-1
 974 -5 l 1,2,-1
 712 355 l 1,3,-1
 351 5 l 1,4,-1
 157 197 l 1,5,-1
 550 577 l 1,6,-1
 260 976 l 1,7,-1
 478 1140 l 1,8,-1
 747 769 l 1,9,-1
 1139 1149 l 1,10,-1
 1332 957 l 1,11,-1
 909 547 l 1,0,-1
EndSplineSet
EndChar

StartChar: Oslash
Encoding: 216 216 153
Width: 1485
Flags: W
HStem: -38 249<676 912.298> 1379 248<719.042 946>
VStem: 151 273<377.989 987.831> 1186 274<584.494 1215.51>
DStem2: 379 -122 528 -179 0.354103 0.935207<0 165.436 432.936 1582.08 1848.32 2020.99>
LayerCount: 2
Fore
SplineSet
1186 983 m 0,0,1
 1182 1093 1182 1093 1158 1172.5 c 128,-1,2
 1134 1252 1134 1252 1086 1302 c 1,3,-1
 676 216 l 1,4,5
 688 213 688 213 703.5 212 c 128,-1,6
 719 211 719 211 739 211 c 0,7,8
 851 211 851 211 937 270 c 128,-1,9
 1023 329 1023 329 1080 432.5 c 128,-1,10
 1137 536 1137 536 1164 677 c 128,-1,11
 1191 818 1191 818 1186 983 c 0,0,1
1460 979 m 0,12,13
 1465 817 1465 817 1441.5 678.5 c 128,-1,14
 1418 540 1418 540 1370.5 427 c 128,-1,15
 1323 314 1323 314 1254 227.5 c 128,-1,16
 1185 141 1185 141 1100.5 82 c 128,-1,17
 1016 23 1016 23 918.5 -7.5 c 128,-1,18
 821 -38 821 -38 716 -38 c 0,19,20
 651 -38 651 -38 585 -26 c 1,21,-1
 528 -179 l 1,22,-1
 379 -122 l 1,23,-1
 435 26 l 1,24,25
 300 98 300 98 228.5 238 c 128,-1,26
 157 378 157 378 151 591 c 0,27,28
 146 753 146 753 169.5 892.5 c 128,-1,29
 193 1032 193 1032 239.5 1147.5 c 128,-1,30
 286 1263 286 1263 354.5 1352 c 128,-1,31
 423 1441 423 1441 507.5 1502.5 c 128,-1,32
 592 1564 592 1564 691 1595.5 c 128,-1,33
 790 1627 790 1627 899 1627 c 0,34,35
 941 1627 941 1627 975.5 1624 c 128,-1,36
 1010 1621 1010 1621 1036 1613 c 1,37,-1
 1095 1769 l 1,38,-1
 1240 1713 l 1,39,-1
 1181 1557 l 1,40,41
 1311 1483 1311 1483 1382.5 1339 c 128,-1,42
 1454 1195 1454 1195 1460 979 c 0,12,13
881 1379 m 0,43,44
 825 1379 825 1379 768 1357.5 c 128,-1,45
 711 1336 711 1336 658.5 1293 c 128,-1,46
 606 1250 606 1250 561.5 1185.5 c 128,-1,47
 517 1121 517 1121 484.5 1035 c 128,-1,48
 452 949 452 949 435.5 842 c 128,-1,49
 419 735 419 735 424 606 c 1,50,51
 431 379 431 379 532 283 c 1,52,-1
 946 1372 l 1,53,54
 930 1375 930 1375 914 1377 c 128,-1,55
 898 1379 898 1379 881 1379 c 0,43,44
EndSplineSet
EndChar

StartChar: Thorn
Encoding: 222 222 159
Width: 1237
Flags: W
HStem: 0 21G<83 398.791> 473 262<498 878.33> 1221 260<603 943.662> 1588 20G<303.226 621>
VStem: 83 313<0 313> 1012 309<851.968 1158.33>
DStem2: 83 0 396 0 0.138575 0.990352<43.3741 520.957 785.417 1276.15 1538.77 1623.39>
LayerCount: 2
Fore
SplineSet
306 1608 m 1,0,-1
 621 1608 l 1,1,-1
 603 1481 l 1,2,-1
 704 1481 l 1,3,4
 872 1479 872 1479 989.5 1456.5 c 128,-1,5
 1107 1434 1107 1434 1181 1387.5 c 128,-1,6
 1255 1341 1255 1341 1288.5 1267.5 c 128,-1,7
 1322 1194 1322 1194 1321 1091 c 1,8,9
 1321 931 1321 931 1274 814.5 c 128,-1,10
 1227 698 1227 698 1129.5 622 c 128,-1,11
 1032 546 1032 546 883 509.5 c 128,-1,12
 734 473 734 473 530 473 c 2,13,-1
 462 473 l 1,14,-1
 396 0 l 1,15,-1
 83 0 l 1,16,-1
 306 1608 l 1,0,-1
1008 983 m 0,17,18
 1010 1001 1010 1001 1011.5 1017.5 c 128,-1,19
 1013 1034 1013 1034 1012 1049 c 0,20,21
 1011 1094 1011 1094 994.5 1126.5 c 128,-1,22
 978 1159 978 1159 939.5 1180 c 128,-1,23
 901 1201 901 1201 836 1211 c 128,-1,24
 771 1221 771 1221 674 1221 c 2,25,-1
 566 1221 l 1,26,-1
 498 735 l 1,27,-1
 565 735 l 2,28,29
 690 735 690 735 772.5 749 c 128,-1,30
 855 763 855 763 905 793 c 128,-1,31
 955 823 955 823 978 870 c 128,-1,32
 1001 917 1001 917 1008 983 c 0,17,18
EndSplineSet
EndChar

StartChar: germandbls
Encoding: 223 223 160
Width: 1464
Flags: W
HStem: -198 266<596 832.125> 0 21G<83 405.815> 724 213<674 922.569> 1383 239<684.153 1003.63>
VStem: 83 320<0 320> 1057 284<1057.7 1331.17> 1114 301<285.006 609.078>
DStem2: 83 0 403 0 0.139374 0.99024<44.5998 1328.66>
LayerCount: 2
Fore
SplineSet
674 937 m 1,0,1
 872 937 872 937 964.5 1007.5 c 128,-1,2
 1057 1078 1057 1078 1057 1218 c 0,3,4
 1057 1383 1057 1383 830 1383 c 0,5,6
 764 1383 764 1383 715.5 1359 c 128,-1,7
 667 1335 667 1335 632.5 1288.5 c 128,-1,8
 598 1242 598 1242 577 1173.5 c 128,-1,9
 556 1105 556 1105 546 1016 c 1,10,-1
 403 0 l 1,11,-1
 83 0 l 1,12,-1
 225 1014 l 2,13,14
 267 1310 267 1310 425.5 1466 c 128,-1,15
 584 1622 584 1622 864 1622 c 0,16,17
 979 1622 979 1622 1067.5 1594 c 128,-1,18
 1156 1566 1156 1566 1216.5 1517 c 128,-1,19
 1277 1468 1277 1468 1308.5 1400 c 128,-1,20
 1340 1332 1340 1332 1341 1253 c 1,21,22
 1340 1215 1340 1215 1337 1171.5 c 128,-1,23
 1334 1128 1334 1128 1322 1085 c 128,-1,24
 1310 1042 1310 1042 1286 1001.5 c 128,-1,25
 1262 961 1262 961 1220.5 928.5 c 128,-1,26
 1179 896 1179 896 1117 874 c 128,-1,27
 1055 852 1055 852 966 845 c 1,28,29
 1092 832 1092 832 1178 801.5 c 128,-1,30
 1264 771 1264 771 1316.5 724.5 c 128,-1,31
 1369 678 1369 678 1392 616.5 c 128,-1,32
 1415 555 1415 555 1415 480 c 0,33,34
 1415 335 1415 335 1377.5 229 c 128,-1,35
 1340 123 1340 123 1277 48.5 c 128,-1,36
 1214 -26 1214 -26 1131 -73 c 128,-1,37
 1048 -120 1048 -120 957 -147 c 128,-1,38
 866 -174 866 -174 772.5 -185 c 128,-1,39
 679 -196 679 -196 596 -198 c 1,40,-1
 550 68 l 1,41,42
 678 75 678 75 782 99 c 128,-1,43
 886 123 886 123 960 170.5 c 128,-1,44
 1034 218 1034 218 1074 292.5 c 128,-1,45
 1114 367 1114 367 1114 476 c 0,46,47
 1114 608 1114 608 994.5 666 c 128,-1,48
 875 724 875 724 644 724 c 1,49,-1
 674 937 l 1,0,1
EndSplineSet
EndChar

StartChar: ae
Encoding: 230 230 167
Width: 1748
Flags: W
HStem: -17 228<444.789 656.655 1139.84 1506.96> 493 160<1099 1452.2> 921 224<595.174 920.337 1199 1452.81>
VStem: 95 306<259.915 659.916> 784 289<282.319 597.82> 1488 257<693.578 885.55>
LayerCount: 2
Fore
SplineSet
1627 78 m 1,0,1
 1534 31 1534 31 1438 7.5 c 128,-1,2
 1342 -16 1342 -16 1246 -16 c 0,3,4
 1175 -16 1175 -16 1117.5 -6 c 128,-1,5
 1060 4 1060 4 1014 24.5 c 128,-1,6
 968 45 968 45 931 76.5 c 128,-1,7
 894 108 894 108 863 150 c 1,8,9
 833 117 833 117 781.5 86.5 c 128,-1,10
 730 56 730 56 671 33 c 128,-1,11
 612 10 612 10 553 -3.5 c 128,-1,12
 494 -17 494 -17 448 -17 c 0,13,14
 355 -17 355 -17 288.5 13.5 c 128,-1,15
 222 44 222 44 179 99 c 128,-1,16
 136 154 136 154 115.5 231.5 c 128,-1,17
 95 309 95 309 95 404 c 0,18,19
 95 492 95 492 116.5 581 c 128,-1,20
 138 670 138 670 176.5 752.5 c 128,-1,21
 215 835 215 835 269.5 906.5 c 128,-1,22
 324 978 324 978 389.5 1031 c 128,-1,23
 455 1084 455 1084 530.5 1114.5 c 128,-1,24
 606 1145 606 1145 687 1145 c 0,25,26
 749 1145 749 1145 805.5 1136 c 128,-1,27
 862 1127 862 1127 911 1113 c 128,-1,28
 960 1099 960 1099 1000.5 1083 c 128,-1,29
 1041 1067 1041 1067 1071 1053 c 1,30,31
 1143 1101 1143 1101 1218 1124.5 c 128,-1,32
 1293 1148 1293 1148 1384 1148 c 0,33,34
 1479 1148 1479 1148 1547.5 1116.5 c 128,-1,35
 1616 1085 1616 1085 1660 1031 c 128,-1,36
 1704 977 1704 977 1724.5 904.5 c 128,-1,37
 1745 832 1745 832 1745 749 c 0,38,39
 1745 739 1745 739 1741.5 717 c 128,-1,40
 1738 695 1738 695 1719 667 c 128,-1,41
 1700 639 1700 639 1660 609 c 128,-1,42
 1620 579 1620 579 1545.5 553.5 c 128,-1,43
 1471 528 1471 528 1357 511 c 128,-1,44
 1243 494 1243 494 1077 493 c 1,45,46
 1075 478 1075 478 1074 464 c 128,-1,47
 1073 450 1073 450 1073 436 c 0,48,49
 1073 325 1073 325 1132.5 262 c 128,-1,50
 1192 199 1192 199 1302 199 c 0,51,52
 1385 199 1385 199 1456.5 223 c 128,-1,53
 1528 247 1528 247 1595 292 c 1,54,-1
 1627 78 l 1,0,1
401 430 m 1,55,56
 402 318 402 318 437.5 264.5 c 128,-1,57
 473 211 473 211 545 211 c 0,58,59
 574 211 574 211 610.5 216 c 128,-1,60
 647 221 647 221 683 230.5 c 128,-1,61
 719 240 719 240 750 253.5 c 128,-1,62
 781 267 781 267 800 283 c 1,63,64
 792 314 792 314 788 348 c 128,-1,65
 784 382 784 382 784 419 c 0,66,67
 784 556 784 556 819.5 674 c 128,-1,68
 855 792 855 792 921 885 c 1,69,70
 907 888 907 888 884 894 c 128,-1,71
 861 900 861 900 833 906 c 128,-1,72
 805 912 805 912 774 916.5 c 128,-1,73
 743 921 743 921 713 921 c 0,74,75
 657 921 657 921 602 881.5 c 128,-1,76
 547 842 547 842 502.5 775 c 128,-1,77
 458 708 458 708 430 619 c 128,-1,78
 402 530 402 530 401 430 c 1,55,56
1099 653 m 1,79,80
 1195 655 1195 655 1261.5 660.5 c 128,-1,81
 1328 666 1328 666 1371.5 674 c 128,-1,82
 1415 682 1415 682 1438.5 691.5 c 128,-1,83
 1462 701 1462 701 1473 710.5 c 128,-1,84
 1484 720 1484 720 1486 729 c 128,-1,85
 1488 738 1488 738 1488 745 c 0,86,87
 1488 841 1488 841 1450 887 c 128,-1,88
 1412 933 1412 933 1335 935 c 1,89,90
 1287 933 1287 933 1247.5 912 c 128,-1,91
 1208 891 1208 891 1178 854 c 128,-1,92
 1148 817 1148 817 1128 765.5 c 128,-1,93
 1108 714 1108 714 1099 653 c 1,79,80
EndSplineSet
EndChar

StartChar: igrave
Encoding: 236 236 173
Width: 630
Flags: W
HStem: 0 21G<121 425.746> 1109 20G<273.254 578>
VStem: 121 302<0 302> 276 302<827 1129>
DStem2: 121 0 423 0 0.136014 0.990707<41.0762 1139.59>
LayerCount: 2
Fore
SplineSet
423 0 m 1,0,-1
 121 0 l 1,1,-1
 276 1129 l 1,2,-1
 578 1129 l 1,3,-1
 423 0 l 1,0,-1
481 1254 m 1,4,-1
 289 1251 l 1,5,-1
 67 1957 l 1,6,-1
 454 1966 l 1,7,-1
 481 1254 l 1,4,-1
EndSplineSet
EndChar

StartChar: iacute
Encoding: 237 237 174
Width: 630
Flags: W
HStem: 0 21G<121 425.746> 1109 20G<273.254 578>
VStem: 121 302<0 302> 276 302<827 1129>
DStem2: 121 0 423 0 0.136014 0.990707<41.0762 1139.59>
LayerCount: 2
Fore
SplineSet
423 0 m 1,0,-1
 121 0 l 1,1,-1
 276 1129 l 1,2,-1
 578 1129 l 1,3,-1
 423 0 l 1,0,-1
449 1248 m 1,4,-1
 259 1250 l 1,5,-1
 441 1939 l 1,6,-1
 818 1930 l 1,7,-1
 449 1248 l 1,4,-1
EndSplineSet
EndChar

StartChar: idieresis
Encoding: 239 239 176
Width: 630
Flags: W
HStem: 0 21G<121 425.746> 1109 20G<273.254 578> 1241 361<9.66406 198.691 610.879 801.528>
VStem: -64 336<1315.04 1526.79> 121 302<0 302> 276 302<827 1129> 537 337<1314.28 1526>
DStem2: 121 0 423 0 0.136014 0.990707<41.0762 1139.59>
LayerCount: 2
Fore
SplineSet
423 0 m 1,0,-1
 121 0 l 1,1,-1
 276 1129 l 1,2,-1
 578 1129 l 1,3,-1
 423 0 l 1,0,-1
271 1423 m 0,4,5
 267 1385 267 1385 250.5 1352 c 128,-1,6
 234 1319 234 1319 208.5 1294.5 c 128,-1,7
 183 1270 183 1270 150.5 1255.5 c 128,-1,8
 118 1241 118 1241 84 1241 c 0,9,10
 54 1241 54 1241 27.5 1252.5 c 128,-1,11
 1 1264 1 1264 -19 1284 c 128,-1,12
 -39 1304 -39 1304 -51 1331.5 c 128,-1,13
 -63 1359 -63 1359 -64 1391 c 0,14,15
 -66 1433 -66 1433 -51 1471 c 128,-1,16
 -36 1509 -36 1509 -9.5 1538.5 c 128,-1,17
 17 1568 17 1568 51.5 1585 c 128,-1,18
 86 1602 86 1602 123 1602 c 0,19,20
 154 1602 154 1602 180.5 1590 c 128,-1,21
 207 1578 207 1578 227 1557.5 c 128,-1,22
 247 1537 247 1537 258.5 1509.5 c 128,-1,23
 270 1482 270 1482 272 1451 c 0,24,25
 272 1443 272 1443 271.5 1437 c 128,-1,26
 271 1431 271 1431 271 1423 c 0,4,5
873 1423 m 0,27,28
 869 1385 869 1385 852.5 1351.5 c 128,-1,29
 836 1318 836 1318 810.5 1293.5 c 128,-1,30
 785 1269 785 1269 752.5 1254.5 c 128,-1,31
 720 1240 720 1240 686 1240 c 0,32,33
 656 1240 656 1240 629.5 1251.5 c 128,-1,34
 603 1263 603 1263 583 1283 c 128,-1,35
 563 1303 563 1303 550.5 1331 c 128,-1,36
 538 1359 538 1359 537 1391 c 0,37,38
 535 1433 535 1433 550.5 1471 c 128,-1,39
 566 1509 566 1509 592 1538.5 c 128,-1,40
 618 1568 618 1568 652.5 1585 c 128,-1,41
 687 1602 687 1602 724 1602 c 0,42,43
 755 1602 755 1602 781.5 1590 c 128,-1,44
 808 1578 808 1578 828 1557.5 c 128,-1,45
 848 1537 848 1537 860 1509.5 c 128,-1,46
 872 1482 872 1482 874 1451 c 0,47,48
 874 1443 874 1443 873.5 1437 c 128,-1,49
 873 1431 873 1431 873 1423 c 0,27,28
EndSplineSet
EndChar

StartChar: eth
Encoding: 240 240 177
Width: 1201
Flags: W
HStem: -16 230<448.097 658.06> 920 229<499.707 733.304>
VStem: 96 302<267.25 761.028> 825 274<1005 1184.44>
DStem2: 477 1403 537 1262 0.93564 0.352957<6.37148 152.503 462.716 657.304>
LayerCount: 2
Fore
SplineSet
402 552 m 0,0,1
 399 517 399 517 397.5 486 c 128,-1,2
 396 455 396 455 398 427 c 0,3,4
 408 214 408 214 550 214 c 0,5,6
 597 214 597 214 635 239.5 c 128,-1,7
 673 265 673 265 702 309 c 128,-1,8
 731 353 731 353 750 413 c 128,-1,9
 769 473 769 473 777 541 c 0,10,11
 784 608 784 608 791 675 c 128,-1,12
 798 742 798 742 805 810 c 1,13,14
 770 868 770 868 717.5 894 c 128,-1,15
 665 920 665 920 605 920 c 0,16,17
 546 920 546 920 509.5 885.5 c 128,-1,18
 473 851 473 851 451 797 c 128,-1,19
 429 743 429 743 418.5 678 c 128,-1,20
 408 613 408 613 402 552 c 0,0,1
96 424 m 0,21,22
 94 504 94 504 104 588.5 c 128,-1,23
 114 673 114 673 138 753.5 c 128,-1,24
 162 834 162 834 200.5 906 c 128,-1,25
 239 978 239 978 291.5 1032 c 128,-1,26
 344 1086 344 1086 411.5 1117.5 c 128,-1,27
 479 1149 479 1149 563 1149 c 0,28,29
 655 1149 655 1149 721 1112 c 128,-1,30
 787 1075 787 1075 825 1005 c 1,31,32
 822 1072 822 1072 794.5 1149.5 c 128,-1,33
 767 1227 767 1227 708 1326 c 1,34,-1
 537 1262 l 1,35,-1
 477 1403 l 1,36,-1
 620 1456 l 1,37,38
 584 1501 584 1501 552 1535 c 128,-1,39
 520 1569 520 1569 489 1592 c 1,40,-1
 636 1783 l 1,41,42
 710 1726 710 1726 769.5 1669 c 128,-1,43
 829 1612 829 1612 875 1554 c 1,44,-1
 1092 1635 l 1,45,-1
 1149 1494 l 1,46,-1
 964 1423 l 1,47,48
 1026 1310 1026 1310 1060 1178 c 128,-1,49
 1094 1046 1094 1046 1099 892 c 0,50,51
 1106 678 1106 678 1070.5 509.5 c 128,-1,52
 1035 341 1035 341 958 224 c 128,-1,53
 881 107 881 107 763.5 45.5 c 128,-1,54
 646 -16 646 -16 488 -16 c 0,55,56
 386 -16 386 -16 313.5 17.5 c 128,-1,57
 241 51 241 51 193.5 110 c 128,-1,58
 146 169 146 169 122.5 249.5 c 128,-1,59
 99 330 99 330 96 424 c 0,21,22
EndSplineSet
EndChar

StartChar: divide
Encoding: 247 247 184
Width: 1220
Flags: W
HStem: 0 423<220 544> 737 422<306 629>
VStem: 161 383<0 383> 220 383<40 423> 247 382<737 1119> 306 383<776 1159>
DStem2: 161 0 544 0 0.12414 0.992265<47.5457 427.052 789.397 1168.04>
LayerCount: 2
Fore
SplineSet
247 737 m 1,0,-1
 306 1159 l 1,1,-1
 689 1159 l 1,2,-1
 629 737 l 1,3,-1
 247 737 l 1,0,-1
161 0 m 1,4,-1
 220 423 l 1,5,-1
 603 423 l 1,6,-1
 544 0 l 1,7,-1
 161 0 l 1,4,-1
EndSplineSet
EndChar

StartChar: oslash
Encoding: 248 248 185
Width: 1154
Flags: W
HStem: -17 190<528.188 698.402> 951 191<511.356 702.512>
VStem: 96 270<250.392 741.915> 837 268<358.435 892.794>
DStem2: 355 -153 442 -181 0.300561 0.953763<0 160.653 371.091 1137.42 1352.51 1592.58>
LayerCount: 2
Fore
SplineSet
552 174 m 1,0,1
 555 173 555 173 561 173 c 0,2,3
 682 173 682 173 748.5 271 c 128,-1,4
 815 369 815 369 837 562 c 1,5,6
 841 606 841 606 843 642 c 128,-1,7
 845 678 845 678 844 708 c 0,8,9
 839 846 839 846 782 905 c 1,10,-1
 552 174 l 1,0,1
96 432 m 0,11,12
 94 497 94 497 102.5 574.5 c 128,-1,13
 111 652 111 652 135 731 c 128,-1,14
 159 810 159 810 201 884 c 128,-1,15
 243 958 243 958 308 1015.5 c 128,-1,16
 373 1073 373 1073 462 1107.5 c 128,-1,17
 551 1142 551 1142 669 1142 c 0,18,19
 692 1142 692 1142 714.5 1140 c 128,-1,20
 737 1138 737 1138 763 1135 c 1,21,-1
 834 1367 l 1,22,-1
 916 1340 l 1,23,-1
 846 1114 l 1,24,25
 958 1076 958 1076 1021.5 991.5 c 128,-1,26
 1085 907 1085 907 1105 779 c 0,27,28
 1113 728 1113 728 1114 670 c 0,29,30
 1115 604 1115 604 1105 527.5 c 128,-1,31
 1095 451 1095 451 1069.5 375 c 128,-1,32
 1044 299 1044 299 1001 228 c 128,-1,33
 958 157 958 157 894 102.5 c 128,-1,34
 830 48 830 48 743 15.5 c 128,-1,35
 656 -17 656 -17 542 -17 c 0,36,37
 526 -17 526 -17 514 -16.5 c 128,-1,38
 502 -16 502 -16 494 -15 c 1,39,-1
 442 -181 l 1,40,-1
 355 -153 l 1,41,-1
 404 0 l 1,42,43
 253 35 253 35 177.5 145.5 c 128,-1,44
 102 256 102 256 96 432 c 0,11,12
703 945 m 1,45,46
 671 951 671 951 652 951 c 0,47,48
 531 951 531 951 464.5 856 c 128,-1,49
 398 761 398 761 375 572 c 0,50,51
 364 489 364 489 366 422 c 0,52,53
 372 249 372 249 465 196 c 1,54,-1
 703 945 l 1,45,46
EndSplineSet
EndChar

StartChar: thorn
Encoding: 254 254 191
Width: 1144
Flags: W
HStem: -451 21G<12.8086 191.875> -16 252<455.346 708.242> 893 254<574.044 790.252>
VStem: 291 284<1266 1550> 824 283<409.887 862.468>
DStem2: 10 -451 301 -419 0.139065 0.990283<72.1571 527.536 790.919 1324.81 1575.61 2020.63>
LayerCount: 2
Fore
SplineSet
1107 699 m 0,0,1
 1107 625 1107 625 1094 543.5 c 128,-1,2
 1081 462 1081 462 1053.5 382.5 c 128,-1,3
 1026 303 1026 303 983 231 c 128,-1,4
 940 159 940 159 881.5 104 c 128,-1,5
 823 49 823 49 747 16.5 c 128,-1,6
 671 -16 671 -16 577 -16 c 0,7,8
 434 -16 434 -16 364 32 c 1,9,-1
 301 -419 l 1,10,-1
 10 -451 l 1,11,-1
 291 1550 l 1,12,-1
 575 1550 l 1,13,-1
 509 1070 l 1,14,15
 563 1108 563 1108 621 1127.5 c 128,-1,16
 679 1147 679 1147 741 1147 c 0,17,18
 844 1147 844 1147 914 1109 c 128,-1,19
 984 1071 984 1071 1027 1008.5 c 128,-1,20
 1070 946 1070 946 1088.5 865 c 128,-1,21
 1107 784 1107 784 1107 699 c 0,0,1
610 236 m 0,22,23
 653 236 653 236 685.5 260.5 c 128,-1,24
 718 285 718 285 741.5 324 c 128,-1,25
 765 363 765 363 781 413 c 128,-1,26
 797 463 797 463 806.5 513.5 c 128,-1,27
 816 564 816 564 820 611.5 c 128,-1,28
 824 659 824 659 824 694 c 0,29,30
 825 893 825 893 702 893 c 0,31,32
 682 893 682 893 655.5 884.5 c 128,-1,33
 629 876 629 876 598.5 861 c 128,-1,34
 568 846 568 846 536.5 826.5 c 128,-1,35
 505 807 505 807 476 785 c 1,36,-1
 409 314 l 1,37,38
 448 280 448 280 498.5 258 c 128,-1,39
 549 236 549 236 610 236 c 0,22,23
EndSplineSet
EndChar

StartChar: Idotaccent
Encoding: 304 304 233
Width: 625
Flags: W
HStem: 0 21G<115 422.91> 1107 20G<276.09 584> 1312 21G<453.5 485.5>
VStem: 115 305<0 305> 279 305<822 1127> 327 336<1390.32 1588.57>
DStem2: 115 0 420 0 0.158975 0.987283<48.4873 1138.74>
LayerCount: 2
Fore
SplineSet
661 1492 m 0,0,1
 656 1454 656 1454 638.5 1421.5 c 128,-1,2
 621 1389 621 1389 594.5 1364.5 c 128,-1,3
 568 1340 568 1340 535.5 1326 c 128,-1,4
 503 1312 503 1312 468 1312 c 0,5,6
 439 1312 439 1312 413 1323 c 128,-1,7
 387 1334 387 1334 367.5 1354 c 128,-1,8
 348 1374 348 1374 337 1401 c 128,-1,9
 326 1428 326 1428 327 1461 c 1,10,11
 327 1502 327 1502 343.5 1540 c 128,-1,12
 360 1578 360 1578 387 1607 c 128,-1,13
 414 1636 414 1636 449 1653 c 128,-1,14
 484 1670 484 1670 521 1670 c 0,15,16
 552 1670 552 1670 578 1658.5 c 128,-1,17
 604 1647 604 1647 623 1626.5 c 128,-1,18
 642 1606 642 1606 652.5 1578.5 c 128,-1,19
 663 1551 663 1551 663 1520 c 0,20,21
 663 1512 663 1512 662.5 1506 c 128,-1,22
 662 1500 662 1500 661 1492 c 0,0,1
420 0 m 1,23,-1
 115 0 l 1,24,-1
 279 1127 l 1,25,-1
 584 1127 l 1,26,-1
 420 0 l 1,23,-1
EndSplineSet
EndChar

StartChar: OE
Encoding: 338 338 255
Width: 2198
Flags: W
HStem: -38 270<581.834 885.158> 0 229<1377 2002> 729 226<1479 2014> 1358 269<729.737 1036.07> 1373 233<1536 2167>
VStem: 144 320<367.537 972.07>
DStem2: 1115.5 677 1447 729 0.137663 0.990479<-229.817 97.1401 325.394 446.367>
LayerCount: 2
Fore
SplineSet
2002 0 m 1,0,-1
 1038 0 l 1,1,-1
 1057 121 l 1,2,3
 1032 80 1032 80 989 50.5 c 128,-1,4
 946 21 946 21 895 1 c 128,-1,5
 844 -19 844 -19 790 -28.5 c 128,-1,6
 736 -38 736 -38 690 -38 c 0,7,8
 564 -38 564 -38 463 1.5 c 128,-1,9
 362 41 362 41 291 119.5 c 128,-1,10
 220 198 220 198 182 317 c 128,-1,11
 144 436 144 436 144 595 c 0,12,13
 144 757 144 757 171.5 896 c 128,-1,14
 199 1035 199 1035 249.5 1150 c 128,-1,15
 300 1265 300 1265 371 1353.5 c 128,-1,16
 442 1442 442 1442 528.5 1503 c 128,-1,17
 615 1564 615 1564 714.5 1595.5 c 128,-1,18
 814 1627 814 1627 922 1627 c 0,19,20
 968 1627 968 1627 1018 1616.5 c 128,-1,21
 1068 1606 1068 1606 1113 1583 c 128,-1,22
 1158 1560 1158 1560 1192.5 1524 c 128,-1,23
 1227 1488 1227 1488 1242 1437 c 1,24,-1
 1255 1606 l 1,25,-1
 2202 1606 l 1,26,-1
 2167 1373 l 1,27,-1
 1536 1373 l 1,28,-1
 1479 955 l 1,29,-1
 2043 955 l 1,30,-1
 2014 729 l 1,31,-1
 1447 729 l 1,32,-1
 1377 229 l 1,33,-1
 2046 229 l 1,34,-1
 2002 0 l 1,0,-1
1145 970 m 1,35,36
 1145 1163 1145 1163 1084 1260.5 c 128,-1,37
 1023 1358 1023 1358 884 1358 c 0,38,39
 803 1358 803 1358 727 1312 c 128,-1,40
 651 1266 651 1266 592.5 1173.5 c 128,-1,41
 534 1081 534 1081 499 942 c 128,-1,42
 464 803 464 803 464 618 c 0,43,44
 464 232 464 232 727 232 c 0,45,46
 825 232 825 232 902 288 c 128,-1,47
 979 344 979 344 1033 443 c 128,-1,48
 1087 542 1087 542 1115.5 677 c 128,-1,49
 1144 812 1144 812 1145 970 c 1,35,36
EndSplineSet
EndChar

StartChar: oe
Encoding: 339 339 256
Width: 1720
Flags: W
HStem: -17 223<454.582 673.684 1179.1 1477.43> 451 165<1126.22 1379.76> 915 230<534.807 777.137 1234.67 1469.95>
VStem: 95 302<263.779 726.595> 1491 227<719.625 892.448>
LayerCount: 2
Fore
SplineSet
1109 451 m 1,0,1
 1107 381 1107 381 1128 331 c 1,2,3
 1148 271 1148 271 1194 238.5 c 128,-1,4
 1240 206 1240 206 1310 206 c 0,5,6
 1454 206 1454 206 1575 298 c 1,7,-1
 1631 97 l 1,8,9
 1528 40 1528 40 1427.5 12 c 128,-1,10
 1327 -16 1327 -16 1231 -17 c 1,11,12
 1179 -16 1179 -16 1128 -3.5 c 128,-1,13
 1077 9 1077 9 1034 32 c 128,-1,14
 991 55 991 55 960 89.5 c 128,-1,15
 929 124 929 124 916 168 c 1,16,17
 851 80 851 80 757.5 33.5 c 128,-1,18
 664 -13 664 -13 544 -15 c 0,19,20
 459 -17 459 -17 392 1 c 1,21,22
 248 36 248 36 172.5 146 c 128,-1,23
 97 256 97 256 95 432 c 0,24,25
 94 498 94 498 105 576.5 c 128,-1,26
 116 655 116 655 142 734 c 128,-1,27
 168 813 168 813 212.5 887.5 c 128,-1,28
 257 962 257 962 323 1019 c 128,-1,29
 389 1076 389 1076 479.5 1110.5 c 128,-1,30
 570 1145 570 1145 689 1145 c 0,31,32
 759 1145 759 1145 816.5 1129 c 128,-1,33
 874 1113 874 1113 917 1085.5 c 128,-1,34
 960 1058 960 1058 986.5 1022.5 c 128,-1,35
 1013 987 1013 987 1021 948 c 1,36,37
 1058 1006 1058 1006 1100.5 1043.5 c 128,-1,38
 1143 1081 1143 1081 1189.5 1103.5 c 128,-1,39
 1236 1126 1236 1126 1285.5 1135.5 c 128,-1,40
 1335 1145 1335 1145 1388 1145 c 0,41,42
 1467 1144 1467 1144 1528.5 1122 c 128,-1,43
 1590 1100 1590 1100 1632 1061.5 c 128,-1,44
 1674 1023 1674 1023 1696 970.5 c 128,-1,45
 1718 918 1718 918 1718 858 c 0,46,47
 1718 851 1718 851 1717 845.5 c 128,-1,48
 1716 840 1716 840 1714 835 c 1,49,50
 1706 741 1706 741 1661.5 671 c 128,-1,51
 1617 601 1617 601 1539.5 553 c 128,-1,52
 1462 505 1462 505 1353 480 c 128,-1,53
 1244 455 1244 455 1109 451 c 1,0,1
563 211 m 1,54,55
 630 212 630 212 680 255 c 128,-1,56
 730 298 730 298 762.5 366.5 c 128,-1,57
 795 435 795 435 810.5 521.5 c 128,-1,58
 826 608 826 608 825 696 c 0,59,60
 823 807 823 807 784.5 861 c 128,-1,61
 746 915 746 915 659 915 c 0,62,63
 604 915 604 915 563 890.5 c 128,-1,64
 522 866 522 866 492.5 826 c 128,-1,65
 463 786 463 786 444 735 c 128,-1,66
 425 684 425 684 414.5 631 c 128,-1,67
 404 578 404 578 400 527 c 128,-1,68
 396 476 396 476 397 437 c 0,69,70
 398 326 398 326 438 269 c 128,-1,71
 478 212 478 212 563 211 c 1,54,55
1126 614 m 1,72,73
 1133 615 1133 615 1155 616 c 128,-1,74
 1177 617 1177 617 1208 620.5 c 128,-1,75
 1239 624 1239 624 1275 630.5 c 128,-1,76
 1311 637 1311 637 1346.5 648.5 c 128,-1,77
 1382 660 1382 660 1413.5 677 c 128,-1,78
 1445 694 1445 694 1467 719 c 1,79,80
 1478 739 1478 739 1484.5 760.5 c 128,-1,81
 1491 782 1491 782 1491 805 c 0,82,83
 1491 860 1491 860 1463 893.5 c 128,-1,84
 1435 927 1435 927 1377 927 c 0,85,86
 1317 927 1317 927 1272 899 c 128,-1,87
 1227 871 1227 871 1196 826 c 128,-1,88
 1165 781 1165 781 1147.5 725 c 128,-1,89
 1130 669 1130 669 1126 614 c 1,72,73
EndSplineSet
EndChar

StartChar: florin
Encoding: 402 402 297
Width: 792
Flags: W
HStem: -290 216<-33.6883 120.82> -32 20G<-74.2932 -69.5> 967 153<154 267 592 820> 1379 252<661.644 878.68>
DStem2: 167 146.5 498 406 0.130526 0.991445<-159.434 826.533 1020.65 1247.32>
LayerCount: 2
Fore
SplineSet
747 1379 m 0,0,1
 625 1379 625 1379 592 1120 c 1,2,-1
 841 1120 l 1,3,-1
 820 967 l 1,4,-1
 571 967 l 1,5,-1
 498 406 l 2,6,7
 473 215 473 215 437 82.5 c 128,-1,8
 401 -50 401 -50 347.5 -132.5 c 128,-1,9
 294 -215 294 -215 220.5 -252.5 c 128,-1,10
 147 -290 147 -290 47 -290 c 0,11,12
 9 -290 9 -290 -20.5 -276.5 c 128,-1,13
 -50 -263 -50 -263 -70 -247 c 128,-1,14
 -90 -231 -90 -231 -100.5 -217 c 0,15,-1
 -111 -203 l 1,16,-1
 -70 -12 l 1,17,18
 -69 -13 -69 -13 -58 -18 c 128,-1,19
 -47 -23 -47 -23 -31.5 -30 c 128,-1,20
 -16 -37 -16 -37 2 -45 c 128,-1,21
 20 -53 20 -53 35.5 -59.5 c 128,-1,22
 51 -66 51 -66 62 -70 c 128,-1,23
 73 -74 73 -74 74 -74 c 0,24,25
 99 -74 99 -74 115.5 -53 c 128,-1,26
 132 -32 132 -32 144 17 c 128,-1,27
 156 66 156 66 167 146.5 c 128,-1,28
 178 227 178 227 192 346 c 2,29,-1
 267 967 l 1,30,-1
 133 967 l 1,31,-1
 154 1120 l 1,32,-1
 287 1120 l 1,33,34
 302 1227 302 1227 335.5 1320.5 c 128,-1,35
 369 1414 369 1414 422.5 1483 c 128,-1,36
 476 1552 476 1552 549.5 1591.5 c 128,-1,37
 623 1631 623 1631 718 1631 c 0,38,39
 769 1631 769 1631 818 1619.5 c 128,-1,40
 867 1608 867 1608 912 1593 c 1,41,-1
 874 1354 l 1,42,43
 824 1379 824 1379 747 1379 c 0,0,1
EndSplineSet
EndChar

StartChar: circumflex
Encoding: 710 710 311
Width: 1159
Flags: W
HStem: 151 639<481 553>
VStem: 700 243<151 394>
LayerCount: 2
Fore
SplineSet
553 790 m 1,0,-1
 772 790 l 1,1,-1
 943 151 l 1,2,-1
 700 151 l 1,3,-1
 631 470 l 1,4,-1
 484 151 l 1,5,-1
 228 151 l 1,6,-1
 553 790 l 1,0,-1
EndSplineSet
EndChar

StartChar: caron
Encoding: 711 711 312
Width: 1159
Flags: W
HStem: 150 639<684 757>
VStem: 298 243<546 789>
DStem2: 541 789 298 789 0.257098 -0.966385<0 326.983> 610 469 687 150 0.454448 0.890773<0 351.851>
LayerCount: 2
Fore
SplineSet
687 150 m 1,0,-1
 468 150 l 1,1,-1
 298 789 l 1,2,-1
 541 789 l 1,3,-1
 610 469 l 1,4,-1
 757 789 l 1,5,-1
 1013 789 l 1,6,-1
 687 150 l 1,0,-1
EndSplineSet
EndChar

StartChar: ring
Encoding: 730 730 313
Width: 876
Flags: W
HStem: 148 151<306.436 544.708> 658 150<336.438 571.911>
VStem: 94 163<348.041 579.43> 621 164<375.235 609.001>
LayerCount: 2
Fore
SplineSet
460 658 m 0,0,1
 422 658 422 658 385 642 c 128,-1,2
 348 626 348 626 319.5 598.5 c 128,-1,3
 291 571 291 571 273.5 534 c 128,-1,4
 256 497 256 497 257 455 c 0,5,6
 258 420 258 420 271.5 391.5 c 128,-1,7
 285 363 285 363 307.5 342.5 c 128,-1,8
 330 322 330 322 359 310.5 c 128,-1,9
 388 299 388 299 421 299 c 0,10,11
 459 299 459 299 495.5 314.5 c 128,-1,12
 532 330 532 330 560.5 357.5 c 128,-1,13
 589 385 589 385 606 422.5 c 128,-1,14
 623 460 623 460 621 503 c 0,15,16
 620 536 620 536 607 564 c 128,-1,17
 594 592 594 592 572.5 613 c 128,-1,18
 551 634 551 634 522 646 c 128,-1,19
 493 658 493 658 460 658 c 0,0,1
94 432 m 0,20,21
 91 511 91 511 123.5 579.5 c 128,-1,22
 156 648 156 648 210.5 699 c 128,-1,23
 265 750 265 750 334.5 779 c 128,-1,24
 404 808 404 808 476 808 c 0,25,26
 539 808 539 808 594 786.5 c 128,-1,27
 649 765 649 765 690.5 727 c 128,-1,28
 732 689 732 689 757 637.5 c 128,-1,29
 782 586 782 586 785 525 c 0,30,31
 788 448 788 448 756.5 379.5 c 128,-1,32
 725 311 725 311 672 259.5 c 128,-1,33
 619 208 619 208 549 178 c 128,-1,34
 479 148 479 148 405 148 c 0,35,36
 343 148 343 148 287.5 169.5 c 128,-1,37
 232 191 232 191 189.5 228.5 c 128,-1,38
 147 266 147 266 121.5 318 c 128,-1,39
 96 370 96 370 94 432 c 0,20,21
EndSplineSet
EndChar

StartChar: tilde
Encoding: 732 732 314
Width: 1092
Flags: W
HStem: 146 217<610.761 775.848> 297 210<341.823 489.364>
VStem: 129 191<172 268.63> 778 210<364.219 468>
LayerCount: 2
Fore
SplineSet
739 146 m 0,0,1
 680 146 680 146 629.5 169.5 c 128,-1,2
 579 193 579 193 536 221.5 c 128,-1,3
 493 250 493 250 457.5 273.5 c 128,-1,4
 422 297 422 297 392 297 c 256,5,6
 362 297 362 297 344.5 269.5 c 128,-1,7
 327 242 327 242 320 172 c 1,8,-1
 129 172 l 1,9,10
 145 340 145 340 208.5 423.5 c 128,-1,11
 272 507 272 507 381 507 c 0,12,13
 441 507 441 507 486.5 484.5 c 128,-1,14
 532 462 532 462 570.5 435 c 128,-1,15
 609 408 609 408 644 385.5 c 128,-1,16
 679 363 679 363 719 363 c 0,17,18
 737 363 737 363 748.5 367.5 c 128,-1,19
 760 372 760 372 767 383.5 c 128,-1,20
 774 395 774 395 778 415.5 c 128,-1,21
 782 436 782 436 787 468 c 1,22,-1
 988 468 l 1,23,24
 980 393 980 393 959 333.5 c 128,-1,25
 938 274 938 274 906 232.5 c 128,-1,26
 874 191 874 191 831.5 168.5 c 128,-1,27
 789 146 789 146 739 146 c 0,0,1
EndSplineSet
EndChar

StartChar: acutecomb
Encoding: 769 769 315
Width: 1020
Flags: W
HStem: 129 637
VStem: 476 536
LayerCount: 2
Fore
SplineSet
476 155 m 1,0,-1
 721 766 l 1,1,-1
 1012 675 l 1,2,-1
 615 129 l 1,3,-1
 476 155 l 1,0,-1
EndSplineSet
EndChar

StartChar: uni0306
Encoding: 774 774 316
Width: 1249
Flags: W
HStem: 104 139<613.654 814.584>
VStem: 386 205<267.241 429>
LayerCount: 2
Fore
SplineSet
1066 425 m 1,0,1
 1037 257 1037 257 941.5 180.5 c 128,-1,2
 846 104 846 104 678 104 c 0,3,4
 534 104 534 104 462 160 c 128,-1,5
 390 216 390 216 385 334 c 0,6,7
 384 357 384 357 386 380 c 128,-1,8
 388 403 388 403 393 429 c 1,9,-1
 597 429 l 1,10,11
 595 416 595 416 593.5 405.5 c 128,-1,12
 592 395 592 395 591 384 c 0,13,14
 590 371 590 371 590.5 360.5 c 128,-1,15
 591 350 591 350 593 340 c 1,16,17
 597 290 597 290 620 266.5 c 128,-1,18
 643 243 643 243 702 243 c 0,19,20
 777 243 777 243 815 287 c 128,-1,21
 853 331 853 331 868 429 c 1,22,-1
 1070 429 l 1,23,-1
 1066 425 l 1,0,1
EndSplineSet
EndChar

StartChar: afii10051
Encoding: 1026 1026 319
Width: 1631
Flags: W
HStem: -280 231<896 1098.91> 2 21G<405 764.174> 989 229<1065.96 1290> 1361 248<241 618 976 1387>
VStem: 405 356<2 358> 1288 341<518.938 950.836>
DStem2: 405 2 761 2 0.156261 0.987716<55.629 1010.16 1139.05 1375.59> 1190 170 1535 204 0.152291 0.988336<-161.815 665.744>
LayerCount: 2
Fore
SplineSet
896 -48 m 1,0,1
 900 -47 900 -47 903 -46.5 c 128,-1,2
 906 -46 906 -46 910 -45 c 1,3,4
 924 -47 924 -47 940 -48 c 128,-1,5
 956 -49 956 -49 973 -49 c 0,6,7
 1061 -47 1061 -47 1116 10 c 128,-1,8
 1171 67 1171 67 1190 170 c 0,9,10
 1202 240 1202 240 1213 309.5 c 128,-1,11
 1224 379 1224 379 1235.5 452 c 128,-1,12
 1247 525 1247 525 1258.5 602 c 128,-1,13
 1270 679 1270 679 1283 765 c 0,14,15
 1285 777 1285 777 1286 787.5 c 128,-1,16
 1287 798 1287 798 1288 806 c 1,17,18
 1288 818 1288 818 1288 828.5 c 128,-1,19
 1288 839 1288 839 1287 848 c 0,20,21
 1282 915 1282 915 1246 952 c 128,-1,22
 1210 989 1210 989 1140 989 c 0,23,24
 1100 989 1100 989 1069.5 984 c 128,-1,25
 1039 979 1039 979 1012.5 968.5 c 128,-1,26
 986 958 986 958 960 941.5 c 128,-1,27
 934 925 934 925 904 903 c 1,28,-1
 761 2 l 1,29,-1
 405 2 l 1,30,-1
 618 1361 l 1,31,-1
 201 1361 l 1,32,-1
 241 1609 l 1,33,-1
 1426 1609 l 1,34,-1
 1387 1361 l 1,35,-1
 976 1361 l 1,36,-1
 931 1072 l 1,37,38
 950 1099 950 1099 984 1125.5 c 128,-1,39
 1018 1152 1018 1152 1064.5 1172.5 c 128,-1,40
 1111 1193 1111 1193 1168 1205.5 c 128,-1,41
 1225 1218 1225 1218 1290 1218 c 0,42,43
 1449 1218 1449 1218 1536.5 1136.5 c 128,-1,44
 1624 1055 1624 1055 1629 889 c 0,45,46
 1631 854 1631 854 1628 818.5 c 128,-1,47
 1625 783 1625 783 1619 742 c 0,48,49
 1609 675 1609 675 1598 605.5 c 128,-1,50
 1587 536 1587 536 1576 467 c 128,-1,51
 1565 398 1565 398 1554.5 331.5 c 128,-1,52
 1544 265 1544 265 1535 204 c 0,53,54
 1516 85 1516 85 1473.5 -5 c 128,-1,55
 1431 -95 1431 -95 1368.5 -155.5 c 128,-1,56
 1306 -216 1306 -216 1225.5 -247 c 128,-1,57
 1145 -278 1145 -278 1049 -280 c 1,58,59
 988 -280 988 -280 937.5 -271 c 128,-1,60
 887 -262 887 -262 847 -242 c 1,61,-1
 896 -48 l 1,0,1
EndSplineSet
EndChar

StartChar: afii10052
Encoding: 1027 1027 320
Width: 1077
Flags: W
HStem: 0 21G<83 442.826> 1387 220<636 1225>
VStem: 83 357<0 357>
DStem2: 83 0 440 0 0.139264 0.990255<49.7173 1450.5>
LayerCount: 2
Fore
SplineSet
643 1821 m 1,0,-1
 927 2446 l 1,1,-1
 1219 2313 l 1,2,-1
 789 1754 l 1,3,-1
 643 1821 l 1,0,-1
1255 1607 m 1,4,-1
 1225 1387 l 1,5,-1
 636 1387 l 1,6,-1
 440 0 l 1,7,-1
 83 0 l 1,8,-1
 309 1607 l 1,9,-1
 1255 1607 l 1,4,-1
EndSplineSet
EndChar

StartChar: afii10053
Encoding: 1028 1028 321
Width: 1240
Flags: W
HStem: -33 263<626.52 1031.38> 709 218<542 1077> 1373 259<789.865 1207.8>
VStem: 146 353<370.752 707.34>
DStem2: 1422 1535 1205.5 1329.5 0.872796 -0.488085<-242.375 33.1204>
LayerCount: 2
Fore
SplineSet
161 779 m 1,0,1
 189 976 189 976 256.5 1134 c 128,-1,2
 324 1292 324 1292 429.5 1402.5 c 128,-1,3
 535 1513 535 1513 677.5 1572.5 c 128,-1,4
 820 1632 820 1632 997 1632 c 0,5,6
 1072 1632 1072 1632 1138.5 1622.5 c 128,-1,7
 1205 1613 1205 1613 1260 1599 c 128,-1,8
 1315 1585 1315 1585 1356.5 1567.5 c 128,-1,9
 1398 1550 1398 1550 1422 1535 c 1,10,11
 1436 1528 1436 1528 1451 1519 c 1,12,-1
 1314 1266 l 1,13,14
 1259 1305 1259 1305 1205.5 1329.5 c 128,-1,15
 1152 1354 1152 1354 1083 1365 c 0,16,17
 1056 1370 1056 1370 1028 1371.5 c 128,-1,18
 1000 1373 1000 1373 970 1373 c 0,19,20
 880 1371 880 1371 811 1339 c 128,-1,21
 742 1307 742 1307 690.5 1248.5 c 128,-1,22
 639 1190 639 1190 603 1108.5 c 128,-1,23
 567 1027 567 1027 542 927 c 1,24,-1
 1112 927 l 1,25,-1
 1077 709 l 1,26,-1
 504 709 l 1,27,28
 501 671 501 671 499 637.5 c 128,-1,29
 497 604 497 604 499 572 c 1,30,31
 504 403 504 403 578 316.5 c 128,-1,32
 652 230 652 230 799 230 c 0,33,34
 984 230 984 230 1166 340 c 1,35,-1
 1222 88 l 1,36,37
 1189 64 1189 64 1136 42 c 128,-1,38
 1083 20 1083 20 1017.5 3.5 c 128,-1,39
 952 -13 952 -13 877.5 -23 c 128,-1,40
 803 -33 803 -33 728 -33 c 0,41,42
 588 -33 588 -33 481 7 c 128,-1,43
 374 47 374 47 301 122 c 128,-1,44
 228 197 228 197 189 304.5 c 128,-1,45
 150 412 150 412 146 547 c 0,46,47
 144 601 144 601 147 658 c 128,-1,48
 150 715 150 715 161 779 c 1,0,1
EndSplineSet
EndChar

StartChar: afii10058
Encoding: 1033 1033 326
Width: 2597
Flags: W
HStem: -3 326<94 283.749> 0 217<1650 2012.05> 817 217<1783 2077.7> 1385 221<916 1480>
VStem: 2192 352<388.431 723.836>
DStem2: 439.5 666.5 826 832 0.16227 0.986746<-217.289 786.299> 1264 0 1650 217 0.157824 0.987467<275.201 882.516 1102.95 1401.73>
LayerCount: 2
Fore
SplineSet
1703 0 m 1,0,-1
 1264 0 l 1,1,-1
 1480 1385 l 1,2,-1
 916 1385 l 1,3,-1
 826 832 l 2,4,5
 807 717 807 717 780.5 610 c 128,-1,6
 754 503 754 503 713.5 410.5 c 128,-1,7
 673 318 673 318 616 241.5 c 128,-1,8
 559 165 559 165 478.5 111 c 128,-1,9
 398 57 398 57 290.5 27 c 128,-1,10
 183 -3 183 -3 42 -3 c 1,11,-1
 94 323 l 1,12,13
 159 323 159 323 209.5 336.5 c 128,-1,14
 260 350 260 350 299 377.5 c 128,-1,15
 338 405 338 405 365.5 449 c 128,-1,16
 393 493 393 493 413 555 c 0,17,18
 426 597 426 597 439.5 666.5 c 128,-1,19
 453 736 453 736 470 838 c 2,20,-1
 594 1606 l 1,21,-1
 1872 1606 l 1,22,-1
 1783 1034 l 1,23,-1
 1854 1034 l 2,24,25
 2011 1034 2011 1034 2139.5 1016 c 128,-1,26
 2268 998 2268 998 2359.5 954 c 128,-1,27
 2451 910 2451 910 2502 835.5 c 128,-1,28
 2553 761 2553 761 2557 647 c 0,29,30
 2559 570 2559 570 2544 497 c 128,-1,31
 2529 424 2529 424 2501.5 360 c 128,-1,32
 2474 296 2474 296 2435.5 244 c 128,-1,33
 2397 192 2397 192 2353 156 c 0,34,35
 2295 109 2295 109 2225 78.5 c 128,-1,36
 2155 48 2155 48 2074 30 c 128,-1,37
 1993 12 1993 12 1903.5 4.5 c 128,-1,38
 1814 -3 1814 -3 1717 -3 c 1,39,-1
 1703 0 l 1,0,-1
2192 539 m 1,40,41
 2196 556 2196 556 2196.5 573.5 c 128,-1,42
 2197 591 2197 591 2195 606 c 1,43,44
 2191 668 2191 668 2160.5 708.5 c 128,-1,45
 2130 749 2130 749 2079 773 c 128,-1,46
 2028 797 2028 797 1960.5 807 c 128,-1,47
 1893 817 1893 817 1815 817 c 2,48,-1
 1744 817 l 1,49,-1
 1650 217 l 1,50,-1
 1751 217 l 2,51,52
 1854 217 1854 217 1931.5 234.5 c 128,-1,53
 2009 252 2009 252 2062.5 290 c 128,-1,54
 2116 328 2116 328 2148 389.5 c 128,-1,55
 2180 451 2180 451 2192 539 c 1,40,41
EndSplineSet
EndChar

StartChar: afii10059
Encoding: 1034 1034 327
Width: 2352
Flags: W
HStem: 0 218<1413 1774.25> 723 219<571 1129> 817 219<1532 1831.93> 1587 20G<306.187 666 1251.17 1612>
VStem: 83 357<0 357> 309 357<1250 1607> 1254 358<1249 1607>
DStem2: 83 0 440 0 0.139264 0.990255<49.7173 779.738 1000.78 1622.81> 1029 0 1413 218 0.13866 0.99034<269.14 729.882 1095.74 1622.67>
LayerCount: 2
Fore
SplineSet
1468 0 m 1,0,-1
 1029 0 l 1,1,-1
 1129 723 l 1,2,-1
 541 723 l 1,3,-1
 440 0 l 1,4,-1
 83 0 l 1,5,-1
 309 1607 l 1,6,-1
 666 1607 l 1,7,-1
 571 942 l 1,8,-1
 1160 942 l 1,9,-1
 1254 1607 l 1,10,-1
 1612 1607 l 1,11,-1
 1532 1036 l 1,12,-1
 1603 1036 l 2,13,14
 1758 1036 1758 1036 1884.5 1018.5 c 128,-1,15
 2011 1001 2011 1001 2102.5 958.5 c 128,-1,16
 2194 916 2194 916 2247 843.5 c 128,-1,17
 2300 771 2300 771 2308 661 c 0,18,19
 2314 582 2314 582 2301 510 c 0,20,21
 2283 404 2283 404 2244.5 325 c 128,-1,22
 2206 246 2206 246 2149.5 189 c 128,-1,23
 2093 132 2093 132 2020 95 c 128,-1,24
 1947 58 1947 58 1862 36.5 c 128,-1,25
 1777 15 1777 15 1681 6.5 c 128,-1,26
 1585 -2 1585 -2 1482 -2 c 1,27,-1
 1468 0 l 1,0,-1
1948 541 m 1,28,29
 1956 578 1956 578 1950 608 c 1,30,31
 1945 670 1945 670 1913.5 710.5 c 128,-1,32
 1882 751 1882 751 1830.5 774.5 c 128,-1,33
 1779 798 1779 798 1711.5 807.5 c 128,-1,34
 1644 817 1644 817 1566 817 c 2,35,-1
 1496 817 l 1,36,-1
 1413 218 l 1,37,-1
 1514 218 l 2,38,39
 1618 218 1618 218 1694.5 235.5 c 128,-1,40
 1771 253 1771 253 1824 292 c 128,-1,41
 1877 331 1877 331 1907 392.5 c 128,-1,42
 1937 454 1937 454 1948 541 c 1,28,29
EndSplineSet
EndChar

StartChar: afii10060
Encoding: 1035 1035 328
Width: 1660
Flags: W
HStem: -1 21G<398 757.234 1157 1507.5> 803 229<919 1216.98> 1358 248<260 611 968 1407>
VStem: 398 356<-1 355> 1255 342<499.229 763.934>
DStem2: 398 -1 754 -1 0.155552 0.987828<55.3765 869.812 1101.47 1375.59> 1157 -1 1496 -1 0.155444 0.987845<52.6954 745.419>
LayerCount: 2
Fore
SplineSet
754 -1 m 1,0,-1
 398 -1 l 1,1,-1
 611 1358 l 1,2,-1
 221 1358 l 1,3,-1
 260 1606 l 1,4,-1
 1446 1606 l 1,5,-1
 1407 1358 l 1,6,-1
 968 1358 l 1,7,-1
 919 1032 l 1,8,-1
 1256 1032 l 2,9,10
 1331 1032 1331 1032 1393 1011 c 128,-1,11
 1455 990 1455 990 1499.5 949 c 128,-1,12
 1544 908 1544 908 1569 846.5 c 128,-1,13
 1594 785 1594 785 1597 703 c 0,14,15
 1599 670 1599 670 1596 634.5 c 128,-1,16
 1593 599 1593 599 1585 557 c 1,17,18
 1564 425 1564 425 1541.5 287.5 c 128,-1,19
 1519 150 1519 150 1496 -1 c 1,20,-1
 1157 -1 l 1,21,22
 1182 155 1182 155 1204.5 298 c 128,-1,23
 1227 441 1227 441 1250 579 c 0,24,25
 1254 601 1254 601 1255 617 c 128,-1,26
 1256 633 1256 633 1255 650 c 0,27,28
 1254 688 1254 688 1242 717 c 128,-1,29
 1230 746 1230 746 1210.5 765 c 128,-1,30
 1191 784 1191 784 1166 793.5 c 128,-1,31
 1141 803 1141 803 1114 803 c 2,32,-1
 884 803 l 1,33,-1
 754 -1 l 1,0,-1
EndSplineSet
EndChar

StartChar: afii10062
Encoding: 1038 1038 331
Width: 1648
Flags: W
HStem: -204 239<171 300.709> 1586 20G<157 493.229 1050.83 1407> 1655 137<703.17 909.332>
VStem: 157 331<1275 1606> 481 204<1827.59 1979>
DStem2: 671 906 774 519 0.503228 0.864154<0 801.67>
LayerCount: 2
Fore
SplineSet
1160 1974 m 1,0,1
 1132 1808 1132 1808 1035.5 1731.5 c 128,-1,2
 939 1655 939 1655 773 1655 c 0,3,4
 629 1655 629 1655 557 1710.5 c 128,-1,5
 485 1766 485 1766 480 1884 c 0,6,7
 479 1907 479 1907 481 1930 c 128,-1,8
 483 1953 483 1953 488 1979 c 1,9,-1
 691 1979 l 1,10,11
 688 1967 688 1967 687 1956 c 128,-1,12
 686 1945 686 1945 685 1934 c 0,13,14
 680 1861 680 1861 704 1826.5 c 128,-1,15
 728 1792 728 1792 796 1792 c 0,16,17
 834 1792 834 1792 862 1803 c 128,-1,18
 890 1814 890 1814 909.5 1837 c 128,-1,19
 929 1860 929 1860 941.5 1895.5 c 128,-1,20
 954 1931 954 1931 962 1979 c 1,21,-1
 1165 1979 l 1,22,-1
 1160 1974 l 1,0,1
671 906 m 1,23,-1
 1062 1606 l 1,24,-1
 1407 1606 l 1,25,-1
 774 519 l 1,26,-1
 748 337 l 2,27,28
 743 305 743 305 733.5 252.5 c 128,-1,29
 724 200 724 200 701.5 140 c 128,-1,30
 679 80 679 80 640.5 19 c 128,-1,31
 602 -42 602 -42 539.5 -91.5 c 128,-1,32
 477 -141 477 -141 386.5 -172.5 c 128,-1,33
 296 -204 296 -204 171 -204 c 1,34,-1
 114 35 l 1,35,36
 179 35 179 35 227.5 49 c 128,-1,37
 276 63 276 63 311 86 c 128,-1,38
 346 109 346 109 369.5 139.5 c 128,-1,39
 393 170 393 170 407.5 203.5 c 128,-1,40
 422 237 422 237 430 271.5 c 128,-1,41
 438 306 438 306 443 337 c 2,42,-1
 468 518 l 1,43,-1
 157 1606 l 1,44,-1
 488 1606 l 1,45,-1
 671 906 l 1,23,-1
EndSplineSet
EndChar

StartChar: afii10145
Encoding: 1039 1039 332
Width: 1615
Flags: W
HStem: -372 21G<526 882.849> 0 222<470 580 933 1096> 1587 20G<306.187 666 1289.17 1648>
VStem: 309 357<1250 1607> 526 354<-372 -18> 1292 356<1251 1607>
DStem2: 83 0 470 222 0.139264 0.990255<273.732 1622.81> 1096 222 1423 0 0.13866 0.99034<0 1398.8>
LayerCount: 2
Fore
SplineSet
1423 0 m 1,0,-1
 933 0 l 1,1,-1
 880 -372 l 1,2,-1
 526 -372 l 1,3,-1
 580 0 l 1,4,-1
 83 0 l 1,5,-1
 309 1607 l 1,6,-1
 666 1607 l 1,7,-1
 470 222 l 1,8,-1
 1096 222 l 1,9,-1
 1292 1607 l 1,10,-1
 1648 1607 l 1,11,-1
 1423 0 l 1,0,-1
EndSplineSet
EndChar

StartChar: afii10018
Encoding: 1041 1041 334
Width: 1408
Flags: W
HStem: -2 217<469 829.733> 815 219<587 894.232> 1359 246<631 1308>
VStem: 1008 359<522.063 532.906 533.968 716.011>
DStem2: 83 -2 469 215 0.138836 0.990315<268.489 874.618 1095.94 1354.11>
LayerCount: 2
Fore
SplineSet
1361 533 m 1,0,1
 1363 530 1363 530 1363 527 c 128,-1,2
 1363 524 1363 524 1364 522 c 1,3,4
 1341 365 1341 365 1270.5 263.5 c 128,-1,5
 1200 162 1200 162 1092 103 c 128,-1,6
 984 44 984 44 843 21 c 128,-1,7
 702 -2 702 -2 539 -2 c 2,8,-1
 83 -2 l 1,9,-1
 271 1339 l 1,10,-1
 114 1339 l 1,11,-1
 152 1605 l 1,12,-1
 1343 1605 l 1,13,-1
 1308 1359 l 1,14,-1
 631 1359 l 1,15,-1
 587 1034 l 1,16,-1
 658 1034 l 2,17,18
 816 1034 816 1034 944 1015.5 c 128,-1,19
 1072 997 1072 997 1164 952.5 c 128,-1,20
 1256 908 1256 908 1308 833.5 c 128,-1,21
 1360 759 1360 759 1366 646 c 0,22,23
 1368 619 1368 619 1367 591.5 c 128,-1,24
 1366 564 1366 564 1361 533 c 1,0,1
625 814 m 0,25,26
 623 814 623 814 621 814.5 c 128,-1,27
 619 815 619 815 617 815 c 2,28,-1
 555 815 l 1,29,-1
 469 215 l 1,30,-1
 572 215 l 2,31,32
 665 215 665 215 739.5 230 c 128,-1,33
 814 245 814 245 869 281 c 128,-1,34
 924 317 924 317 958 377.5 c 128,-1,35
 992 438 992 438 1005 528 c 0,36,37
 1007 546 1007 546 1009 561.5 c 128,-1,38
 1011 577 1011 577 1008 593 c 1,39,40
 1005 657 1005 657 977.5 699.5 c 128,-1,41
 950 742 950 742 900.5 767.5 c 128,-1,42
 851 793 851 793 781 803.5 c 128,-1,43
 711 814 711 814 625 814 c 0,25,26
EndSplineSet
EndChar

StartChar: afii10020
Encoding: 1043 1043 336
Width: 1076
Flags: W
HStem: 0 21G<83 442.826> 1387 220<636 1225>
VStem: 83 357<0 357>
DStem2: 83 0 440 0 0.139264 0.990255<49.7173 1450.5>
LayerCount: 2
Fore
SplineSet
1255 1607 m 1,0,-1
 1225 1387 l 1,1,-1
 636 1387 l 1,2,-1
 440 0 l 1,3,-1
 83 0 l 1,4,-1
 309 1607 l 1,5,-1
 1255 1607 l 1,0,-1
EndSplineSet
EndChar

StartChar: afii10021
Encoding: 1044 1044 337
Width: 1802
Flags: W
HStem: -2 218<579 1261> 1386 221<872 1447>
DStem2: 434 821 784.5 769 0.141069 0.99<-379.625 621.138> 1219 -296 1577 -296 0.134324 0.990937<48.0882 296.977 515.822 1697.38>
LayerCount: 2
Fore
SplineSet
1655 323 m 1,0,-1
 1637 133 l 1,1,-1
 1577 -296 l 1,2,-1
 1219 -296 l 1,3,-1
 1261 -2 l 1,4,-1
 394 -2 l 1,5,-1
 351 -296 l 1,6,-1
 -2 -296 l 1,7,-1
 69 217 l 1,8,9
 158 217 158 217 220 260.5 c 128,-1,10
 282 304 282 304 322 393 c 1,11,12
 358 462 358 462 386 567 c 128,-1,13
 414 672 414 672 434 821 c 0,14,15
 448 919 448 919 462.5 1017.5 c 128,-1,16
 477 1116 477 1116 491 1219 c 2,17,-1
 546 1607 l 1,18,-1
 1836 1607 l 1,19,-1
 1655 323 l 1,0,-1
1282 216 m 1,20,-1
 1447 1386 l 1,21,-1
 872 1386 l 1,22,-1
 822 1029 l 2,23,24
 815 977 815 977 806 910 c 128,-1,25
 797 843 797 843 784.5 769 c 128,-1,26
 772 695 772 695 754 617.5 c 128,-1,27
 736 540 736 540 711.5 467.5 c 128,-1,28
 687 395 687 395 654.5 330 c 128,-1,29
 622 265 622 265 579 216 c 1,30,-1
 1282 216 l 1,20,-1
EndSplineSet
EndChar

StartChar: afii10024
Encoding: 1046 1046 339
Width: 2286
Flags: W
HStem: 0 21G<-4 385.356 960 1318.82 1897.25 2281> 696 216<995 1058 1445 1500> 1587 20G<278 652.158 1183.21 1543 2071.23 2452>
VStem: -4 372<0 372> 960 356<0 356> 1186 357<1250 1607> 1909 372<0 372> 2087 365<1242 1607>
DStem2: -4 0 368 0 0.655426 0.755259<243.819 1086.37> 642 1607 278 1607 0.452849 -0.891587<0 692.108> 960 0 1316 0 0.139868 0.99017<49.7932 702.865 970.871 1622.81> 1926 606 1500 696 0.506641 -0.862157<-234.079 513.854> 1539 912 1994 1045 0.619168 0.785259<90.6682 885.059>
LayerCount: 2
Fore
SplineSet
1058 696 m 1,0,-1
 972 696 l 1,1,-1
 368 0 l 1,2,-1
 -4 0 l 1,3,-1
 520 605 l 1,4,5
 566 656 566 656 603 692.5 c 128,-1,6
 640 729 640 729 674.5 753.5 c 128,-1,7
 709 778 709 778 743 791.5 c 128,-1,8
 777 805 777 805 817 811 c 1,9,10
 779 819 779 819 748 835 c 128,-1,11
 717 851 717 851 689 878.5 c 128,-1,12
 661 906 661 906 633.5 946.5 c 128,-1,13
 606 987 606 987 574 1045 c 1,14,-1
 278 1607 l 1,15,-1
 642 1607 l 1,16,-1
 995 912 l 1,17,-1
 1089 912 l 1,18,-1
 1186 1607 l 1,19,-1
 1543 1607 l 1,20,-1
 1445 912 l 1,21,-1
 1539 912 l 1,22,-1
 2087 1607 l 1,23,-1
 2452 1606 l 1,24,-1
 1994 1045 l 2,25,26
 1947 987 1947 987 1908.5 946 c 128,-1,27
 1870 905 1870 905 1834.5 878 c 128,-1,28
 1799 851 1799 851 1763.5 835 c 128,-1,29
 1728 819 1728 819 1688 811 c 1,30,31
 1725 805 1725 805 1755.5 791.5 c 128,-1,32
 1786 778 1786 778 1813.5 753.5 c 128,-1,33
 1841 729 1841 729 1868 692.5 c 128,-1,34
 1895 656 1895 656 1926 606 c 1,35,-1
 2281 0 l 1,36,-1
 1909 0 l 1,37,-1
 1500 696 l 1,38,-1
 1414 696 l 1,39,-1
 1316 0 l 1,40,-1
 960 0 l 1,41,-1
 1058 696 l 1,0,-1
EndSplineSet
EndChar

StartChar: afii10025
Encoding: 1047 1047 340
Width: 1513
Flags: W
HStem: -25 265<461.602 930.844> 691 242<562 1002.47> 1369 263<605.231 1122.79>
VStem: 1065 339<361.83 632.676> 1173 350<1059.48 1315.93>
DStem2: 314 340 201 84 0.931368 -0.36408<0 387.707>
LayerCount: 2
Fore
SplineSet
1169 818 m 1,0,1
 1175 818 1175 818 1181 814 c 1,2,3
 1219 809 1219 809 1258 788 c 128,-1,4
 1297 767 1297 767 1329 731 c 128,-1,5
 1361 695 1361 695 1381.5 644 c 128,-1,6
 1402 593 1402 593 1404 528 c 0,7,8
 1406 462 1406 462 1392.5 401 c 128,-1,9
 1379 340 1379 340 1354.5 287 c 128,-1,10
 1330 234 1330 234 1296.5 190.5 c 128,-1,11
 1263 147 1263 147 1224 116 c 0,12,13
 1171 75 1171 75 1109 47.5 c 128,-1,14
 1047 20 1047 20 976 4 c 128,-1,15
 905 -12 905 -12 826 -18.5 c 128,-1,16
 747 -25 747 -25 660 -25 c 0,17,18
 612 -25 612 -25 563.5 -19 c 128,-1,19
 515 -13 515 -13 470 -3.5 c 128,-1,20
 425 6 425 6 384.5 17.5 c 128,-1,21
 344 29 344 29 311 41 c 0,22,23
 294 47 294 47 277 54 c 128,-1,24
 260 61 260 61 244.5 67 c 128,-1,25
 229 73 229 73 217.5 77.5 c 128,-1,26
 206 82 206 82 201 84 c 1,27,-1
 314 340 l 1,28,29
 333 332 333 332 374 315.5 c 128,-1,30
 415 299 415 299 470 282 c 128,-1,31
 525 265 525 265 588.5 252.5 c 128,-1,32
 652 240 652 240 715 240 c 0,33,34
 798 240 798 240 864 258.5 c 128,-1,35
 930 277 930 277 975.5 313.5 c 128,-1,36
 1021 350 1021 350 1044 403.5 c 128,-1,37
 1067 457 1067 457 1065 527 c 0,38,39
 1063 609 1063 609 1000.5 649 c 128,-1,40
 938 689 938 689 796 691 c 1,41,-1
 700 691 l 1,42,-1
 523 691 l 1,43,-1
 562 933 l 1,44,-1
 718 933 l 1,45,-1
 802 933 l 1,46,47
 1000 935 1000 935 1088 1007 c 128,-1,48
 1176 1079 1176 1079 1173 1226 c 1,49,50
 1170 1283 1170 1283 1133.5 1317 c 128,-1,51
 1097 1351 1097 1351 1016 1363 c 0,52,53
 967 1370 967 1370 898 1369 c 1,54,55
 805 1369 805 1369 724.5 1354.5 c 128,-1,56
 644 1340 644 1340 584 1323.5 c 128,-1,57
 524 1307 524 1307 489 1293 c 128,-1,58
 454 1279 454 1279 453 1279 c 2,59,-1
 413 1515 l 1,60,61
 415 1518 415 1518 435 1528 c 128,-1,62
 455 1538 455 1538 489.5 1551 c 128,-1,63
 524 1564 524 1564 571.5 1578 c 128,-1,64
 619 1592 619 1592 675 1604 c 128,-1,65
 731 1616 731 1616 793 1624 c 128,-1,66
 855 1632 855 1632 920 1632 c 0,67,68
 951 1632 951 1632 979.5 1632 c 128,-1,69
 1008 1632 1008 1632 1037 1630 c 0,70,71
 1138 1625 1138 1625 1225.5 1606 c 128,-1,72
 1313 1587 1313 1587 1378 1547.5 c 128,-1,73
 1443 1508 1443 1508 1481.5 1444 c 128,-1,74
 1520 1380 1520 1380 1523 1285 c 0,75,76
 1526 1212 1526 1212 1507.5 1141.5 c 128,-1,77
 1489 1071 1489 1071 1453.5 1011 c 128,-1,78
 1418 951 1418 951 1367 905 c 128,-1,79
 1316 859 1316 859 1253 836 c 0,80,81
 1230 827 1230 827 1208.5 823 c 128,-1,82
 1187 819 1187 819 1169 818 c 1,0,1
EndSplineSet
EndChar

StartChar: afii10026
Encoding: 1048 1048 341
Width: 1617
Flags: W
HStem: 0 21G<83 404.581 1105 1427.81> 1587 20G<306.187 627 1247.44 1651>
VStem: 309 318<1289 1607> 1105 320<0 320>
DStem2: 83 0 402 0 0.139264 0.990255<44.4253 169.445 661.448 1622.81> 1105 0 1425 0 0.139264 0.990255<44.5646 1168.29>
LayerCount: 2
Fore
SplineSet
83 0 m 1,0,-1
 309 1607 l 1,1,-1
 627 1607 l 1,2,-1
 488 611 l 1,3,-1
 1263 1607 l 1,4,-1
 1651 1607 l 1,5,-1
 1425 0 l 1,6,-1
 1105 0 l 1,7,-1
 1267 1157 l 1,8,-1
 418 124 l 1,9,-1
 402 0 l 1,10,-1
 83 0 l 1,0,-1
EndSplineSet
EndChar

StartChar: afii10027
Encoding: 1049 1049 342
Width: 1617
Flags: W
HStem: 0 21G<83 404.581 1105 1427.81> 1587 20G<306.187 627 1247.44 1651> 1703 138<922.926 1129.22>
VStem: 309 318<1289 1607> 700 204<1876.59 2028> 1105 320<0 320>
DStem2: 83 0 402 0 0.139264 0.990255<44.4253 169.445 661.448 1622.81> 1105 0 1425 0 0.139264 0.990255<44.5646 1168.29>
LayerCount: 2
Fore
SplineSet
1383 2028 m 1,0,1
 1382 2026 1382 2026 1381 2025.5 c 128,-1,2
 1380 2025 1380 2025 1378 2023 c 1,3,4
 1354 1858 1354 1858 1258.5 1780.5 c 128,-1,5
 1163 1703 1163 1703 996 1703 c 0,6,7
 853 1703 853 1703 779.5 1758 c 128,-1,8
 706 1813 706 1813 700 1931 c 0,9,10
 697 1977 697 1977 706 2028 c 1,11,-1
 910 2028 l 1,12,13
 907 2015 907 2015 906 2004 c 128,-1,14
 905 1993 905 1993 904 1982 c 0,15,16
 899 1910 899 1910 924 1875.5 c 128,-1,17
 949 1841 949 1841 1018 1841 c 0,18,19
 1056 1841 1056 1841 1083.5 1852 c 128,-1,20
 1111 1863 1111 1863 1130 1886 c 128,-1,21
 1149 1909 1149 1909 1160.5 1944 c 128,-1,22
 1172 1979 1172 1979 1180 2028 c 1,23,-1
 1383 2028 l 1,0,1
83 0 m 1,24,-1
 309 1607 l 1,25,-1
 627 1607 l 1,26,-1
 488 611 l 1,27,-1
 1263 1607 l 1,28,-1
 1651 1607 l 1,29,-1
 1425 0 l 1,30,-1
 1105 0 l 1,31,-1
 1267 1157 l 1,32,-1
 418 124 l 1,33,-1
 402 0 l 1,34,-1
 83 0 l 1,24,-1
EndSplineSet
EndChar

StartChar: afii10028
Encoding: 1050 1050 343
Width: 1418
Flags: W
HStem: 0 21G<83 442.816 1027.13 1413> 1587 20G<306.187 666 1200.12 1582>
VStem: 83 357<0 357> 309 357<1250 1607> 1039 374<0 374> 1216 366<1241 1607>
DStem2: 83 0 440 0 0.139264 0.990255<49.7173 752.583 970.656 1622.81> 1053 606 626 696 0.51031 -0.85999<-236.45 514.01> 664 912 1122 1045 0.621943 0.783062<91.1001 887.541>
LayerCount: 2
Fore
SplineSet
440 0 m 1,0,-1
 83 0 l 1,1,-1
 309 1607 l 1,2,-1
 666 1607 l 1,3,-1
 568 912 l 1,4,-1
 664 912 l 1,5,-1
 1216 1607 l 1,6,-1
 1582 1607 l 1,7,-1
 1122 1045 l 2,8,9
 1075 987 1075 987 1036.5 946 c 128,-1,10
 998 905 998 905 962.5 878 c 128,-1,11
 927 851 927 851 891.5 835 c 128,-1,12
 856 819 856 819 816 811 c 1,13,14
 853 805 853 805 883.5 791.5 c 128,-1,15
 914 778 914 778 941.5 753.5 c 128,-1,16
 969 729 969 729 995.5 692.5 c 128,-1,17
 1022 656 1022 656 1053 606 c 1,18,-1
 1413 0 l 1,19,-1
 1039 0 l 1,20,-1
 626 696 l 1,21,-1
 538 696 l 1,22,-1
 440 0 l 1,0,-1
EndSplineSet
EndChar

StartChar: afii10029
Encoding: 1051 1051 344
Width: 1810
Flags: W
HStem: -3 326<89 276.99> 1386 221<893 1454>
VStem: 1258 357<1 358>
DStem2: 431 689.5 812 838 0.147682 0.989035<-240.613 757.092> 1258 1 1615 1 0.140558 0.990072<50.1793 1398.8>
LayerCount: 2
Fore
SplineSet
1615 1 m 1,0,-1
 1258 1 l 1,1,-1
 1454 1386 l 1,2,-1
 893 1386 l 1,3,-1
 812 838 l 2,4,5
 794 721 794 721 769 613 c 128,-1,6
 744 505 744 505 705 411.5 c 128,-1,7
 666 318 666 318 609.5 241.5 c 128,-1,8
 553 165 553 165 473 110.5 c 128,-1,9
 393 56 393 56 287 26.5 c 128,-1,10
 181 -3 181 -3 42 -3 c 1,11,-1
 89 323 l 1,12,13
 181 324 181 324 247 351.5 c 128,-1,14
 313 379 313 379 353 439 c 0,15,16
 372 467 372 467 385.5 502.5 c 128,-1,17
 399 538 399 538 410 584.5 c 128,-1,18
 421 631 421 631 431 689.5 c 128,-1,19
 441 748 441 748 453 823 c 2,20,-1
 568 1607 l 1,21,-1
 1843 1607 l 1,22,-1
 1615 1 l 1,0,-1
EndSplineSet
EndChar

StartChar: afii10033
Encoding: 1055 1055 348
Width: 1615
Flags: W
HStem: 0 21G<83 442.801 1066 1425.8> 1385 222<634 1260>
VStem: 83 357<0 357> 309 1339<268 1607> 1066 357<0 357>
DStem2: 83 0 440 0 0.139264 0.990255<49.7173 1448.24> 1066 0 1423 0 0.13866 0.99034<49.5016 1398.52>
LayerCount: 2
Fore
SplineSet
1423 0 m 1,0,-1
 1066 0 l 1,1,-1
 1260 1385 l 1,2,-1
 634 1385 l 1,3,-1
 440 0 l 1,4,-1
 83 0 l 1,5,-1
 309 1607 l 1,6,-1
 1648 1607 l 1,7,-1
 1423 0 l 1,0,-1
EndSplineSet
EndChar

